G04 #@! TF.GenerationSoftware,KiCad,Pcbnew,(5.0.0)*
G04 #@! TF.CreationDate,2019-03-22T21:44:54+01:00*
G04 #@! TF.ProjectId,rpismdoven,727069736D646F76656E2E6B69636164,rev?*
G04 #@! TF.SameCoordinates,Original*
G04 #@! TF.FileFunction,Copper,L2,Bot,Signal*
G04 #@! TF.FilePolarity,Positive*
%FSLAX46Y46*%
G04 Gerber Fmt 4.6, Leading zero omitted, Abs format (unit mm)*
G04 Created by KiCad (PCBNEW (5.0.0)) date 03/22/19 21:44:54*
%MOMM*%
%LPD*%
G01*
G04 APERTURE LIST*
G04 #@! TA.AperFunction,ComponentPad*
%ADD10C,3.000000*%
G04 #@! TD*
G04 #@! TA.AperFunction,ComponentPad*
%ADD11R,3.000000X3.000000*%
G04 #@! TD*
G04 #@! TA.AperFunction,ComponentPad*
%ADD12R,2.000000X2.000000*%
G04 #@! TD*
G04 #@! TA.AperFunction,ComponentPad*
%ADD13C,2.000000*%
G04 #@! TD*
G04 #@! TA.AperFunction,ComponentPad*
%ADD14R,1.300000X1.300000*%
G04 #@! TD*
G04 #@! TA.AperFunction,ComponentPad*
%ADD15C,1.300000*%
G04 #@! TD*
G04 #@! TA.AperFunction,ComponentPad*
%ADD16R,1.700000X1.700000*%
G04 #@! TD*
G04 #@! TA.AperFunction,ComponentPad*
%ADD17O,1.700000X1.700000*%
G04 #@! TD*
G04 #@! TA.AperFunction,ComponentPad*
%ADD18O,1.600000X1.600000*%
G04 #@! TD*
G04 #@! TA.AperFunction,ComponentPad*
%ADD19R,1.600000X1.600000*%
G04 #@! TD*
G04 #@! TA.AperFunction,ViaPad*
%ADD20C,0.800000*%
G04 #@! TD*
G04 #@! TA.AperFunction,Conductor*
%ADD21C,0.250000*%
G04 #@! TD*
G04 #@! TA.AperFunction,Conductor*
%ADD22C,0.254000*%
G04 #@! TD*
G04 APERTURE END LIST*
D10*
G04 #@! TO.P,J3,2*
G04 #@! TO.N,Net-(J3-Pad2)*
X108900000Y-83780000D03*
D11*
G04 #@! TO.P,J3,1*
G04 #@! TO.N,Net-(J3-Pad1)*
X108900000Y-78700000D03*
G04 #@! TD*
D12*
G04 #@! TO.P,BZ1,1*
G04 #@! TO.N,+5V*
X148000000Y-87750000D03*
D13*
G04 #@! TO.P,BZ1,2*
G04 #@! TO.N,Net-(BZ1-Pad2)*
X148000000Y-80150000D03*
G04 #@! TD*
D14*
G04 #@! TO.P,Q2,1*
G04 #@! TO.N,GND*
X141750000Y-71250000D03*
D15*
G04 #@! TO.P,Q2,3*
G04 #@! TO.N,Net-(J2-Pad2)*
X141750000Y-73790000D03*
G04 #@! TO.P,Q2,2*
G04 #@! TO.N,Net-(Q2-Pad2)*
X143020000Y-72520000D03*
G04 #@! TD*
G04 #@! TO.P,Q1,2*
G04 #@! TO.N,Net-(Q1-Pad2)*
X150020000Y-72520000D03*
G04 #@! TO.P,Q1,3*
G04 #@! TO.N,Net-(BZ1-Pad2)*
X148750000Y-73790000D03*
D14*
G04 #@! TO.P,Q1,1*
G04 #@! TO.N,GND*
X148750000Y-71250000D03*
G04 #@! TD*
D16*
G04 #@! TO.P,J4,1*
G04 #@! TO.N,Net-(J4-Pad1)*
X137750000Y-80000000D03*
D17*
G04 #@! TO.P,J4,2*
G04 #@! TO.N,+3V3*
X135210000Y-80000000D03*
G04 #@! TO.P,J4,3*
G04 #@! TO.N,GND*
X132670000Y-80000000D03*
G04 #@! TO.P,J4,4*
G04 #@! TO.N,/SO*
X130130000Y-80000000D03*
G04 #@! TO.P,J4,5*
G04 #@! TO.N,/CS*
X127590000Y-80000000D03*
G04 #@! TO.P,J4,6*
G04 #@! TO.N,/SCK*
X125050000Y-80000000D03*
G04 #@! TD*
D16*
G04 #@! TO.P,J1,1*
G04 #@! TO.N,+3V3*
X107100000Y-60200000D03*
D17*
G04 #@! TO.P,J1,2*
G04 #@! TO.N,+5V*
X107100000Y-57660000D03*
G04 #@! TO.P,J1,3*
G04 #@! TO.N,Net-(J1-Pad3)*
X109640000Y-60200000D03*
G04 #@! TO.P,J1,4*
G04 #@! TO.N,+5V*
X109640000Y-57660000D03*
G04 #@! TO.P,J1,5*
G04 #@! TO.N,Net-(J1-Pad5)*
X112180000Y-60200000D03*
G04 #@! TO.P,J1,6*
G04 #@! TO.N,GND*
X112180000Y-57660000D03*
G04 #@! TO.P,J1,7*
G04 #@! TO.N,Net-(J1-Pad7)*
X114720000Y-60200000D03*
G04 #@! TO.P,J1,8*
G04 #@! TO.N,Net-(J1-Pad8)*
X114720000Y-57660000D03*
G04 #@! TO.P,J1,9*
G04 #@! TO.N,GND*
X117260000Y-60200000D03*
G04 #@! TO.P,J1,10*
G04 #@! TO.N,Net-(J1-Pad10)*
X117260000Y-57660000D03*
G04 #@! TO.P,J1,11*
G04 #@! TO.N,Net-(J1-Pad11)*
X119800000Y-60200000D03*
G04 #@! TO.P,J1,12*
G04 #@! TO.N,/SO*
X119800000Y-57660000D03*
G04 #@! TO.P,J1,13*
G04 #@! TO.N,Net-(J1-Pad13)*
X122340000Y-60200000D03*
G04 #@! TO.P,J1,14*
G04 #@! TO.N,GND*
X122340000Y-57660000D03*
G04 #@! TO.P,J1,15*
G04 #@! TO.N,Net-(J1-Pad15)*
X124880000Y-60200000D03*
G04 #@! TO.P,J1,16*
G04 #@! TO.N,Net-(J1-Pad16)*
X124880000Y-57660000D03*
G04 #@! TO.P,J1,17*
G04 #@! TO.N,+3V3*
X127420000Y-60200000D03*
G04 #@! TO.P,J1,18*
G04 #@! TO.N,/CS*
X127420000Y-57660000D03*
G04 #@! TO.P,J1,19*
G04 #@! TO.N,Net-(J1-Pad19)*
X129960000Y-60200000D03*
G04 #@! TO.P,J1,20*
G04 #@! TO.N,GND*
X129960000Y-57660000D03*
G04 #@! TO.P,J1,21*
G04 #@! TO.N,Net-(J1-Pad21)*
X132500000Y-60200000D03*
G04 #@! TO.P,J1,22*
G04 #@! TO.N,/SCK*
X132500000Y-57660000D03*
G04 #@! TO.P,J1,23*
G04 #@! TO.N,Net-(J1-Pad23)*
X135040000Y-60200000D03*
G04 #@! TO.P,J1,24*
G04 #@! TO.N,Net-(J1-Pad24)*
X135040000Y-57660000D03*
G04 #@! TO.P,J1,25*
G04 #@! TO.N,GND*
X137580000Y-60200000D03*
G04 #@! TO.P,J1,26*
G04 #@! TO.N,Net-(J1-Pad26)*
X137580000Y-57660000D03*
G04 #@! TO.P,J1,27*
G04 #@! TO.N,Net-(J1-Pad27)*
X140120000Y-60200000D03*
G04 #@! TO.P,J1,28*
G04 #@! TO.N,Net-(J1-Pad28)*
X140120000Y-57660000D03*
G04 #@! TO.P,J1,29*
G04 #@! TO.N,Net-(J1-Pad29)*
X142660000Y-60200000D03*
G04 #@! TO.P,J1,30*
G04 #@! TO.N,GND*
X142660000Y-57660000D03*
G04 #@! TO.P,J1,31*
G04 #@! TO.N,Net-(J1-Pad31)*
X145200000Y-60200000D03*
G04 #@! TO.P,J1,32*
G04 #@! TO.N,/PWM*
X145200000Y-57660000D03*
G04 #@! TO.P,J1,33*
G04 #@! TO.N,/BUZZ*
X147740000Y-60200000D03*
G04 #@! TO.P,J1,34*
G04 #@! TO.N,GND*
X147740000Y-57660000D03*
G04 #@! TO.P,J1,35*
G04 #@! TO.N,Net-(J1-Pad35)*
X150280000Y-60200000D03*
G04 #@! TO.P,J1,36*
G04 #@! TO.N,Net-(J1-Pad36)*
X150280000Y-57660000D03*
G04 #@! TO.P,J1,37*
G04 #@! TO.N,Net-(J1-Pad37)*
X152820000Y-60200000D03*
G04 #@! TO.P,J1,38*
G04 #@! TO.N,Net-(J1-Pad38)*
X152820000Y-57660000D03*
G04 #@! TO.P,J1,39*
G04 #@! TO.N,GND*
X155360000Y-60200000D03*
G04 #@! TO.P,J1,40*
G04 #@! TO.N,Net-(J1-Pad40)*
X155360000Y-57660000D03*
G04 #@! TD*
D18*
G04 #@! TO.P,D2,2*
G04 #@! TO.N,Net-(D2-Pad2)*
X130250000Y-73620000D03*
D19*
G04 #@! TO.P,D2,1*
G04 #@! TO.N,/CS*
X130250000Y-66000000D03*
G04 #@! TD*
G04 #@! TO.P,D1,1*
G04 #@! TO.N,/SCK*
X134750000Y-66000000D03*
D18*
G04 #@! TO.P,D1,2*
G04 #@! TO.N,Net-(D1-Pad2)*
X134750000Y-73620000D03*
G04 #@! TD*
D11*
G04 #@! TO.P,J2,1*
G04 #@! TO.N,+5V*
X102900000Y-66300000D03*
D10*
G04 #@! TO.P,J2,2*
G04 #@! TO.N,Net-(J2-Pad2)*
X102900000Y-71380000D03*
G04 #@! TD*
D20*
G04 #@! TO.N,+5V*
X115500000Y-83250000D03*
G04 #@! TO.N,Net-(J2-Pad2)*
X119000000Y-77000000D03*
X113500000Y-76250000D03*
G04 #@! TO.N,+3V3*
X127750000Y-68212500D03*
X117000000Y-73500000D03*
G04 #@! TO.N,GND*
X120000000Y-63250000D03*
X124250000Y-63250000D03*
X122000000Y-65750000D03*
X117250000Y-62750000D03*
X111750000Y-62750000D03*
X113750000Y-67250000D03*
X117000000Y-65250000D03*
X109750000Y-64500000D03*
X109500000Y-69500000D03*
X109500000Y-71000000D03*
X99750000Y-62750000D03*
X104500000Y-62750000D03*
X105750000Y-87500000D03*
X111500000Y-87500000D03*
X117500000Y-87500000D03*
X123250000Y-87500000D03*
X128500000Y-87500000D03*
X134500000Y-87500000D03*
X140000000Y-87500000D03*
X144750000Y-87500000D03*
X149000000Y-91000000D03*
X153500000Y-86750000D03*
X158750000Y-84000000D03*
X162250000Y-79750000D03*
X154750000Y-80500000D03*
X162500000Y-72000000D03*
X160500000Y-78000000D03*
X159750000Y-66500000D03*
X159750000Y-63000000D03*
X154750000Y-63000000D03*
X130000000Y-62750000D03*
X132250000Y-63000000D03*
X132500000Y-67750000D03*
X135000000Y-62500000D03*
X140250000Y-62500000D03*
X141500000Y-66000000D03*
X137500000Y-68000000D03*
X137500000Y-72500000D03*
X140000000Y-77000000D03*
X132500000Y-76250000D03*
X119250000Y-73250000D03*
X121000000Y-75500000D03*
X122250000Y-78750000D03*
X125250000Y-77000000D03*
X118250000Y-78500000D03*
X121250000Y-82000000D03*
X117000000Y-81750000D03*
X157500000Y-78250000D03*
X154500000Y-78250000D03*
X145750000Y-74250000D03*
X144500000Y-77750000D03*
X126500000Y-65750000D03*
X124000000Y-68750000D03*
X127750000Y-72000000D03*
X124000000Y-72750000D03*
G04 #@! TO.N,Net-(C1-Pad2)*
X114500000Y-69250000D03*
X114750000Y-74250000D03*
G04 #@! TO.N,/SCK*
X128750000Y-77250000D03*
X132250000Y-74000000D03*
X132750000Y-72000000D03*
G04 #@! TO.N,Net-(J1-Pad27)*
X150250000Y-67750000D03*
X143250000Y-66500000D03*
G04 #@! TO.N,Net-(J1-Pad29)*
X150000000Y-63000000D03*
G04 #@! TO.N,Net-(J1-Pad31)*
X149000000Y-62000000D03*
G04 #@! TD*
D21*
G04 #@! TO.N,+5V*
X108464999Y-58835001D02*
X108464999Y-72964999D01*
X109640000Y-57660000D02*
X108464999Y-58835001D01*
X108464999Y-72964999D02*
X112250000Y-76750000D01*
X112250000Y-76750000D02*
X112250000Y-80250000D01*
X112250000Y-80250000D02*
X115250000Y-83250000D01*
X115250000Y-83250000D02*
X115500000Y-83250000D01*
G04 #@! TO.N,Net-(J2-Pad2)*
X119000000Y-77000000D02*
X114250000Y-77000000D01*
X114250000Y-77000000D02*
X113500000Y-76250000D01*
G04 #@! TO.N,+3V3*
X135210000Y-75672500D02*
X127750000Y-68212500D01*
X135210000Y-80000000D02*
X135210000Y-75672500D01*
X127420000Y-60200000D02*
X127420000Y-63080000D01*
X127420000Y-63080000D02*
X117000000Y-73500000D01*
G04 #@! TO.N,Net-(C1-Pad2)*
X114500000Y-74000000D02*
X114750000Y-74250000D01*
X114500000Y-69250000D02*
X114500000Y-74000000D01*
G04 #@! TO.N,/SCK*
X128750000Y-77250000D02*
X132000000Y-74000000D01*
X132000000Y-74000000D02*
X132250000Y-74000000D01*
X134750000Y-70000000D02*
X134750000Y-66000000D01*
X132750000Y-72000000D02*
X134750000Y-70000000D01*
G04 #@! TO.N,/CS*
X128889496Y-66000000D02*
X129200000Y-66000000D01*
X129200000Y-66000000D02*
X130250000Y-66000000D01*
X126740001Y-79150001D02*
X126740001Y-68149495D01*
X126740001Y-68149495D02*
X128889496Y-66000000D01*
X127590000Y-80000000D02*
X126740001Y-79150001D01*
G04 #@! TO.N,Net-(J1-Pad27)*
X150250000Y-67750000D02*
X149000000Y-66500000D01*
X149000000Y-66500000D02*
X143250000Y-66500000D01*
G04 #@! TO.N,Net-(J1-Pad29)*
X145460000Y-63000000D02*
X142660000Y-60200000D01*
X150000000Y-63000000D02*
X145460000Y-63000000D01*
G04 #@! TO.N,Net-(J1-Pad31)*
X145200000Y-60200000D02*
X147000000Y-62000000D01*
X147000000Y-62000000D02*
X149000000Y-62000000D01*
G04 #@! TD*
D22*
G04 #@! TO.N,GND*
G36*
X161225708Y-55726100D02*
X161723212Y-55906685D01*
X162165835Y-56196881D01*
X162529823Y-56581116D01*
X162795658Y-57038784D01*
X162951892Y-57554629D01*
X162990001Y-57981629D01*
X162990000Y-108408752D01*
X162923900Y-108975708D01*
X162743315Y-109473212D01*
X162453118Y-109915834D01*
X162068884Y-110279823D01*
X161611216Y-110545658D01*
X161095371Y-110701892D01*
X160668382Y-110740000D01*
X101741248Y-110740000D01*
X101174292Y-110673900D01*
X100676788Y-110493315D01*
X100234166Y-110203118D01*
X99870177Y-109818884D01*
X99604342Y-109361216D01*
X99448108Y-108845371D01*
X99410000Y-108418382D01*
X99410000Y-107525322D01*
X100065000Y-107525322D01*
X100065000Y-108374678D01*
X100390034Y-109159380D01*
X100990620Y-109759966D01*
X101775322Y-110085000D01*
X102624678Y-110085000D01*
X103409380Y-109759966D01*
X104009966Y-109159380D01*
X104335000Y-108374678D01*
X104335000Y-107525322D01*
X104009966Y-106740620D01*
X103409380Y-106140034D01*
X102624678Y-105815000D01*
X101775322Y-105815000D01*
X100990620Y-106140034D01*
X100390034Y-106740620D01*
X100065000Y-107525322D01*
X99410000Y-107525322D01*
X99410000Y-93019930D01*
X99444926Y-92844345D01*
X99504774Y-92754775D01*
X99594345Y-92694926D01*
X99769930Y-92660000D01*
X102769926Y-92660000D01*
X102838509Y-92646358D01*
X102838513Y-92646358D01*
X103221196Y-92570238D01*
X103296160Y-92539187D01*
X103477138Y-92464224D01*
X103603075Y-92380075D01*
X141990000Y-92380075D01*
X141990001Y-107519926D01*
X142003642Y-107588504D01*
X142003642Y-107588513D01*
X142079762Y-107971196D01*
X142087678Y-107990306D01*
X142185776Y-108227138D01*
X142402549Y-108551561D01*
X142402550Y-108551562D01*
X142598438Y-108747451D01*
X142922862Y-108964223D01*
X143028877Y-109008136D01*
X143178804Y-109070238D01*
X143561486Y-109146358D01*
X143838513Y-109146358D01*
X144221196Y-109070238D01*
X144296160Y-109039187D01*
X144477138Y-108964224D01*
X144801561Y-108747451D01*
X144868556Y-108680456D01*
X144997451Y-108551562D01*
X145214223Y-108227138D01*
X145283159Y-108060711D01*
X145320238Y-107971196D01*
X145396358Y-107588514D01*
X145396358Y-107588509D01*
X145408926Y-107525322D01*
X158065000Y-107525322D01*
X158065000Y-108374678D01*
X158390034Y-109159380D01*
X158990620Y-109759966D01*
X159775322Y-110085000D01*
X160624678Y-110085000D01*
X161409380Y-109759966D01*
X162009966Y-109159380D01*
X162335000Y-108374678D01*
X162335000Y-107525322D01*
X162009966Y-106740620D01*
X161409380Y-106140034D01*
X160624678Y-105815000D01*
X159775322Y-105815000D01*
X158990620Y-106140034D01*
X158390034Y-106740620D01*
X158065000Y-107525322D01*
X145408926Y-107525322D01*
X145410000Y-107519926D01*
X145410000Y-92380074D01*
X145396358Y-92311491D01*
X145396358Y-92311486D01*
X145320238Y-91928804D01*
X145236271Y-91726091D01*
X145214223Y-91672862D01*
X144997451Y-91348438D01*
X144801562Y-91152550D01*
X144801561Y-91152549D01*
X144477138Y-90935776D01*
X144293368Y-90859657D01*
X144221196Y-90829762D01*
X143838513Y-90753642D01*
X143561486Y-90753642D01*
X143178804Y-90829762D01*
X143106632Y-90859657D01*
X142922862Y-90935777D01*
X142598438Y-91152549D01*
X142497346Y-91253642D01*
X142402549Y-91348439D01*
X142185776Y-91672862D01*
X142110813Y-91853840D01*
X142079762Y-91928804D01*
X142003642Y-92311487D01*
X142003642Y-92311492D01*
X141990000Y-92380075D01*
X103603075Y-92380075D01*
X103801561Y-92247451D01*
X103884379Y-92164633D01*
X103997451Y-92051562D01*
X104214223Y-91727138D01*
X104265072Y-91604378D01*
X104320238Y-91471196D01*
X104396358Y-91088514D01*
X104396358Y-91088509D01*
X104410000Y-91019926D01*
X104410000Y-86750000D01*
X146352560Y-86750000D01*
X146352560Y-88750000D01*
X146401843Y-88997765D01*
X146542191Y-89207809D01*
X146752235Y-89348157D01*
X147000000Y-89397440D01*
X149000000Y-89397440D01*
X149247765Y-89348157D01*
X149457809Y-89207809D01*
X149598157Y-88997765D01*
X149647440Y-88750000D01*
X149647440Y-86750000D01*
X149598157Y-86502235D01*
X149457809Y-86292191D01*
X149247765Y-86151843D01*
X149000000Y-86102560D01*
X147000000Y-86102560D01*
X146752235Y-86151843D01*
X146542191Y-86292191D01*
X146401843Y-86502235D01*
X146352560Y-86750000D01*
X104410000Y-86750000D01*
X104410000Y-83355322D01*
X106765000Y-83355322D01*
X106765000Y-84204678D01*
X107090034Y-84989380D01*
X107690620Y-85589966D01*
X108475322Y-85915000D01*
X109324678Y-85915000D01*
X110109380Y-85589966D01*
X110709966Y-84989380D01*
X111035000Y-84204678D01*
X111035000Y-83355322D01*
X110709966Y-82570620D01*
X110109380Y-81970034D01*
X109324678Y-81645000D01*
X108475322Y-81645000D01*
X107690620Y-81970034D01*
X107090034Y-82570620D01*
X106765000Y-83355322D01*
X104410000Y-83355322D01*
X104410000Y-77200000D01*
X106752560Y-77200000D01*
X106752560Y-80200000D01*
X106801843Y-80447765D01*
X106942191Y-80657809D01*
X107152235Y-80798157D01*
X107400000Y-80847440D01*
X110400000Y-80847440D01*
X110647765Y-80798157D01*
X110857809Y-80657809D01*
X110998157Y-80447765D01*
X111047440Y-80200000D01*
X111047440Y-77200000D01*
X110998157Y-76952235D01*
X110857809Y-76742191D01*
X110647765Y-76601843D01*
X110400000Y-76552560D01*
X107400000Y-76552560D01*
X107152235Y-76601843D01*
X106942191Y-76742191D01*
X106801843Y-76952235D01*
X106752560Y-77200000D01*
X104410000Y-77200000D01*
X104410000Y-75880074D01*
X104396358Y-75811491D01*
X104396358Y-75811486D01*
X104320238Y-75428804D01*
X104258136Y-75278877D01*
X104214223Y-75172862D01*
X103997451Y-74848438D01*
X103801562Y-74652550D01*
X103801561Y-74652549D01*
X103477138Y-74435776D01*
X103293368Y-74359657D01*
X103221196Y-74329762D01*
X102838513Y-74253642D01*
X102838509Y-74253642D01*
X102769926Y-74240000D01*
X99769930Y-74240000D01*
X99594345Y-74205074D01*
X99504774Y-74145225D01*
X99444926Y-74055655D01*
X99410000Y-73880070D01*
X99410000Y-70955322D01*
X100765000Y-70955322D01*
X100765000Y-71804678D01*
X101090034Y-72589380D01*
X101690620Y-73189966D01*
X102475322Y-73515000D01*
X103324678Y-73515000D01*
X104109380Y-73189966D01*
X104709966Y-72589380D01*
X105035000Y-71804678D01*
X105035000Y-70955322D01*
X104709966Y-70170620D01*
X104109380Y-69570034D01*
X103324678Y-69245000D01*
X102475322Y-69245000D01*
X101690620Y-69570034D01*
X101090034Y-70170620D01*
X100765000Y-70955322D01*
X99410000Y-70955322D01*
X99410000Y-64800000D01*
X100752560Y-64800000D01*
X100752560Y-67800000D01*
X100801843Y-68047765D01*
X100942191Y-68257809D01*
X101152235Y-68398157D01*
X101400000Y-68447440D01*
X104400000Y-68447440D01*
X104647765Y-68398157D01*
X104857809Y-68257809D01*
X104998157Y-68047765D01*
X105047440Y-67800000D01*
X105047440Y-64800000D01*
X104998157Y-64552235D01*
X104857809Y-64342191D01*
X104647765Y-64201843D01*
X104400000Y-64152560D01*
X101400000Y-64152560D01*
X101152235Y-64201843D01*
X100942191Y-64342191D01*
X100801843Y-64552235D01*
X100752560Y-64800000D01*
X99410000Y-64800000D01*
X99410000Y-58525322D01*
X100065000Y-58525322D01*
X100065000Y-59374678D01*
X100390034Y-60159380D01*
X100990620Y-60759966D01*
X101775322Y-61085000D01*
X102624678Y-61085000D01*
X103409380Y-60759966D01*
X104009966Y-60159380D01*
X104335000Y-59374678D01*
X104335000Y-58525322D01*
X104009966Y-57740620D01*
X103929346Y-57660000D01*
X105585908Y-57660000D01*
X105701161Y-58239418D01*
X106029375Y-58730625D01*
X106047619Y-58742816D01*
X106002235Y-58751843D01*
X105792191Y-58892191D01*
X105651843Y-59102235D01*
X105602560Y-59350000D01*
X105602560Y-61050000D01*
X105651843Y-61297765D01*
X105792191Y-61507809D01*
X106002235Y-61648157D01*
X106250000Y-61697440D01*
X107704999Y-61697440D01*
X107705000Y-72890147D01*
X107690111Y-72964999D01*
X107705000Y-73039851D01*
X107749096Y-73261536D01*
X107917071Y-73512928D01*
X107980527Y-73555328D01*
X111490000Y-77064802D01*
X111490001Y-80175148D01*
X111475112Y-80250000D01*
X111534097Y-80546537D01*
X111647265Y-80715904D01*
X111702072Y-80797929D01*
X111765528Y-80840329D01*
X114524346Y-83599148D01*
X114622569Y-83836280D01*
X114913720Y-84127431D01*
X115294126Y-84285000D01*
X115705874Y-84285000D01*
X116086280Y-84127431D01*
X116377431Y-83836280D01*
X116535000Y-83455874D01*
X116535000Y-83044126D01*
X116377431Y-82663720D01*
X116086280Y-82372569D01*
X115705874Y-82215000D01*
X115294126Y-82215000D01*
X115291068Y-82216267D01*
X113074801Y-80000000D01*
X123535908Y-80000000D01*
X123651161Y-80579418D01*
X123979375Y-81070625D01*
X124470582Y-81398839D01*
X124903744Y-81485000D01*
X125196256Y-81485000D01*
X125629418Y-81398839D01*
X126120625Y-81070625D01*
X126320000Y-80772239D01*
X126519375Y-81070625D01*
X127010582Y-81398839D01*
X127443744Y-81485000D01*
X127736256Y-81485000D01*
X128169418Y-81398839D01*
X128660625Y-81070625D01*
X128860000Y-80772239D01*
X129059375Y-81070625D01*
X129550582Y-81398839D01*
X129983744Y-81485000D01*
X130276256Y-81485000D01*
X130709418Y-81398839D01*
X131200625Y-81070625D01*
X131528839Y-80579418D01*
X131644092Y-80000000D01*
X131528839Y-79420582D01*
X131200625Y-78929375D01*
X130709418Y-78601161D01*
X130276256Y-78515000D01*
X129983744Y-78515000D01*
X129550582Y-78601161D01*
X129059375Y-78929375D01*
X128860000Y-79227761D01*
X128660625Y-78929375D01*
X128169418Y-78601161D01*
X127736256Y-78515000D01*
X127500001Y-78515000D01*
X127500001Y-69229223D01*
X127544126Y-69247500D01*
X127710199Y-69247500D01*
X130711355Y-72248656D01*
X130391333Y-72185000D01*
X130108667Y-72185000D01*
X129690091Y-72268260D01*
X129215423Y-72585423D01*
X128898260Y-73060091D01*
X128786887Y-73620000D01*
X128898260Y-74179909D01*
X129215423Y-74654577D01*
X129690091Y-74971740D01*
X129909763Y-75015436D01*
X128710199Y-76215000D01*
X128544126Y-76215000D01*
X128163720Y-76372569D01*
X127872569Y-76663720D01*
X127715000Y-77044126D01*
X127715000Y-77455874D01*
X127872569Y-77836280D01*
X128163720Y-78127431D01*
X128544126Y-78285000D01*
X128955874Y-78285000D01*
X129336280Y-78127431D01*
X129627431Y-77836280D01*
X129785000Y-77455874D01*
X129785000Y-77289801D01*
X132041068Y-75033733D01*
X132044126Y-75035000D01*
X132455874Y-75035000D01*
X132836280Y-74877431D01*
X133088205Y-74625506D01*
X134450001Y-75987303D01*
X134450000Y-78721822D01*
X134139375Y-78929375D01*
X133811161Y-79420582D01*
X133695908Y-80000000D01*
X133811161Y-80579418D01*
X134139375Y-81070625D01*
X134630582Y-81398839D01*
X135063744Y-81485000D01*
X135356256Y-81485000D01*
X135789418Y-81398839D01*
X136280625Y-81070625D01*
X136292816Y-81052381D01*
X136301843Y-81097765D01*
X136442191Y-81307809D01*
X136652235Y-81448157D01*
X136900000Y-81497440D01*
X138600000Y-81497440D01*
X138847765Y-81448157D01*
X139057809Y-81307809D01*
X139198157Y-81097765D01*
X139247440Y-80850000D01*
X139247440Y-79824778D01*
X146365000Y-79824778D01*
X146365000Y-80475222D01*
X146613914Y-81076153D01*
X147073847Y-81536086D01*
X147674778Y-81785000D01*
X148325222Y-81785000D01*
X148926153Y-81536086D01*
X149386086Y-81076153D01*
X149635000Y-80475222D01*
X149635000Y-79824778D01*
X149386086Y-79223847D01*
X148926153Y-78763914D01*
X148325222Y-78515000D01*
X147674778Y-78515000D01*
X147073847Y-78763914D01*
X146613914Y-79223847D01*
X146365000Y-79824778D01*
X139247440Y-79824778D01*
X139247440Y-79150000D01*
X139198157Y-78902235D01*
X139057809Y-78692191D01*
X138847765Y-78551843D01*
X138600000Y-78502560D01*
X136900000Y-78502560D01*
X136652235Y-78551843D01*
X136442191Y-78692191D01*
X136301843Y-78902235D01*
X136292816Y-78947619D01*
X136280625Y-78929375D01*
X135970000Y-78721822D01*
X135970000Y-75747346D01*
X135984888Y-75672499D01*
X135970000Y-75597652D01*
X135970000Y-75597648D01*
X135925904Y-75375963D01*
X135757929Y-75124571D01*
X135694473Y-75082171D01*
X135474240Y-74861938D01*
X135784577Y-74654577D01*
X136101740Y-74179909D01*
X136213113Y-73620000D01*
X136196086Y-73534398D01*
X140465000Y-73534398D01*
X140465000Y-74045602D01*
X140660629Y-74517894D01*
X141022106Y-74879371D01*
X141494398Y-75075000D01*
X142005602Y-75075000D01*
X142477894Y-74879371D01*
X142839371Y-74517894D01*
X143035000Y-74045602D01*
X143035000Y-73805000D01*
X143275602Y-73805000D01*
X143747894Y-73609371D01*
X143822867Y-73534398D01*
X147465000Y-73534398D01*
X147465000Y-74045602D01*
X147660629Y-74517894D01*
X148022106Y-74879371D01*
X148494398Y-75075000D01*
X149005602Y-75075000D01*
X149477894Y-74879371D01*
X149839371Y-74517894D01*
X150035000Y-74045602D01*
X150035000Y-73805000D01*
X150275602Y-73805000D01*
X150747894Y-73609371D01*
X151109371Y-73247894D01*
X151305000Y-72775602D01*
X151305000Y-72264398D01*
X151109371Y-71792106D01*
X150747894Y-71430629D01*
X150275602Y-71235000D01*
X149764398Y-71235000D01*
X149292106Y-71430629D01*
X148930629Y-71792106D01*
X148735000Y-72264398D01*
X148735000Y-72505000D01*
X148494398Y-72505000D01*
X148022106Y-72700629D01*
X147660629Y-73062106D01*
X147465000Y-73534398D01*
X143822867Y-73534398D01*
X144109371Y-73247894D01*
X144305000Y-72775602D01*
X144305000Y-72264398D01*
X144109371Y-71792106D01*
X143747894Y-71430629D01*
X143275602Y-71235000D01*
X142764398Y-71235000D01*
X142292106Y-71430629D01*
X141930629Y-71792106D01*
X141735000Y-72264398D01*
X141735000Y-72505000D01*
X141494398Y-72505000D01*
X141022106Y-72700629D01*
X140660629Y-73062106D01*
X140465000Y-73534398D01*
X136196086Y-73534398D01*
X136101740Y-73060091D01*
X135784577Y-72585423D01*
X135309909Y-72268260D01*
X134891333Y-72185000D01*
X134608667Y-72185000D01*
X134190091Y-72268260D01*
X133715423Y-72585423D01*
X133508062Y-72895760D01*
X133413006Y-72800705D01*
X133627431Y-72586280D01*
X133785000Y-72205874D01*
X133785000Y-72039801D01*
X135234473Y-70590329D01*
X135297929Y-70547929D01*
X135465904Y-70296537D01*
X135510000Y-70074852D01*
X135510000Y-70074848D01*
X135524888Y-70000001D01*
X135510000Y-69925154D01*
X135510000Y-67447440D01*
X135550000Y-67447440D01*
X135797765Y-67398157D01*
X136007809Y-67257809D01*
X136148157Y-67047765D01*
X136197440Y-66800000D01*
X136197440Y-66294126D01*
X142215000Y-66294126D01*
X142215000Y-66705874D01*
X142372569Y-67086280D01*
X142663720Y-67377431D01*
X143044126Y-67535000D01*
X143455874Y-67535000D01*
X143836280Y-67377431D01*
X143953711Y-67260000D01*
X148685199Y-67260000D01*
X149215000Y-67789802D01*
X149215000Y-67955874D01*
X149372569Y-68336280D01*
X149663720Y-68627431D01*
X150044126Y-68785000D01*
X150455874Y-68785000D01*
X150836280Y-68627431D01*
X151127431Y-68336280D01*
X151285000Y-67955874D01*
X151285000Y-67544126D01*
X151127431Y-67163720D01*
X150836280Y-66872569D01*
X150455874Y-66715000D01*
X150289802Y-66715000D01*
X149590331Y-66015530D01*
X149547929Y-65952071D01*
X149296537Y-65784096D01*
X149074852Y-65740000D01*
X149074847Y-65740000D01*
X149000000Y-65725112D01*
X148925153Y-65740000D01*
X143953711Y-65740000D01*
X143836280Y-65622569D01*
X143455874Y-65465000D01*
X143044126Y-65465000D01*
X142663720Y-65622569D01*
X142372569Y-65913720D01*
X142215000Y-66294126D01*
X136197440Y-66294126D01*
X136197440Y-65200000D01*
X136148157Y-64952235D01*
X136007809Y-64742191D01*
X135797765Y-64601843D01*
X135550000Y-64552560D01*
X133950000Y-64552560D01*
X133702235Y-64601843D01*
X133492191Y-64742191D01*
X133351843Y-64952235D01*
X133302560Y-65200000D01*
X133302560Y-66800000D01*
X133351843Y-67047765D01*
X133492191Y-67257809D01*
X133702235Y-67398157D01*
X133950000Y-67447440D01*
X133990001Y-67447440D01*
X133990000Y-69685198D01*
X132710199Y-70965000D01*
X132544126Y-70965000D01*
X132163720Y-71122569D01*
X131949295Y-71336994D01*
X128785000Y-68172699D01*
X128785000Y-68006626D01*
X128627431Y-67626220D01*
X128482754Y-67481543D01*
X128877754Y-67086544D01*
X128992191Y-67257809D01*
X129202235Y-67398157D01*
X129450000Y-67447440D01*
X131050000Y-67447440D01*
X131297765Y-67398157D01*
X131507809Y-67257809D01*
X131648157Y-67047765D01*
X131697440Y-66800000D01*
X131697440Y-65200000D01*
X131648157Y-64952235D01*
X131507809Y-64742191D01*
X131297765Y-64601843D01*
X131050000Y-64552560D01*
X129450000Y-64552560D01*
X129202235Y-64601843D01*
X128992191Y-64742191D01*
X128851843Y-64952235D01*
X128802560Y-65200000D01*
X128802560Y-65242404D01*
X128592959Y-65284096D01*
X128341567Y-65452071D01*
X128299167Y-65515527D01*
X126255529Y-67559166D01*
X126192073Y-67601566D01*
X126024098Y-67852958D01*
X126011566Y-67915963D01*
X125965113Y-68149495D01*
X125980002Y-68224347D01*
X125980001Y-78835413D01*
X125629418Y-78601161D01*
X125196256Y-78515000D01*
X124903744Y-78515000D01*
X124470582Y-78601161D01*
X123979375Y-78929375D01*
X123651161Y-79420582D01*
X123535908Y-80000000D01*
X113074801Y-80000000D01*
X113010000Y-79935199D01*
X113010000Y-77167311D01*
X113294126Y-77285000D01*
X113460198Y-77285000D01*
X113659671Y-77484473D01*
X113702071Y-77547929D01*
X113953463Y-77715904D01*
X114175148Y-77760000D01*
X114175152Y-77760000D01*
X114249999Y-77774888D01*
X114324846Y-77760000D01*
X118296289Y-77760000D01*
X118413720Y-77877431D01*
X118794126Y-78035000D01*
X119205874Y-78035000D01*
X119586280Y-77877431D01*
X119877431Y-77586280D01*
X120035000Y-77205874D01*
X120035000Y-76794126D01*
X119877431Y-76413720D01*
X119586280Y-76122569D01*
X119205874Y-75965000D01*
X118794126Y-75965000D01*
X118413720Y-76122569D01*
X118296289Y-76240000D01*
X114564802Y-76240000D01*
X114535000Y-76210198D01*
X114535000Y-76044126D01*
X114377431Y-75663720D01*
X114086280Y-75372569D01*
X113705874Y-75215000D01*
X113294126Y-75215000D01*
X112913720Y-75372569D01*
X112622569Y-75663720D01*
X112510084Y-75935282D01*
X109224999Y-72650198D01*
X109224999Y-69044126D01*
X113465000Y-69044126D01*
X113465000Y-69455874D01*
X113622569Y-69836280D01*
X113740000Y-69953711D01*
X113740001Y-73925148D01*
X113725112Y-74000000D01*
X113727761Y-74013318D01*
X113715000Y-74044126D01*
X113715000Y-74455874D01*
X113872569Y-74836280D01*
X114163720Y-75127431D01*
X114544126Y-75285000D01*
X114955874Y-75285000D01*
X115336280Y-75127431D01*
X115627431Y-74836280D01*
X115785000Y-74455874D01*
X115785000Y-74044126D01*
X115627431Y-73663720D01*
X115336280Y-73372569D01*
X115260000Y-73340973D01*
X115260000Y-69953711D01*
X115377431Y-69836280D01*
X115535000Y-69455874D01*
X115535000Y-69044126D01*
X115377431Y-68663720D01*
X115086280Y-68372569D01*
X114705874Y-68215000D01*
X114294126Y-68215000D01*
X113913720Y-68372569D01*
X113622569Y-68663720D01*
X113465000Y-69044126D01*
X109224999Y-69044126D01*
X109224999Y-61631543D01*
X109493744Y-61685000D01*
X109786256Y-61685000D01*
X110219418Y-61598839D01*
X110710625Y-61270625D01*
X110910000Y-60972239D01*
X111109375Y-61270625D01*
X111600582Y-61598839D01*
X112033744Y-61685000D01*
X112326256Y-61685000D01*
X112759418Y-61598839D01*
X113250625Y-61270625D01*
X113450000Y-60972239D01*
X113649375Y-61270625D01*
X114140582Y-61598839D01*
X114573744Y-61685000D01*
X114866256Y-61685000D01*
X115299418Y-61598839D01*
X115790625Y-61270625D01*
X116118839Y-60779418D01*
X116234092Y-60200000D01*
X116118839Y-59620582D01*
X115790625Y-59129375D01*
X115492239Y-58930000D01*
X115790625Y-58730625D01*
X115990000Y-58432239D01*
X116189375Y-58730625D01*
X116680582Y-59058839D01*
X117113744Y-59145000D01*
X117406256Y-59145000D01*
X117839418Y-59058839D01*
X118330625Y-58730625D01*
X118530000Y-58432239D01*
X118729375Y-58730625D01*
X119027761Y-58930000D01*
X118729375Y-59129375D01*
X118401161Y-59620582D01*
X118285908Y-60200000D01*
X118401161Y-60779418D01*
X118729375Y-61270625D01*
X119220582Y-61598839D01*
X119653744Y-61685000D01*
X119946256Y-61685000D01*
X120379418Y-61598839D01*
X120870625Y-61270625D01*
X121070000Y-60972239D01*
X121269375Y-61270625D01*
X121760582Y-61598839D01*
X122193744Y-61685000D01*
X122486256Y-61685000D01*
X122919418Y-61598839D01*
X123410625Y-61270625D01*
X123610000Y-60972239D01*
X123809375Y-61270625D01*
X124300582Y-61598839D01*
X124733744Y-61685000D01*
X125026256Y-61685000D01*
X125459418Y-61598839D01*
X125950625Y-61270625D01*
X126150000Y-60972239D01*
X126349375Y-61270625D01*
X126660000Y-61478178D01*
X126660001Y-62765196D01*
X116960199Y-72465000D01*
X116794126Y-72465000D01*
X116413720Y-72622569D01*
X116122569Y-72913720D01*
X115965000Y-73294126D01*
X115965000Y-73705874D01*
X116122569Y-74086280D01*
X116413720Y-74377431D01*
X116794126Y-74535000D01*
X117205874Y-74535000D01*
X117586280Y-74377431D01*
X117877431Y-74086280D01*
X118035000Y-73705874D01*
X118035000Y-73539801D01*
X127904476Y-63670327D01*
X127967929Y-63627929D01*
X128010327Y-63564476D01*
X128010329Y-63564474D01*
X128135903Y-63376538D01*
X128135904Y-63376537D01*
X128180000Y-63154852D01*
X128180000Y-63154848D01*
X128194888Y-63080001D01*
X128180000Y-63005154D01*
X128180000Y-61478178D01*
X128490625Y-61270625D01*
X128690000Y-60972239D01*
X128889375Y-61270625D01*
X129380582Y-61598839D01*
X129813744Y-61685000D01*
X130106256Y-61685000D01*
X130539418Y-61598839D01*
X131030625Y-61270625D01*
X131230000Y-60972239D01*
X131429375Y-61270625D01*
X131920582Y-61598839D01*
X132353744Y-61685000D01*
X132646256Y-61685000D01*
X133079418Y-61598839D01*
X133570625Y-61270625D01*
X133770000Y-60972239D01*
X133969375Y-61270625D01*
X134460582Y-61598839D01*
X134893744Y-61685000D01*
X135186256Y-61685000D01*
X135619418Y-61598839D01*
X136110625Y-61270625D01*
X136438839Y-60779418D01*
X136554092Y-60200000D01*
X136438839Y-59620582D01*
X136110625Y-59129375D01*
X135812239Y-58930000D01*
X136110625Y-58730625D01*
X136310000Y-58432239D01*
X136509375Y-58730625D01*
X137000582Y-59058839D01*
X137433744Y-59145000D01*
X137726256Y-59145000D01*
X138159418Y-59058839D01*
X138650625Y-58730625D01*
X138850000Y-58432239D01*
X139049375Y-58730625D01*
X139347761Y-58930000D01*
X139049375Y-59129375D01*
X138721161Y-59620582D01*
X138605908Y-60200000D01*
X138721161Y-60779418D01*
X139049375Y-61270625D01*
X139540582Y-61598839D01*
X139973744Y-61685000D01*
X140266256Y-61685000D01*
X140699418Y-61598839D01*
X141190625Y-61270625D01*
X141390000Y-60972239D01*
X141589375Y-61270625D01*
X142080582Y-61598839D01*
X142513744Y-61685000D01*
X142806256Y-61685000D01*
X143026408Y-61641209D01*
X144869671Y-63484473D01*
X144912071Y-63547929D01*
X145163463Y-63715904D01*
X145385148Y-63760000D01*
X145385153Y-63760000D01*
X145460000Y-63774888D01*
X145534847Y-63760000D01*
X149296289Y-63760000D01*
X149413720Y-63877431D01*
X149794126Y-64035000D01*
X150205874Y-64035000D01*
X150586280Y-63877431D01*
X150877431Y-63586280D01*
X151035000Y-63205874D01*
X151035000Y-62794126D01*
X150877431Y-62413720D01*
X150586280Y-62122569D01*
X150205874Y-61965000D01*
X150035000Y-61965000D01*
X150035000Y-61794126D01*
X149976874Y-61653797D01*
X150133744Y-61685000D01*
X150426256Y-61685000D01*
X150859418Y-61598839D01*
X151350625Y-61270625D01*
X151550000Y-60972239D01*
X151749375Y-61270625D01*
X152240582Y-61598839D01*
X152673744Y-61685000D01*
X152966256Y-61685000D01*
X153399418Y-61598839D01*
X153890625Y-61270625D01*
X154218839Y-60779418D01*
X154334092Y-60200000D01*
X154218839Y-59620582D01*
X153890625Y-59129375D01*
X153592239Y-58930000D01*
X153890625Y-58730625D01*
X154090000Y-58432239D01*
X154289375Y-58730625D01*
X154780582Y-59058839D01*
X155213744Y-59145000D01*
X155506256Y-59145000D01*
X155939418Y-59058839D01*
X156430625Y-58730625D01*
X156567804Y-58525322D01*
X158065000Y-58525322D01*
X158065000Y-59374678D01*
X158390034Y-60159380D01*
X158990620Y-60759966D01*
X159775322Y-61085000D01*
X160624678Y-61085000D01*
X161409380Y-60759966D01*
X162009966Y-60159380D01*
X162335000Y-59374678D01*
X162335000Y-58525322D01*
X162009966Y-57740620D01*
X161409380Y-57140034D01*
X160624678Y-56815000D01*
X159775322Y-56815000D01*
X158990620Y-57140034D01*
X158390034Y-57740620D01*
X158065000Y-58525322D01*
X156567804Y-58525322D01*
X156758839Y-58239418D01*
X156874092Y-57660000D01*
X156758839Y-57080582D01*
X156430625Y-56589375D01*
X155939418Y-56261161D01*
X155506256Y-56175000D01*
X155213744Y-56175000D01*
X154780582Y-56261161D01*
X154289375Y-56589375D01*
X154090000Y-56887761D01*
X153890625Y-56589375D01*
X153399418Y-56261161D01*
X152966256Y-56175000D01*
X152673744Y-56175000D01*
X152240582Y-56261161D01*
X151749375Y-56589375D01*
X151550000Y-56887761D01*
X151350625Y-56589375D01*
X150859418Y-56261161D01*
X150426256Y-56175000D01*
X150133744Y-56175000D01*
X149700582Y-56261161D01*
X149209375Y-56589375D01*
X148881161Y-57080582D01*
X148765908Y-57660000D01*
X148881161Y-58239418D01*
X149209375Y-58730625D01*
X149507761Y-58930000D01*
X149209375Y-59129375D01*
X149010000Y-59427761D01*
X148810625Y-59129375D01*
X148319418Y-58801161D01*
X147886256Y-58715000D01*
X147593744Y-58715000D01*
X147160582Y-58801161D01*
X146669375Y-59129375D01*
X146470000Y-59427761D01*
X146270625Y-59129375D01*
X145972239Y-58930000D01*
X146270625Y-58730625D01*
X146598839Y-58239418D01*
X146714092Y-57660000D01*
X146598839Y-57080582D01*
X146270625Y-56589375D01*
X145779418Y-56261161D01*
X145346256Y-56175000D01*
X145053744Y-56175000D01*
X144620582Y-56261161D01*
X144129375Y-56589375D01*
X143801161Y-57080582D01*
X143685908Y-57660000D01*
X143801161Y-58239418D01*
X144129375Y-58730625D01*
X144427761Y-58930000D01*
X144129375Y-59129375D01*
X143930000Y-59427761D01*
X143730625Y-59129375D01*
X143239418Y-58801161D01*
X142806256Y-58715000D01*
X142513744Y-58715000D01*
X142080582Y-58801161D01*
X141589375Y-59129375D01*
X141390000Y-59427761D01*
X141190625Y-59129375D01*
X140892239Y-58930000D01*
X141190625Y-58730625D01*
X141518839Y-58239418D01*
X141634092Y-57660000D01*
X141518839Y-57080582D01*
X141190625Y-56589375D01*
X140699418Y-56261161D01*
X140266256Y-56175000D01*
X139973744Y-56175000D01*
X139540582Y-56261161D01*
X139049375Y-56589375D01*
X138850000Y-56887761D01*
X138650625Y-56589375D01*
X138159418Y-56261161D01*
X137726256Y-56175000D01*
X137433744Y-56175000D01*
X137000582Y-56261161D01*
X136509375Y-56589375D01*
X136310000Y-56887761D01*
X136110625Y-56589375D01*
X135619418Y-56261161D01*
X135186256Y-56175000D01*
X134893744Y-56175000D01*
X134460582Y-56261161D01*
X133969375Y-56589375D01*
X133770000Y-56887761D01*
X133570625Y-56589375D01*
X133079418Y-56261161D01*
X132646256Y-56175000D01*
X132353744Y-56175000D01*
X131920582Y-56261161D01*
X131429375Y-56589375D01*
X131101161Y-57080582D01*
X130985908Y-57660000D01*
X131101161Y-58239418D01*
X131429375Y-58730625D01*
X131727761Y-58930000D01*
X131429375Y-59129375D01*
X131230000Y-59427761D01*
X131030625Y-59129375D01*
X130539418Y-58801161D01*
X130106256Y-58715000D01*
X129813744Y-58715000D01*
X129380582Y-58801161D01*
X128889375Y-59129375D01*
X128690000Y-59427761D01*
X128490625Y-59129375D01*
X128192239Y-58930000D01*
X128490625Y-58730625D01*
X128818839Y-58239418D01*
X128934092Y-57660000D01*
X128818839Y-57080582D01*
X128490625Y-56589375D01*
X127999418Y-56261161D01*
X127566256Y-56175000D01*
X127273744Y-56175000D01*
X126840582Y-56261161D01*
X126349375Y-56589375D01*
X126150000Y-56887761D01*
X125950625Y-56589375D01*
X125459418Y-56261161D01*
X125026256Y-56175000D01*
X124733744Y-56175000D01*
X124300582Y-56261161D01*
X123809375Y-56589375D01*
X123481161Y-57080582D01*
X123365908Y-57660000D01*
X123481161Y-58239418D01*
X123809375Y-58730625D01*
X124107761Y-58930000D01*
X123809375Y-59129375D01*
X123610000Y-59427761D01*
X123410625Y-59129375D01*
X122919418Y-58801161D01*
X122486256Y-58715000D01*
X122193744Y-58715000D01*
X121760582Y-58801161D01*
X121269375Y-59129375D01*
X121070000Y-59427761D01*
X120870625Y-59129375D01*
X120572239Y-58930000D01*
X120870625Y-58730625D01*
X121198839Y-58239418D01*
X121314092Y-57660000D01*
X121198839Y-57080582D01*
X120870625Y-56589375D01*
X120379418Y-56261161D01*
X119946256Y-56175000D01*
X119653744Y-56175000D01*
X119220582Y-56261161D01*
X118729375Y-56589375D01*
X118530000Y-56887761D01*
X118330625Y-56589375D01*
X117839418Y-56261161D01*
X117406256Y-56175000D01*
X117113744Y-56175000D01*
X116680582Y-56261161D01*
X116189375Y-56589375D01*
X115990000Y-56887761D01*
X115790625Y-56589375D01*
X115299418Y-56261161D01*
X114866256Y-56175000D01*
X114573744Y-56175000D01*
X114140582Y-56261161D01*
X113649375Y-56589375D01*
X113321161Y-57080582D01*
X113205908Y-57660000D01*
X113321161Y-58239418D01*
X113649375Y-58730625D01*
X113947761Y-58930000D01*
X113649375Y-59129375D01*
X113450000Y-59427761D01*
X113250625Y-59129375D01*
X112759418Y-58801161D01*
X112326256Y-58715000D01*
X112033744Y-58715000D01*
X111600582Y-58801161D01*
X111109375Y-59129375D01*
X110910000Y-59427761D01*
X110710625Y-59129375D01*
X110412239Y-58930000D01*
X110710625Y-58730625D01*
X111038839Y-58239418D01*
X111154092Y-57660000D01*
X111038839Y-57080582D01*
X110710625Y-56589375D01*
X110219418Y-56261161D01*
X109786256Y-56175000D01*
X109493744Y-56175000D01*
X109060582Y-56261161D01*
X108569375Y-56589375D01*
X108370000Y-56887761D01*
X108170625Y-56589375D01*
X107679418Y-56261161D01*
X107246256Y-56175000D01*
X106953744Y-56175000D01*
X106520582Y-56261161D01*
X106029375Y-56589375D01*
X105701161Y-57080582D01*
X105585908Y-57660000D01*
X103929346Y-57660000D01*
X103409380Y-57140034D01*
X102624678Y-56815000D01*
X101775322Y-56815000D01*
X100990620Y-57140034D01*
X100390034Y-57740620D01*
X100065000Y-58525322D01*
X99410000Y-58525322D01*
X99410000Y-57991247D01*
X99476100Y-57424292D01*
X99656685Y-56926788D01*
X99946881Y-56484165D01*
X100331116Y-56120177D01*
X100788784Y-55854342D01*
X101304629Y-55698108D01*
X101731618Y-55660000D01*
X160658753Y-55660000D01*
X161225708Y-55726100D01*
X161225708Y-55726100D01*
G37*
X161225708Y-55726100D02*
X161723212Y-55906685D01*
X162165835Y-56196881D01*
X162529823Y-56581116D01*
X162795658Y-57038784D01*
X162951892Y-57554629D01*
X162990001Y-57981629D01*
X162990000Y-108408752D01*
X162923900Y-108975708D01*
X162743315Y-109473212D01*
X162453118Y-109915834D01*
X162068884Y-110279823D01*
X161611216Y-110545658D01*
X161095371Y-110701892D01*
X160668382Y-110740000D01*
X101741248Y-110740000D01*
X101174292Y-110673900D01*
X100676788Y-110493315D01*
X100234166Y-110203118D01*
X99870177Y-109818884D01*
X99604342Y-109361216D01*
X99448108Y-108845371D01*
X99410000Y-108418382D01*
X99410000Y-107525322D01*
X100065000Y-107525322D01*
X100065000Y-108374678D01*
X100390034Y-109159380D01*
X100990620Y-109759966D01*
X101775322Y-110085000D01*
X102624678Y-110085000D01*
X103409380Y-109759966D01*
X104009966Y-109159380D01*
X104335000Y-108374678D01*
X104335000Y-107525322D01*
X104009966Y-106740620D01*
X103409380Y-106140034D01*
X102624678Y-105815000D01*
X101775322Y-105815000D01*
X100990620Y-106140034D01*
X100390034Y-106740620D01*
X100065000Y-107525322D01*
X99410000Y-107525322D01*
X99410000Y-93019930D01*
X99444926Y-92844345D01*
X99504774Y-92754775D01*
X99594345Y-92694926D01*
X99769930Y-92660000D01*
X102769926Y-92660000D01*
X102838509Y-92646358D01*
X102838513Y-92646358D01*
X103221196Y-92570238D01*
X103296160Y-92539187D01*
X103477138Y-92464224D01*
X103603075Y-92380075D01*
X141990000Y-92380075D01*
X141990001Y-107519926D01*
X142003642Y-107588504D01*
X142003642Y-107588513D01*
X142079762Y-107971196D01*
X142087678Y-107990306D01*
X142185776Y-108227138D01*
X142402549Y-108551561D01*
X142402550Y-108551562D01*
X142598438Y-108747451D01*
X142922862Y-108964223D01*
X143028877Y-109008136D01*
X143178804Y-109070238D01*
X143561486Y-109146358D01*
X143838513Y-109146358D01*
X144221196Y-109070238D01*
X144296160Y-109039187D01*
X144477138Y-108964224D01*
X144801561Y-108747451D01*
X144868556Y-108680456D01*
X144997451Y-108551562D01*
X145214223Y-108227138D01*
X145283159Y-108060711D01*
X145320238Y-107971196D01*
X145396358Y-107588514D01*
X145396358Y-107588509D01*
X145408926Y-107525322D01*
X158065000Y-107525322D01*
X158065000Y-108374678D01*
X158390034Y-109159380D01*
X158990620Y-109759966D01*
X159775322Y-110085000D01*
X160624678Y-110085000D01*
X161409380Y-109759966D01*
X162009966Y-109159380D01*
X162335000Y-108374678D01*
X162335000Y-107525322D01*
X162009966Y-106740620D01*
X161409380Y-106140034D01*
X160624678Y-105815000D01*
X159775322Y-105815000D01*
X158990620Y-106140034D01*
X158390034Y-106740620D01*
X158065000Y-107525322D01*
X145408926Y-107525322D01*
X145410000Y-107519926D01*
X145410000Y-92380074D01*
X145396358Y-92311491D01*
X145396358Y-92311486D01*
X145320238Y-91928804D01*
X145236271Y-91726091D01*
X145214223Y-91672862D01*
X144997451Y-91348438D01*
X144801562Y-91152550D01*
X144801561Y-91152549D01*
X144477138Y-90935776D01*
X144293368Y-90859657D01*
X144221196Y-90829762D01*
X143838513Y-90753642D01*
X143561486Y-90753642D01*
X143178804Y-90829762D01*
X143106632Y-90859657D01*
X142922862Y-90935777D01*
X142598438Y-91152549D01*
X142497346Y-91253642D01*
X142402549Y-91348439D01*
X142185776Y-91672862D01*
X142110813Y-91853840D01*
X142079762Y-91928804D01*
X142003642Y-92311487D01*
X142003642Y-92311492D01*
X141990000Y-92380075D01*
X103603075Y-92380075D01*
X103801561Y-92247451D01*
X103884379Y-92164633D01*
X103997451Y-92051562D01*
X104214223Y-91727138D01*
X104265072Y-91604378D01*
X104320238Y-91471196D01*
X104396358Y-91088514D01*
X104396358Y-91088509D01*
X104410000Y-91019926D01*
X104410000Y-86750000D01*
X146352560Y-86750000D01*
X146352560Y-88750000D01*
X146401843Y-88997765D01*
X146542191Y-89207809D01*
X146752235Y-89348157D01*
X147000000Y-89397440D01*
X149000000Y-89397440D01*
X149247765Y-89348157D01*
X149457809Y-89207809D01*
X149598157Y-88997765D01*
X149647440Y-88750000D01*
X149647440Y-86750000D01*
X149598157Y-86502235D01*
X149457809Y-86292191D01*
X149247765Y-86151843D01*
X149000000Y-86102560D01*
X147000000Y-86102560D01*
X146752235Y-86151843D01*
X146542191Y-86292191D01*
X146401843Y-86502235D01*
X146352560Y-86750000D01*
X104410000Y-86750000D01*
X104410000Y-83355322D01*
X106765000Y-83355322D01*
X106765000Y-84204678D01*
X107090034Y-84989380D01*
X107690620Y-85589966D01*
X108475322Y-85915000D01*
X109324678Y-85915000D01*
X110109380Y-85589966D01*
X110709966Y-84989380D01*
X111035000Y-84204678D01*
X111035000Y-83355322D01*
X110709966Y-82570620D01*
X110109380Y-81970034D01*
X109324678Y-81645000D01*
X108475322Y-81645000D01*
X107690620Y-81970034D01*
X107090034Y-82570620D01*
X106765000Y-83355322D01*
X104410000Y-83355322D01*
X104410000Y-77200000D01*
X106752560Y-77200000D01*
X106752560Y-80200000D01*
X106801843Y-80447765D01*
X106942191Y-80657809D01*
X107152235Y-80798157D01*
X107400000Y-80847440D01*
X110400000Y-80847440D01*
X110647765Y-80798157D01*
X110857809Y-80657809D01*
X110998157Y-80447765D01*
X111047440Y-80200000D01*
X111047440Y-77200000D01*
X110998157Y-76952235D01*
X110857809Y-76742191D01*
X110647765Y-76601843D01*
X110400000Y-76552560D01*
X107400000Y-76552560D01*
X107152235Y-76601843D01*
X106942191Y-76742191D01*
X106801843Y-76952235D01*
X106752560Y-77200000D01*
X104410000Y-77200000D01*
X104410000Y-75880074D01*
X104396358Y-75811491D01*
X104396358Y-75811486D01*
X104320238Y-75428804D01*
X104258136Y-75278877D01*
X104214223Y-75172862D01*
X103997451Y-74848438D01*
X103801562Y-74652550D01*
X103801561Y-74652549D01*
X103477138Y-74435776D01*
X103293368Y-74359657D01*
X103221196Y-74329762D01*
X102838513Y-74253642D01*
X102838509Y-74253642D01*
X102769926Y-74240000D01*
X99769930Y-74240000D01*
X99594345Y-74205074D01*
X99504774Y-74145225D01*
X99444926Y-74055655D01*
X99410000Y-73880070D01*
X99410000Y-70955322D01*
X100765000Y-70955322D01*
X100765000Y-71804678D01*
X101090034Y-72589380D01*
X101690620Y-73189966D01*
X102475322Y-73515000D01*
X103324678Y-73515000D01*
X104109380Y-73189966D01*
X104709966Y-72589380D01*
X105035000Y-71804678D01*
X105035000Y-70955322D01*
X104709966Y-70170620D01*
X104109380Y-69570034D01*
X103324678Y-69245000D01*
X102475322Y-69245000D01*
X101690620Y-69570034D01*
X101090034Y-70170620D01*
X100765000Y-70955322D01*
X99410000Y-70955322D01*
X99410000Y-64800000D01*
X100752560Y-64800000D01*
X100752560Y-67800000D01*
X100801843Y-68047765D01*
X100942191Y-68257809D01*
X101152235Y-68398157D01*
X101400000Y-68447440D01*
X104400000Y-68447440D01*
X104647765Y-68398157D01*
X104857809Y-68257809D01*
X104998157Y-68047765D01*
X105047440Y-67800000D01*
X105047440Y-64800000D01*
X104998157Y-64552235D01*
X104857809Y-64342191D01*
X104647765Y-64201843D01*
X104400000Y-64152560D01*
X101400000Y-64152560D01*
X101152235Y-64201843D01*
X100942191Y-64342191D01*
X100801843Y-64552235D01*
X100752560Y-64800000D01*
X99410000Y-64800000D01*
X99410000Y-58525322D01*
X100065000Y-58525322D01*
X100065000Y-59374678D01*
X100390034Y-60159380D01*
X100990620Y-60759966D01*
X101775322Y-61085000D01*
X102624678Y-61085000D01*
X103409380Y-60759966D01*
X104009966Y-60159380D01*
X104335000Y-59374678D01*
X104335000Y-58525322D01*
X104009966Y-57740620D01*
X103929346Y-57660000D01*
X105585908Y-57660000D01*
X105701161Y-58239418D01*
X106029375Y-58730625D01*
X106047619Y-58742816D01*
X106002235Y-58751843D01*
X105792191Y-58892191D01*
X105651843Y-59102235D01*
X105602560Y-59350000D01*
X105602560Y-61050000D01*
X105651843Y-61297765D01*
X105792191Y-61507809D01*
X106002235Y-61648157D01*
X106250000Y-61697440D01*
X107704999Y-61697440D01*
X107705000Y-72890147D01*
X107690111Y-72964999D01*
X107705000Y-73039851D01*
X107749096Y-73261536D01*
X107917071Y-73512928D01*
X107980527Y-73555328D01*
X111490000Y-77064802D01*
X111490001Y-80175148D01*
X111475112Y-80250000D01*
X111534097Y-80546537D01*
X111647265Y-80715904D01*
X111702072Y-80797929D01*
X111765528Y-80840329D01*
X114524346Y-83599148D01*
X114622569Y-83836280D01*
X114913720Y-84127431D01*
X115294126Y-84285000D01*
X115705874Y-84285000D01*
X116086280Y-84127431D01*
X116377431Y-83836280D01*
X116535000Y-83455874D01*
X116535000Y-83044126D01*
X116377431Y-82663720D01*
X116086280Y-82372569D01*
X115705874Y-82215000D01*
X115294126Y-82215000D01*
X115291068Y-82216267D01*
X113074801Y-80000000D01*
X123535908Y-80000000D01*
X123651161Y-80579418D01*
X123979375Y-81070625D01*
X124470582Y-81398839D01*
X124903744Y-81485000D01*
X125196256Y-81485000D01*
X125629418Y-81398839D01*
X126120625Y-81070625D01*
X126320000Y-80772239D01*
X126519375Y-81070625D01*
X127010582Y-81398839D01*
X127443744Y-81485000D01*
X127736256Y-81485000D01*
X128169418Y-81398839D01*
X128660625Y-81070625D01*
X128860000Y-80772239D01*
X129059375Y-81070625D01*
X129550582Y-81398839D01*
X129983744Y-81485000D01*
X130276256Y-81485000D01*
X130709418Y-81398839D01*
X131200625Y-81070625D01*
X131528839Y-80579418D01*
X131644092Y-80000000D01*
X131528839Y-79420582D01*
X131200625Y-78929375D01*
X130709418Y-78601161D01*
X130276256Y-78515000D01*
X129983744Y-78515000D01*
X129550582Y-78601161D01*
X129059375Y-78929375D01*
X128860000Y-79227761D01*
X128660625Y-78929375D01*
X128169418Y-78601161D01*
X127736256Y-78515000D01*
X127500001Y-78515000D01*
X127500001Y-69229223D01*
X127544126Y-69247500D01*
X127710199Y-69247500D01*
X130711355Y-72248656D01*
X130391333Y-72185000D01*
X130108667Y-72185000D01*
X129690091Y-72268260D01*
X129215423Y-72585423D01*
X128898260Y-73060091D01*
X128786887Y-73620000D01*
X128898260Y-74179909D01*
X129215423Y-74654577D01*
X129690091Y-74971740D01*
X129909763Y-75015436D01*
X128710199Y-76215000D01*
X128544126Y-76215000D01*
X128163720Y-76372569D01*
X127872569Y-76663720D01*
X127715000Y-77044126D01*
X127715000Y-77455874D01*
X127872569Y-77836280D01*
X128163720Y-78127431D01*
X128544126Y-78285000D01*
X128955874Y-78285000D01*
X129336280Y-78127431D01*
X129627431Y-77836280D01*
X129785000Y-77455874D01*
X129785000Y-77289801D01*
X132041068Y-75033733D01*
X132044126Y-75035000D01*
X132455874Y-75035000D01*
X132836280Y-74877431D01*
X133088205Y-74625506D01*
X134450001Y-75987303D01*
X134450000Y-78721822D01*
X134139375Y-78929375D01*
X133811161Y-79420582D01*
X133695908Y-80000000D01*
X133811161Y-80579418D01*
X134139375Y-81070625D01*
X134630582Y-81398839D01*
X135063744Y-81485000D01*
X135356256Y-81485000D01*
X135789418Y-81398839D01*
X136280625Y-81070625D01*
X136292816Y-81052381D01*
X136301843Y-81097765D01*
X136442191Y-81307809D01*
X136652235Y-81448157D01*
X136900000Y-81497440D01*
X138600000Y-81497440D01*
X138847765Y-81448157D01*
X139057809Y-81307809D01*
X139198157Y-81097765D01*
X139247440Y-80850000D01*
X139247440Y-79824778D01*
X146365000Y-79824778D01*
X146365000Y-80475222D01*
X146613914Y-81076153D01*
X147073847Y-81536086D01*
X147674778Y-81785000D01*
X148325222Y-81785000D01*
X148926153Y-81536086D01*
X149386086Y-81076153D01*
X149635000Y-80475222D01*
X149635000Y-79824778D01*
X149386086Y-79223847D01*
X148926153Y-78763914D01*
X148325222Y-78515000D01*
X147674778Y-78515000D01*
X147073847Y-78763914D01*
X146613914Y-79223847D01*
X146365000Y-79824778D01*
X139247440Y-79824778D01*
X139247440Y-79150000D01*
X139198157Y-78902235D01*
X139057809Y-78692191D01*
X138847765Y-78551843D01*
X138600000Y-78502560D01*
X136900000Y-78502560D01*
X136652235Y-78551843D01*
X136442191Y-78692191D01*
X136301843Y-78902235D01*
X136292816Y-78947619D01*
X136280625Y-78929375D01*
X135970000Y-78721822D01*
X135970000Y-75747346D01*
X135984888Y-75672499D01*
X135970000Y-75597652D01*
X135970000Y-75597648D01*
X135925904Y-75375963D01*
X135757929Y-75124571D01*
X135694473Y-75082171D01*
X135474240Y-74861938D01*
X135784577Y-74654577D01*
X136101740Y-74179909D01*
X136213113Y-73620000D01*
X136196086Y-73534398D01*
X140465000Y-73534398D01*
X140465000Y-74045602D01*
X140660629Y-74517894D01*
X141022106Y-74879371D01*
X141494398Y-75075000D01*
X142005602Y-75075000D01*
X142477894Y-74879371D01*
X142839371Y-74517894D01*
X143035000Y-74045602D01*
X143035000Y-73805000D01*
X143275602Y-73805000D01*
X143747894Y-73609371D01*
X143822867Y-73534398D01*
X147465000Y-73534398D01*
X147465000Y-74045602D01*
X147660629Y-74517894D01*
X148022106Y-74879371D01*
X148494398Y-75075000D01*
X149005602Y-75075000D01*
X149477894Y-74879371D01*
X149839371Y-74517894D01*
X150035000Y-74045602D01*
X150035000Y-73805000D01*
X150275602Y-73805000D01*
X150747894Y-73609371D01*
X151109371Y-73247894D01*
X151305000Y-72775602D01*
X151305000Y-72264398D01*
X151109371Y-71792106D01*
X150747894Y-71430629D01*
X150275602Y-71235000D01*
X149764398Y-71235000D01*
X149292106Y-71430629D01*
X148930629Y-71792106D01*
X148735000Y-72264398D01*
X148735000Y-72505000D01*
X148494398Y-72505000D01*
X148022106Y-72700629D01*
X147660629Y-73062106D01*
X147465000Y-73534398D01*
X143822867Y-73534398D01*
X144109371Y-73247894D01*
X144305000Y-72775602D01*
X144305000Y-72264398D01*
X144109371Y-71792106D01*
X143747894Y-71430629D01*
X143275602Y-71235000D01*
X142764398Y-71235000D01*
X142292106Y-71430629D01*
X141930629Y-71792106D01*
X141735000Y-72264398D01*
X141735000Y-72505000D01*
X141494398Y-72505000D01*
X141022106Y-72700629D01*
X140660629Y-73062106D01*
X140465000Y-73534398D01*
X136196086Y-73534398D01*
X136101740Y-73060091D01*
X135784577Y-72585423D01*
X135309909Y-72268260D01*
X134891333Y-72185000D01*
X134608667Y-72185000D01*
X134190091Y-72268260D01*
X133715423Y-72585423D01*
X133508062Y-72895760D01*
X133413006Y-72800705D01*
X133627431Y-72586280D01*
X133785000Y-72205874D01*
X133785000Y-72039801D01*
X135234473Y-70590329D01*
X135297929Y-70547929D01*
X135465904Y-70296537D01*
X135510000Y-70074852D01*
X135510000Y-70074848D01*
X135524888Y-70000001D01*
X135510000Y-69925154D01*
X135510000Y-67447440D01*
X135550000Y-67447440D01*
X135797765Y-67398157D01*
X136007809Y-67257809D01*
X136148157Y-67047765D01*
X136197440Y-66800000D01*
X136197440Y-66294126D01*
X142215000Y-66294126D01*
X142215000Y-66705874D01*
X142372569Y-67086280D01*
X142663720Y-67377431D01*
X143044126Y-67535000D01*
X143455874Y-67535000D01*
X143836280Y-67377431D01*
X143953711Y-67260000D01*
X148685199Y-67260000D01*
X149215000Y-67789802D01*
X149215000Y-67955874D01*
X149372569Y-68336280D01*
X149663720Y-68627431D01*
X150044126Y-68785000D01*
X150455874Y-68785000D01*
X150836280Y-68627431D01*
X151127431Y-68336280D01*
X151285000Y-67955874D01*
X151285000Y-67544126D01*
X151127431Y-67163720D01*
X150836280Y-66872569D01*
X150455874Y-66715000D01*
X150289802Y-66715000D01*
X149590331Y-66015530D01*
X149547929Y-65952071D01*
X149296537Y-65784096D01*
X149074852Y-65740000D01*
X149074847Y-65740000D01*
X149000000Y-65725112D01*
X148925153Y-65740000D01*
X143953711Y-65740000D01*
X143836280Y-65622569D01*
X143455874Y-65465000D01*
X143044126Y-65465000D01*
X142663720Y-65622569D01*
X142372569Y-65913720D01*
X142215000Y-66294126D01*
X136197440Y-66294126D01*
X136197440Y-65200000D01*
X136148157Y-64952235D01*
X136007809Y-64742191D01*
X135797765Y-64601843D01*
X135550000Y-64552560D01*
X133950000Y-64552560D01*
X133702235Y-64601843D01*
X133492191Y-64742191D01*
X133351843Y-64952235D01*
X133302560Y-65200000D01*
X133302560Y-66800000D01*
X133351843Y-67047765D01*
X133492191Y-67257809D01*
X133702235Y-67398157D01*
X133950000Y-67447440D01*
X133990001Y-67447440D01*
X133990000Y-69685198D01*
X132710199Y-70965000D01*
X132544126Y-70965000D01*
X132163720Y-71122569D01*
X131949295Y-71336994D01*
X128785000Y-68172699D01*
X128785000Y-68006626D01*
X128627431Y-67626220D01*
X128482754Y-67481543D01*
X128877754Y-67086544D01*
X128992191Y-67257809D01*
X129202235Y-67398157D01*
X129450000Y-67447440D01*
X131050000Y-67447440D01*
X131297765Y-67398157D01*
X131507809Y-67257809D01*
X131648157Y-67047765D01*
X131697440Y-66800000D01*
X131697440Y-65200000D01*
X131648157Y-64952235D01*
X131507809Y-64742191D01*
X131297765Y-64601843D01*
X131050000Y-64552560D01*
X129450000Y-64552560D01*
X129202235Y-64601843D01*
X128992191Y-64742191D01*
X128851843Y-64952235D01*
X128802560Y-65200000D01*
X128802560Y-65242404D01*
X128592959Y-65284096D01*
X128341567Y-65452071D01*
X128299167Y-65515527D01*
X126255529Y-67559166D01*
X126192073Y-67601566D01*
X126024098Y-67852958D01*
X126011566Y-67915963D01*
X125965113Y-68149495D01*
X125980002Y-68224347D01*
X125980001Y-78835413D01*
X125629418Y-78601161D01*
X125196256Y-78515000D01*
X124903744Y-78515000D01*
X124470582Y-78601161D01*
X123979375Y-78929375D01*
X123651161Y-79420582D01*
X123535908Y-80000000D01*
X113074801Y-80000000D01*
X113010000Y-79935199D01*
X113010000Y-77167311D01*
X113294126Y-77285000D01*
X113460198Y-77285000D01*
X113659671Y-77484473D01*
X113702071Y-77547929D01*
X113953463Y-77715904D01*
X114175148Y-77760000D01*
X114175152Y-77760000D01*
X114249999Y-77774888D01*
X114324846Y-77760000D01*
X118296289Y-77760000D01*
X118413720Y-77877431D01*
X118794126Y-78035000D01*
X119205874Y-78035000D01*
X119586280Y-77877431D01*
X119877431Y-77586280D01*
X120035000Y-77205874D01*
X120035000Y-76794126D01*
X119877431Y-76413720D01*
X119586280Y-76122569D01*
X119205874Y-75965000D01*
X118794126Y-75965000D01*
X118413720Y-76122569D01*
X118296289Y-76240000D01*
X114564802Y-76240000D01*
X114535000Y-76210198D01*
X114535000Y-76044126D01*
X114377431Y-75663720D01*
X114086280Y-75372569D01*
X113705874Y-75215000D01*
X113294126Y-75215000D01*
X112913720Y-75372569D01*
X112622569Y-75663720D01*
X112510084Y-75935282D01*
X109224999Y-72650198D01*
X109224999Y-69044126D01*
X113465000Y-69044126D01*
X113465000Y-69455874D01*
X113622569Y-69836280D01*
X113740000Y-69953711D01*
X113740001Y-73925148D01*
X113725112Y-74000000D01*
X113727761Y-74013318D01*
X113715000Y-74044126D01*
X113715000Y-74455874D01*
X113872569Y-74836280D01*
X114163720Y-75127431D01*
X114544126Y-75285000D01*
X114955874Y-75285000D01*
X115336280Y-75127431D01*
X115627431Y-74836280D01*
X115785000Y-74455874D01*
X115785000Y-74044126D01*
X115627431Y-73663720D01*
X115336280Y-73372569D01*
X115260000Y-73340973D01*
X115260000Y-69953711D01*
X115377431Y-69836280D01*
X115535000Y-69455874D01*
X115535000Y-69044126D01*
X115377431Y-68663720D01*
X115086280Y-68372569D01*
X114705874Y-68215000D01*
X114294126Y-68215000D01*
X113913720Y-68372569D01*
X113622569Y-68663720D01*
X113465000Y-69044126D01*
X109224999Y-69044126D01*
X109224999Y-61631543D01*
X109493744Y-61685000D01*
X109786256Y-61685000D01*
X110219418Y-61598839D01*
X110710625Y-61270625D01*
X110910000Y-60972239D01*
X111109375Y-61270625D01*
X111600582Y-61598839D01*
X112033744Y-61685000D01*
X112326256Y-61685000D01*
X112759418Y-61598839D01*
X113250625Y-61270625D01*
X113450000Y-60972239D01*
X113649375Y-61270625D01*
X114140582Y-61598839D01*
X114573744Y-61685000D01*
X114866256Y-61685000D01*
X115299418Y-61598839D01*
X115790625Y-61270625D01*
X116118839Y-60779418D01*
X116234092Y-60200000D01*
X116118839Y-59620582D01*
X115790625Y-59129375D01*
X115492239Y-58930000D01*
X115790625Y-58730625D01*
X115990000Y-58432239D01*
X116189375Y-58730625D01*
X116680582Y-59058839D01*
X117113744Y-59145000D01*
X117406256Y-59145000D01*
X117839418Y-59058839D01*
X118330625Y-58730625D01*
X118530000Y-58432239D01*
X118729375Y-58730625D01*
X119027761Y-58930000D01*
X118729375Y-59129375D01*
X118401161Y-59620582D01*
X118285908Y-60200000D01*
X118401161Y-60779418D01*
X118729375Y-61270625D01*
X119220582Y-61598839D01*
X119653744Y-61685000D01*
X119946256Y-61685000D01*
X120379418Y-61598839D01*
X120870625Y-61270625D01*
X121070000Y-60972239D01*
X121269375Y-61270625D01*
X121760582Y-61598839D01*
X122193744Y-61685000D01*
X122486256Y-61685000D01*
X122919418Y-61598839D01*
X123410625Y-61270625D01*
X123610000Y-60972239D01*
X123809375Y-61270625D01*
X124300582Y-61598839D01*
X124733744Y-61685000D01*
X125026256Y-61685000D01*
X125459418Y-61598839D01*
X125950625Y-61270625D01*
X126150000Y-60972239D01*
X126349375Y-61270625D01*
X126660000Y-61478178D01*
X126660001Y-62765196D01*
X116960199Y-72465000D01*
X116794126Y-72465000D01*
X116413720Y-72622569D01*
X116122569Y-72913720D01*
X115965000Y-73294126D01*
X115965000Y-73705874D01*
X116122569Y-74086280D01*
X116413720Y-74377431D01*
X116794126Y-74535000D01*
X117205874Y-74535000D01*
X117586280Y-74377431D01*
X117877431Y-74086280D01*
X118035000Y-73705874D01*
X118035000Y-73539801D01*
X127904476Y-63670327D01*
X127967929Y-63627929D01*
X128010327Y-63564476D01*
X128010329Y-63564474D01*
X128135903Y-63376538D01*
X128135904Y-63376537D01*
X128180000Y-63154852D01*
X128180000Y-63154848D01*
X128194888Y-63080001D01*
X128180000Y-63005154D01*
X128180000Y-61478178D01*
X128490625Y-61270625D01*
X128690000Y-60972239D01*
X128889375Y-61270625D01*
X129380582Y-61598839D01*
X129813744Y-61685000D01*
X130106256Y-61685000D01*
X130539418Y-61598839D01*
X131030625Y-61270625D01*
X131230000Y-60972239D01*
X131429375Y-61270625D01*
X131920582Y-61598839D01*
X132353744Y-61685000D01*
X132646256Y-61685000D01*
X133079418Y-61598839D01*
X133570625Y-61270625D01*
X133770000Y-60972239D01*
X133969375Y-61270625D01*
X134460582Y-61598839D01*
X134893744Y-61685000D01*
X135186256Y-61685000D01*
X135619418Y-61598839D01*
X136110625Y-61270625D01*
X136438839Y-60779418D01*
X136554092Y-60200000D01*
X136438839Y-59620582D01*
X136110625Y-59129375D01*
X135812239Y-58930000D01*
X136110625Y-58730625D01*
X136310000Y-58432239D01*
X136509375Y-58730625D01*
X137000582Y-59058839D01*
X137433744Y-59145000D01*
X137726256Y-59145000D01*
X138159418Y-59058839D01*
X138650625Y-58730625D01*
X138850000Y-58432239D01*
X139049375Y-58730625D01*
X139347761Y-58930000D01*
X139049375Y-59129375D01*
X138721161Y-59620582D01*
X138605908Y-60200000D01*
X138721161Y-60779418D01*
X139049375Y-61270625D01*
X139540582Y-61598839D01*
X139973744Y-61685000D01*
X140266256Y-61685000D01*
X140699418Y-61598839D01*
X141190625Y-61270625D01*
X141390000Y-60972239D01*
X141589375Y-61270625D01*
X142080582Y-61598839D01*
X142513744Y-61685000D01*
X142806256Y-61685000D01*
X143026408Y-61641209D01*
X144869671Y-63484473D01*
X144912071Y-63547929D01*
X145163463Y-63715904D01*
X145385148Y-63760000D01*
X145385153Y-63760000D01*
X145460000Y-63774888D01*
X145534847Y-63760000D01*
X149296289Y-63760000D01*
X149413720Y-63877431D01*
X149794126Y-64035000D01*
X150205874Y-64035000D01*
X150586280Y-63877431D01*
X150877431Y-63586280D01*
X151035000Y-63205874D01*
X151035000Y-62794126D01*
X150877431Y-62413720D01*
X150586280Y-62122569D01*
X150205874Y-61965000D01*
X150035000Y-61965000D01*
X150035000Y-61794126D01*
X149976874Y-61653797D01*
X150133744Y-61685000D01*
X150426256Y-61685000D01*
X150859418Y-61598839D01*
X151350625Y-61270625D01*
X151550000Y-60972239D01*
X151749375Y-61270625D01*
X152240582Y-61598839D01*
X152673744Y-61685000D01*
X152966256Y-61685000D01*
X153399418Y-61598839D01*
X153890625Y-61270625D01*
X154218839Y-60779418D01*
X154334092Y-60200000D01*
X154218839Y-59620582D01*
X153890625Y-59129375D01*
X153592239Y-58930000D01*
X153890625Y-58730625D01*
X154090000Y-58432239D01*
X154289375Y-58730625D01*
X154780582Y-59058839D01*
X155213744Y-59145000D01*
X155506256Y-59145000D01*
X155939418Y-59058839D01*
X156430625Y-58730625D01*
X156567804Y-58525322D01*
X158065000Y-58525322D01*
X158065000Y-59374678D01*
X158390034Y-60159380D01*
X158990620Y-60759966D01*
X159775322Y-61085000D01*
X160624678Y-61085000D01*
X161409380Y-60759966D01*
X162009966Y-60159380D01*
X162335000Y-59374678D01*
X162335000Y-58525322D01*
X162009966Y-57740620D01*
X161409380Y-57140034D01*
X160624678Y-56815000D01*
X159775322Y-56815000D01*
X158990620Y-57140034D01*
X158390034Y-57740620D01*
X158065000Y-58525322D01*
X156567804Y-58525322D01*
X156758839Y-58239418D01*
X156874092Y-57660000D01*
X156758839Y-57080582D01*
X156430625Y-56589375D01*
X155939418Y-56261161D01*
X155506256Y-56175000D01*
X155213744Y-56175000D01*
X154780582Y-56261161D01*
X154289375Y-56589375D01*
X154090000Y-56887761D01*
X153890625Y-56589375D01*
X153399418Y-56261161D01*
X152966256Y-56175000D01*
X152673744Y-56175000D01*
X152240582Y-56261161D01*
X151749375Y-56589375D01*
X151550000Y-56887761D01*
X151350625Y-56589375D01*
X150859418Y-56261161D01*
X150426256Y-56175000D01*
X150133744Y-56175000D01*
X149700582Y-56261161D01*
X149209375Y-56589375D01*
X148881161Y-57080582D01*
X148765908Y-57660000D01*
X148881161Y-58239418D01*
X149209375Y-58730625D01*
X149507761Y-58930000D01*
X149209375Y-59129375D01*
X149010000Y-59427761D01*
X148810625Y-59129375D01*
X148319418Y-58801161D01*
X147886256Y-58715000D01*
X147593744Y-58715000D01*
X147160582Y-58801161D01*
X146669375Y-59129375D01*
X146470000Y-59427761D01*
X146270625Y-59129375D01*
X145972239Y-58930000D01*
X146270625Y-58730625D01*
X146598839Y-58239418D01*
X146714092Y-57660000D01*
X146598839Y-57080582D01*
X146270625Y-56589375D01*
X145779418Y-56261161D01*
X145346256Y-56175000D01*
X145053744Y-56175000D01*
X144620582Y-56261161D01*
X144129375Y-56589375D01*
X143801161Y-57080582D01*
X143685908Y-57660000D01*
X143801161Y-58239418D01*
X144129375Y-58730625D01*
X144427761Y-58930000D01*
X144129375Y-59129375D01*
X143930000Y-59427761D01*
X143730625Y-59129375D01*
X143239418Y-58801161D01*
X142806256Y-58715000D01*
X142513744Y-58715000D01*
X142080582Y-58801161D01*
X141589375Y-59129375D01*
X141390000Y-59427761D01*
X141190625Y-59129375D01*
X140892239Y-58930000D01*
X141190625Y-58730625D01*
X141518839Y-58239418D01*
X141634092Y-57660000D01*
X141518839Y-57080582D01*
X141190625Y-56589375D01*
X140699418Y-56261161D01*
X140266256Y-56175000D01*
X139973744Y-56175000D01*
X139540582Y-56261161D01*
X139049375Y-56589375D01*
X138850000Y-56887761D01*
X138650625Y-56589375D01*
X138159418Y-56261161D01*
X137726256Y-56175000D01*
X137433744Y-56175000D01*
X137000582Y-56261161D01*
X136509375Y-56589375D01*
X136310000Y-56887761D01*
X136110625Y-56589375D01*
X135619418Y-56261161D01*
X135186256Y-56175000D01*
X134893744Y-56175000D01*
X134460582Y-56261161D01*
X133969375Y-56589375D01*
X133770000Y-56887761D01*
X133570625Y-56589375D01*
X133079418Y-56261161D01*
X132646256Y-56175000D01*
X132353744Y-56175000D01*
X131920582Y-56261161D01*
X131429375Y-56589375D01*
X131101161Y-57080582D01*
X130985908Y-57660000D01*
X131101161Y-58239418D01*
X131429375Y-58730625D01*
X131727761Y-58930000D01*
X131429375Y-59129375D01*
X131230000Y-59427761D01*
X131030625Y-59129375D01*
X130539418Y-58801161D01*
X130106256Y-58715000D01*
X129813744Y-58715000D01*
X129380582Y-58801161D01*
X128889375Y-59129375D01*
X128690000Y-59427761D01*
X128490625Y-59129375D01*
X128192239Y-58930000D01*
X128490625Y-58730625D01*
X128818839Y-58239418D01*
X128934092Y-57660000D01*
X128818839Y-57080582D01*
X128490625Y-56589375D01*
X127999418Y-56261161D01*
X127566256Y-56175000D01*
X127273744Y-56175000D01*
X126840582Y-56261161D01*
X126349375Y-56589375D01*
X126150000Y-56887761D01*
X125950625Y-56589375D01*
X125459418Y-56261161D01*
X125026256Y-56175000D01*
X124733744Y-56175000D01*
X124300582Y-56261161D01*
X123809375Y-56589375D01*
X123481161Y-57080582D01*
X123365908Y-57660000D01*
X123481161Y-58239418D01*
X123809375Y-58730625D01*
X124107761Y-58930000D01*
X123809375Y-59129375D01*
X123610000Y-59427761D01*
X123410625Y-59129375D01*
X122919418Y-58801161D01*
X122486256Y-58715000D01*
X122193744Y-58715000D01*
X121760582Y-58801161D01*
X121269375Y-59129375D01*
X121070000Y-59427761D01*
X120870625Y-59129375D01*
X120572239Y-58930000D01*
X120870625Y-58730625D01*
X121198839Y-58239418D01*
X121314092Y-57660000D01*
X121198839Y-57080582D01*
X120870625Y-56589375D01*
X120379418Y-56261161D01*
X119946256Y-56175000D01*
X119653744Y-56175000D01*
X119220582Y-56261161D01*
X118729375Y-56589375D01*
X118530000Y-56887761D01*
X118330625Y-56589375D01*
X117839418Y-56261161D01*
X117406256Y-56175000D01*
X117113744Y-56175000D01*
X116680582Y-56261161D01*
X116189375Y-56589375D01*
X115990000Y-56887761D01*
X115790625Y-56589375D01*
X115299418Y-56261161D01*
X114866256Y-56175000D01*
X114573744Y-56175000D01*
X114140582Y-56261161D01*
X113649375Y-56589375D01*
X113321161Y-57080582D01*
X113205908Y-57660000D01*
X113321161Y-58239418D01*
X113649375Y-58730625D01*
X113947761Y-58930000D01*
X113649375Y-59129375D01*
X113450000Y-59427761D01*
X113250625Y-59129375D01*
X112759418Y-58801161D01*
X112326256Y-58715000D01*
X112033744Y-58715000D01*
X111600582Y-58801161D01*
X111109375Y-59129375D01*
X110910000Y-59427761D01*
X110710625Y-59129375D01*
X110412239Y-58930000D01*
X110710625Y-58730625D01*
X111038839Y-58239418D01*
X111154092Y-57660000D01*
X111038839Y-57080582D01*
X110710625Y-56589375D01*
X110219418Y-56261161D01*
X109786256Y-56175000D01*
X109493744Y-56175000D01*
X109060582Y-56261161D01*
X108569375Y-56589375D01*
X108370000Y-56887761D01*
X108170625Y-56589375D01*
X107679418Y-56261161D01*
X107246256Y-56175000D01*
X106953744Y-56175000D01*
X106520582Y-56261161D01*
X106029375Y-56589375D01*
X105701161Y-57080582D01*
X105585908Y-57660000D01*
X103929346Y-57660000D01*
X103409380Y-57140034D01*
X102624678Y-56815000D01*
X101775322Y-56815000D01*
X100990620Y-57140034D01*
X100390034Y-57740620D01*
X100065000Y-58525322D01*
X99410000Y-58525322D01*
X99410000Y-57991247D01*
X99476100Y-57424292D01*
X99656685Y-56926788D01*
X99946881Y-56484165D01*
X100331116Y-56120177D01*
X100788784Y-55854342D01*
X101304629Y-55698108D01*
X101731618Y-55660000D01*
X160658753Y-55660000D01*
X161225708Y-55726100D01*
G04 #@! TD*
M02*
