M48
;DRILL file {KiCad (5.0.0)} date 03/22/19 21:44:53
;FORMAT={-:-/ absolute / metric / decimal}
FMAT,2
METRIC,TZ
T1C0.400
T2C0.750
T3C0.800
T4C1.000
T5C1.520
T6C3.000
%
G90
G05
M71
T1
X99.75Y-62.75
X104.5Y-62.75
X105.75Y-87.5
X109.5Y-69.5
X109.5Y-71.
X109.75Y-64.5
X111.5Y-87.5
X111.75Y-62.75
X113.5Y-76.25
X113.75Y-67.25
X114.5Y-69.25
X114.75Y-74.25
X115.5Y-83.25
X117.Y-65.25
X117.Y-73.5
X117.Y-81.75
X117.25Y-62.75
X117.5Y-87.5
X118.25Y-78.5
X119.Y-77.
X119.25Y-73.25
X120.Y-63.25
X121.Y-75.5
X121.25Y-82.
X122.Y-65.75
X122.25Y-78.75
X123.25Y-87.5
X124.Y-68.75
X124.Y-72.75
X124.25Y-63.25
X125.25Y-77.
X126.5Y-65.75
X127.75Y-68.212
X127.75Y-72.
X128.5Y-87.5
X128.75Y-77.25
X130.Y-62.75
X132.25Y-63.
X132.25Y-74.
X132.5Y-67.75
X132.5Y-76.25
X132.75Y-72.
X134.5Y-87.5
X135.Y-62.5
X137.5Y-68.
X137.5Y-72.5
X140.Y-77.
X140.Y-87.5
X140.25Y-62.5
X141.5Y-66.
X143.25Y-66.5
X144.5Y-77.75
X144.75Y-87.5
X145.75Y-74.25
X149.Y-62.
X149.Y-91.
X150.Y-63.
X150.25Y-67.75
X153.5Y-86.75
X154.5Y-78.25
X154.75Y-63.
X154.75Y-80.5
X157.5Y-78.25
X158.75Y-84.
X159.75Y-63.
X159.75Y-66.5
X160.5Y-78.
X162.25Y-79.75
X162.5Y-72.
T2
X148.75Y-71.25
X148.75Y-73.79
X150.02Y-72.52
X141.75Y-71.25
X141.75Y-73.79
X143.02Y-72.52
T3
X134.75Y-66.
X134.75Y-73.62
X130.25Y-66.
X130.25Y-73.62
T4
X148.Y-80.15
X148.Y-87.75
X107.1Y-57.66
X107.1Y-60.2
X109.64Y-57.66
X109.64Y-60.2
X112.18Y-57.66
X112.18Y-60.2
X114.72Y-57.66
X114.72Y-60.2
X117.26Y-57.66
X117.26Y-60.2
X119.8Y-57.66
X119.8Y-60.2
X122.34Y-57.66
X122.34Y-60.2
X124.88Y-57.66
X124.88Y-60.2
X127.42Y-57.66
X127.42Y-60.2
X129.96Y-57.66
X129.96Y-60.2
X132.5Y-57.66
X132.5Y-60.2
X135.04Y-57.66
X135.04Y-60.2
X137.58Y-57.66
X137.58Y-60.2
X140.12Y-57.66
X140.12Y-60.2
X142.66Y-57.66
X142.66Y-60.2
X145.2Y-57.66
X145.2Y-60.2
X147.74Y-57.66
X147.74Y-60.2
X150.28Y-57.66
X150.28Y-60.2
X152.82Y-57.66
X152.82Y-60.2
X155.36Y-57.66
X155.36Y-60.2
X125.05Y-80.
X127.59Y-80.
X130.13Y-80.
X132.67Y-80.
X135.21Y-80.
X137.75Y-80.
T5
X108.9Y-78.7
X108.9Y-83.78
X102.9Y-66.3
X102.9Y-71.38
T6
X160.2Y-107.95
X160.2Y-58.95
X102.2Y-58.95
X102.2Y-107.95
T0
M30
