G04 #@! TF.GenerationSoftware,KiCad,Pcbnew,(5.0.0)*
G04 #@! TF.CreationDate,2019-03-22T21:44:55+01:00*
G04 #@! TF.ProjectId,rpismdoven,727069736D646F76656E2E6B69636164,rev?*
G04 #@! TF.SameCoordinates,Original*
G04 #@! TF.FileFunction,Soldermask,Bot*
G04 #@! TF.FilePolarity,Negative*
%FSLAX46Y46*%
G04 Gerber Fmt 4.6, Leading zero omitted, Abs format (unit mm)*
G04 Created by KiCad (PCBNEW (5.0.0)) date 03/22/19 21:44:55*
%MOMM*%
%LPD*%
G01*
G04 APERTURE LIST*
%ADD10C,3.400000*%
%ADD11R,3.400000X3.400000*%
%ADD12R,2.400000X2.400000*%
%ADD13C,2.400000*%
%ADD14R,1.700000X1.700000*%
%ADD15C,1.700000*%
%ADD16R,2.100000X2.100000*%
%ADD17O,2.100000X2.100000*%
%ADD18O,2.000000X2.000000*%
%ADD19R,2.000000X2.000000*%
G04 APERTURE END LIST*
D10*
G04 #@! TO.C,REF\002A\002A*
X102200000Y-58950000D03*
G04 #@! TD*
G04 #@! TO.C,REF\002A\002A*
X160200000Y-58950000D03*
G04 #@! TD*
G04 #@! TO.C,REF\002A\002A*
X160200000Y-107950000D03*
G04 #@! TD*
G04 #@! TO.C,J3*
X108900000Y-83780000D03*
D11*
X108900000Y-78700000D03*
G04 #@! TD*
D12*
G04 #@! TO.C,BZ1*
X148000000Y-87750000D03*
D13*
X148000000Y-80150000D03*
G04 #@! TD*
D14*
G04 #@! TO.C,Q2*
X141750000Y-71250000D03*
D15*
X141750000Y-73790000D03*
X143020000Y-72520000D03*
G04 #@! TD*
G04 #@! TO.C,Q1*
X150020000Y-72520000D03*
X148750000Y-73790000D03*
D14*
X148750000Y-71250000D03*
G04 #@! TD*
D16*
G04 #@! TO.C,J4*
X137750000Y-80000000D03*
D17*
X135210000Y-80000000D03*
X132670000Y-80000000D03*
X130130000Y-80000000D03*
X127590000Y-80000000D03*
X125050000Y-80000000D03*
G04 #@! TD*
D16*
G04 #@! TO.C,J1*
X107100000Y-60200000D03*
D17*
X107100000Y-57660000D03*
X109640000Y-60200000D03*
X109640000Y-57660000D03*
X112180000Y-60200000D03*
X112180000Y-57660000D03*
X114720000Y-60200000D03*
X114720000Y-57660000D03*
X117260000Y-60200000D03*
X117260000Y-57660000D03*
X119800000Y-60200000D03*
X119800000Y-57660000D03*
X122340000Y-60200000D03*
X122340000Y-57660000D03*
X124880000Y-60200000D03*
X124880000Y-57660000D03*
X127420000Y-60200000D03*
X127420000Y-57660000D03*
X129960000Y-60200000D03*
X129960000Y-57660000D03*
X132500000Y-60200000D03*
X132500000Y-57660000D03*
X135040000Y-60200000D03*
X135040000Y-57660000D03*
X137580000Y-60200000D03*
X137580000Y-57660000D03*
X140120000Y-60200000D03*
X140120000Y-57660000D03*
X142660000Y-60200000D03*
X142660000Y-57660000D03*
X145200000Y-60200000D03*
X145200000Y-57660000D03*
X147740000Y-60200000D03*
X147740000Y-57660000D03*
X150280000Y-60200000D03*
X150280000Y-57660000D03*
X152820000Y-60200000D03*
X152820000Y-57660000D03*
X155360000Y-60200000D03*
X155360000Y-57660000D03*
G04 #@! TD*
D18*
G04 #@! TO.C,D2*
X130250000Y-73620000D03*
D19*
X130250000Y-66000000D03*
G04 #@! TD*
G04 #@! TO.C,D1*
X134750000Y-66000000D03*
D18*
X134750000Y-73620000D03*
G04 #@! TD*
D11*
G04 #@! TO.C,J2*
X102900000Y-66300000D03*
D10*
X102900000Y-71380000D03*
G04 #@! TD*
G04 #@! TO.C,REF\002A\002A*
X102200000Y-107950000D03*
G04 #@! TD*
M02*
