G04 #@! TF.GenerationSoftware,KiCad,Pcbnew,(5.0.0)*
G04 #@! TF.CreationDate,2019-03-22T21:44:54+01:00*
G04 #@! TF.ProjectId,rpismdoven,727069736D646F76656E2E6B69636164,rev?*
G04 #@! TF.SameCoordinates,Original*
G04 #@! TF.FileFunction,Paste,Top*
G04 #@! TF.FilePolarity,Positive*
%FSLAX46Y46*%
G04 Gerber Fmt 4.6, Leading zero omitted, Abs format (unit mm)*
G04 Created by KiCad (PCBNEW (5.0.0)) date 03/22/19 21:44:54*
%MOMM*%
%LPD*%
G01*
G04 APERTURE LIST*
%ADD10C,0.100000*%
%ADD11C,0.875000*%
%ADD12C,1.250000*%
%ADD13R,1.550000X0.600000*%
G04 APERTURE END LIST*
D10*
G04 #@! TO.C,R8*
G36*
X149027691Y-68076053D02*
X149048926Y-68079203D01*
X149069750Y-68084419D01*
X149089962Y-68091651D01*
X149109368Y-68100830D01*
X149127781Y-68111866D01*
X149145024Y-68124654D01*
X149160930Y-68139070D01*
X149175346Y-68154976D01*
X149188134Y-68172219D01*
X149199170Y-68190632D01*
X149208349Y-68210038D01*
X149215581Y-68230250D01*
X149220797Y-68251074D01*
X149223947Y-68272309D01*
X149225000Y-68293750D01*
X149225000Y-68806250D01*
X149223947Y-68827691D01*
X149220797Y-68848926D01*
X149215581Y-68869750D01*
X149208349Y-68889962D01*
X149199170Y-68909368D01*
X149188134Y-68927781D01*
X149175346Y-68945024D01*
X149160930Y-68960930D01*
X149145024Y-68975346D01*
X149127781Y-68988134D01*
X149109368Y-68999170D01*
X149089962Y-69008349D01*
X149069750Y-69015581D01*
X149048926Y-69020797D01*
X149027691Y-69023947D01*
X149006250Y-69025000D01*
X148568750Y-69025000D01*
X148547309Y-69023947D01*
X148526074Y-69020797D01*
X148505250Y-69015581D01*
X148485038Y-69008349D01*
X148465632Y-68999170D01*
X148447219Y-68988134D01*
X148429976Y-68975346D01*
X148414070Y-68960930D01*
X148399654Y-68945024D01*
X148386866Y-68927781D01*
X148375830Y-68909368D01*
X148366651Y-68889962D01*
X148359419Y-68869750D01*
X148354203Y-68848926D01*
X148351053Y-68827691D01*
X148350000Y-68806250D01*
X148350000Y-68293750D01*
X148351053Y-68272309D01*
X148354203Y-68251074D01*
X148359419Y-68230250D01*
X148366651Y-68210038D01*
X148375830Y-68190632D01*
X148386866Y-68172219D01*
X148399654Y-68154976D01*
X148414070Y-68139070D01*
X148429976Y-68124654D01*
X148447219Y-68111866D01*
X148465632Y-68100830D01*
X148485038Y-68091651D01*
X148505250Y-68084419D01*
X148526074Y-68079203D01*
X148547309Y-68076053D01*
X148568750Y-68075000D01*
X149006250Y-68075000D01*
X149027691Y-68076053D01*
X149027691Y-68076053D01*
G37*
D11*
X148787500Y-68550000D03*
D10*
G36*
X147452691Y-68076053D02*
X147473926Y-68079203D01*
X147494750Y-68084419D01*
X147514962Y-68091651D01*
X147534368Y-68100830D01*
X147552781Y-68111866D01*
X147570024Y-68124654D01*
X147585930Y-68139070D01*
X147600346Y-68154976D01*
X147613134Y-68172219D01*
X147624170Y-68190632D01*
X147633349Y-68210038D01*
X147640581Y-68230250D01*
X147645797Y-68251074D01*
X147648947Y-68272309D01*
X147650000Y-68293750D01*
X147650000Y-68806250D01*
X147648947Y-68827691D01*
X147645797Y-68848926D01*
X147640581Y-68869750D01*
X147633349Y-68889962D01*
X147624170Y-68909368D01*
X147613134Y-68927781D01*
X147600346Y-68945024D01*
X147585930Y-68960930D01*
X147570024Y-68975346D01*
X147552781Y-68988134D01*
X147534368Y-68999170D01*
X147514962Y-69008349D01*
X147494750Y-69015581D01*
X147473926Y-69020797D01*
X147452691Y-69023947D01*
X147431250Y-69025000D01*
X146993750Y-69025000D01*
X146972309Y-69023947D01*
X146951074Y-69020797D01*
X146930250Y-69015581D01*
X146910038Y-69008349D01*
X146890632Y-68999170D01*
X146872219Y-68988134D01*
X146854976Y-68975346D01*
X146839070Y-68960930D01*
X146824654Y-68945024D01*
X146811866Y-68927781D01*
X146800830Y-68909368D01*
X146791651Y-68889962D01*
X146784419Y-68869750D01*
X146779203Y-68848926D01*
X146776053Y-68827691D01*
X146775000Y-68806250D01*
X146775000Y-68293750D01*
X146776053Y-68272309D01*
X146779203Y-68251074D01*
X146784419Y-68230250D01*
X146791651Y-68210038D01*
X146800830Y-68190632D01*
X146811866Y-68172219D01*
X146824654Y-68154976D01*
X146839070Y-68139070D01*
X146854976Y-68124654D01*
X146872219Y-68111866D01*
X146890632Y-68100830D01*
X146910038Y-68091651D01*
X146930250Y-68084419D01*
X146951074Y-68079203D01*
X146972309Y-68076053D01*
X146993750Y-68075000D01*
X147431250Y-68075000D01*
X147452691Y-68076053D01*
X147452691Y-68076053D01*
G37*
D11*
X147212500Y-68550000D03*
G04 #@! TD*
D10*
G04 #@! TO.C,R9*
G36*
X141652691Y-68076053D02*
X141673926Y-68079203D01*
X141694750Y-68084419D01*
X141714962Y-68091651D01*
X141734368Y-68100830D01*
X141752781Y-68111866D01*
X141770024Y-68124654D01*
X141785930Y-68139070D01*
X141800346Y-68154976D01*
X141813134Y-68172219D01*
X141824170Y-68190632D01*
X141833349Y-68210038D01*
X141840581Y-68230250D01*
X141845797Y-68251074D01*
X141848947Y-68272309D01*
X141850000Y-68293750D01*
X141850000Y-68806250D01*
X141848947Y-68827691D01*
X141845797Y-68848926D01*
X141840581Y-68869750D01*
X141833349Y-68889962D01*
X141824170Y-68909368D01*
X141813134Y-68927781D01*
X141800346Y-68945024D01*
X141785930Y-68960930D01*
X141770024Y-68975346D01*
X141752781Y-68988134D01*
X141734368Y-68999170D01*
X141714962Y-69008349D01*
X141694750Y-69015581D01*
X141673926Y-69020797D01*
X141652691Y-69023947D01*
X141631250Y-69025000D01*
X141193750Y-69025000D01*
X141172309Y-69023947D01*
X141151074Y-69020797D01*
X141130250Y-69015581D01*
X141110038Y-69008349D01*
X141090632Y-68999170D01*
X141072219Y-68988134D01*
X141054976Y-68975346D01*
X141039070Y-68960930D01*
X141024654Y-68945024D01*
X141011866Y-68927781D01*
X141000830Y-68909368D01*
X140991651Y-68889962D01*
X140984419Y-68869750D01*
X140979203Y-68848926D01*
X140976053Y-68827691D01*
X140975000Y-68806250D01*
X140975000Y-68293750D01*
X140976053Y-68272309D01*
X140979203Y-68251074D01*
X140984419Y-68230250D01*
X140991651Y-68210038D01*
X141000830Y-68190632D01*
X141011866Y-68172219D01*
X141024654Y-68154976D01*
X141039070Y-68139070D01*
X141054976Y-68124654D01*
X141072219Y-68111866D01*
X141090632Y-68100830D01*
X141110038Y-68091651D01*
X141130250Y-68084419D01*
X141151074Y-68079203D01*
X141172309Y-68076053D01*
X141193750Y-68075000D01*
X141631250Y-68075000D01*
X141652691Y-68076053D01*
X141652691Y-68076053D01*
G37*
D11*
X141412500Y-68550000D03*
D10*
G36*
X143227691Y-68076053D02*
X143248926Y-68079203D01*
X143269750Y-68084419D01*
X143289962Y-68091651D01*
X143309368Y-68100830D01*
X143327781Y-68111866D01*
X143345024Y-68124654D01*
X143360930Y-68139070D01*
X143375346Y-68154976D01*
X143388134Y-68172219D01*
X143399170Y-68190632D01*
X143408349Y-68210038D01*
X143415581Y-68230250D01*
X143420797Y-68251074D01*
X143423947Y-68272309D01*
X143425000Y-68293750D01*
X143425000Y-68806250D01*
X143423947Y-68827691D01*
X143420797Y-68848926D01*
X143415581Y-68869750D01*
X143408349Y-68889962D01*
X143399170Y-68909368D01*
X143388134Y-68927781D01*
X143375346Y-68945024D01*
X143360930Y-68960930D01*
X143345024Y-68975346D01*
X143327781Y-68988134D01*
X143309368Y-68999170D01*
X143289962Y-69008349D01*
X143269750Y-69015581D01*
X143248926Y-69020797D01*
X143227691Y-69023947D01*
X143206250Y-69025000D01*
X142768750Y-69025000D01*
X142747309Y-69023947D01*
X142726074Y-69020797D01*
X142705250Y-69015581D01*
X142685038Y-69008349D01*
X142665632Y-68999170D01*
X142647219Y-68988134D01*
X142629976Y-68975346D01*
X142614070Y-68960930D01*
X142599654Y-68945024D01*
X142586866Y-68927781D01*
X142575830Y-68909368D01*
X142566651Y-68889962D01*
X142559419Y-68869750D01*
X142554203Y-68848926D01*
X142551053Y-68827691D01*
X142550000Y-68806250D01*
X142550000Y-68293750D01*
X142551053Y-68272309D01*
X142554203Y-68251074D01*
X142559419Y-68230250D01*
X142566651Y-68210038D01*
X142575830Y-68190632D01*
X142586866Y-68172219D01*
X142599654Y-68154976D01*
X142614070Y-68139070D01*
X142629976Y-68124654D01*
X142647219Y-68111866D01*
X142665632Y-68100830D01*
X142685038Y-68091651D01*
X142705250Y-68084419D01*
X142726074Y-68079203D01*
X142747309Y-68076053D01*
X142768750Y-68075000D01*
X143206250Y-68075000D01*
X143227691Y-68076053D01*
X143227691Y-68076053D01*
G37*
D11*
X142987500Y-68550000D03*
G04 #@! TD*
D10*
G04 #@! TO.C,D3*
G36*
X155149504Y-75526204D02*
X155173773Y-75529804D01*
X155197571Y-75535765D01*
X155220671Y-75544030D01*
X155242849Y-75554520D01*
X155263893Y-75567133D01*
X155283598Y-75581747D01*
X155301777Y-75598223D01*
X155318253Y-75616402D01*
X155332867Y-75636107D01*
X155345480Y-75657151D01*
X155355970Y-75679329D01*
X155364235Y-75702429D01*
X155370196Y-75726227D01*
X155373796Y-75750496D01*
X155375000Y-75775000D01*
X155375000Y-76525000D01*
X155373796Y-76549504D01*
X155370196Y-76573773D01*
X155364235Y-76597571D01*
X155355970Y-76620671D01*
X155345480Y-76642849D01*
X155332867Y-76663893D01*
X155318253Y-76683598D01*
X155301777Y-76701777D01*
X155283598Y-76718253D01*
X155263893Y-76732867D01*
X155242849Y-76745480D01*
X155220671Y-76755970D01*
X155197571Y-76764235D01*
X155173773Y-76770196D01*
X155149504Y-76773796D01*
X155125000Y-76775000D01*
X153875000Y-76775000D01*
X153850496Y-76773796D01*
X153826227Y-76770196D01*
X153802429Y-76764235D01*
X153779329Y-76755970D01*
X153757151Y-76745480D01*
X153736107Y-76732867D01*
X153716402Y-76718253D01*
X153698223Y-76701777D01*
X153681747Y-76683598D01*
X153667133Y-76663893D01*
X153654520Y-76642849D01*
X153644030Y-76620671D01*
X153635765Y-76597571D01*
X153629804Y-76573773D01*
X153626204Y-76549504D01*
X153625000Y-76525000D01*
X153625000Y-75775000D01*
X153626204Y-75750496D01*
X153629804Y-75726227D01*
X153635765Y-75702429D01*
X153644030Y-75679329D01*
X153654520Y-75657151D01*
X153667133Y-75636107D01*
X153681747Y-75616402D01*
X153698223Y-75598223D01*
X153716402Y-75581747D01*
X153736107Y-75567133D01*
X153757151Y-75554520D01*
X153779329Y-75544030D01*
X153802429Y-75535765D01*
X153826227Y-75529804D01*
X153850496Y-75526204D01*
X153875000Y-75525000D01*
X155125000Y-75525000D01*
X155149504Y-75526204D01*
X155149504Y-75526204D01*
G37*
D12*
X154500000Y-76150000D03*
D10*
G36*
X155149504Y-72726204D02*
X155173773Y-72729804D01*
X155197571Y-72735765D01*
X155220671Y-72744030D01*
X155242849Y-72754520D01*
X155263893Y-72767133D01*
X155283598Y-72781747D01*
X155301777Y-72798223D01*
X155318253Y-72816402D01*
X155332867Y-72836107D01*
X155345480Y-72857151D01*
X155355970Y-72879329D01*
X155364235Y-72902429D01*
X155370196Y-72926227D01*
X155373796Y-72950496D01*
X155375000Y-72975000D01*
X155375000Y-73725000D01*
X155373796Y-73749504D01*
X155370196Y-73773773D01*
X155364235Y-73797571D01*
X155355970Y-73820671D01*
X155345480Y-73842849D01*
X155332867Y-73863893D01*
X155318253Y-73883598D01*
X155301777Y-73901777D01*
X155283598Y-73918253D01*
X155263893Y-73932867D01*
X155242849Y-73945480D01*
X155220671Y-73955970D01*
X155197571Y-73964235D01*
X155173773Y-73970196D01*
X155149504Y-73973796D01*
X155125000Y-73975000D01*
X153875000Y-73975000D01*
X153850496Y-73973796D01*
X153826227Y-73970196D01*
X153802429Y-73964235D01*
X153779329Y-73955970D01*
X153757151Y-73945480D01*
X153736107Y-73932867D01*
X153716402Y-73918253D01*
X153698223Y-73901777D01*
X153681747Y-73883598D01*
X153667133Y-73863893D01*
X153654520Y-73842849D01*
X153644030Y-73820671D01*
X153635765Y-73797571D01*
X153629804Y-73773773D01*
X153626204Y-73749504D01*
X153625000Y-73725000D01*
X153625000Y-72975000D01*
X153626204Y-72950496D01*
X153629804Y-72926227D01*
X153635765Y-72902429D01*
X153644030Y-72879329D01*
X153654520Y-72857151D01*
X153667133Y-72836107D01*
X153681747Y-72816402D01*
X153698223Y-72798223D01*
X153716402Y-72781747D01*
X153736107Y-72767133D01*
X153757151Y-72754520D01*
X153779329Y-72744030D01*
X153802429Y-72735765D01*
X153826227Y-72729804D01*
X153850496Y-72726204D01*
X153875000Y-72725000D01*
X155125000Y-72725000D01*
X155149504Y-72726204D01*
X155149504Y-72726204D01*
G37*
D12*
X154500000Y-73350000D03*
G04 #@! TD*
D10*
G04 #@! TO.C,D5*
G36*
X158149504Y-72726204D02*
X158173773Y-72729804D01*
X158197571Y-72735765D01*
X158220671Y-72744030D01*
X158242849Y-72754520D01*
X158263893Y-72767133D01*
X158283598Y-72781747D01*
X158301777Y-72798223D01*
X158318253Y-72816402D01*
X158332867Y-72836107D01*
X158345480Y-72857151D01*
X158355970Y-72879329D01*
X158364235Y-72902429D01*
X158370196Y-72926227D01*
X158373796Y-72950496D01*
X158375000Y-72975000D01*
X158375000Y-73725000D01*
X158373796Y-73749504D01*
X158370196Y-73773773D01*
X158364235Y-73797571D01*
X158355970Y-73820671D01*
X158345480Y-73842849D01*
X158332867Y-73863893D01*
X158318253Y-73883598D01*
X158301777Y-73901777D01*
X158283598Y-73918253D01*
X158263893Y-73932867D01*
X158242849Y-73945480D01*
X158220671Y-73955970D01*
X158197571Y-73964235D01*
X158173773Y-73970196D01*
X158149504Y-73973796D01*
X158125000Y-73975000D01*
X156875000Y-73975000D01*
X156850496Y-73973796D01*
X156826227Y-73970196D01*
X156802429Y-73964235D01*
X156779329Y-73955970D01*
X156757151Y-73945480D01*
X156736107Y-73932867D01*
X156716402Y-73918253D01*
X156698223Y-73901777D01*
X156681747Y-73883598D01*
X156667133Y-73863893D01*
X156654520Y-73842849D01*
X156644030Y-73820671D01*
X156635765Y-73797571D01*
X156629804Y-73773773D01*
X156626204Y-73749504D01*
X156625000Y-73725000D01*
X156625000Y-72975000D01*
X156626204Y-72950496D01*
X156629804Y-72926227D01*
X156635765Y-72902429D01*
X156644030Y-72879329D01*
X156654520Y-72857151D01*
X156667133Y-72836107D01*
X156681747Y-72816402D01*
X156698223Y-72798223D01*
X156716402Y-72781747D01*
X156736107Y-72767133D01*
X156757151Y-72754520D01*
X156779329Y-72744030D01*
X156802429Y-72735765D01*
X156826227Y-72729804D01*
X156850496Y-72726204D01*
X156875000Y-72725000D01*
X158125000Y-72725000D01*
X158149504Y-72726204D01*
X158149504Y-72726204D01*
G37*
D12*
X157500000Y-73350000D03*
D10*
G36*
X158149504Y-75526204D02*
X158173773Y-75529804D01*
X158197571Y-75535765D01*
X158220671Y-75544030D01*
X158242849Y-75554520D01*
X158263893Y-75567133D01*
X158283598Y-75581747D01*
X158301777Y-75598223D01*
X158318253Y-75616402D01*
X158332867Y-75636107D01*
X158345480Y-75657151D01*
X158355970Y-75679329D01*
X158364235Y-75702429D01*
X158370196Y-75726227D01*
X158373796Y-75750496D01*
X158375000Y-75775000D01*
X158375000Y-76525000D01*
X158373796Y-76549504D01*
X158370196Y-76573773D01*
X158364235Y-76597571D01*
X158355970Y-76620671D01*
X158345480Y-76642849D01*
X158332867Y-76663893D01*
X158318253Y-76683598D01*
X158301777Y-76701777D01*
X158283598Y-76718253D01*
X158263893Y-76732867D01*
X158242849Y-76745480D01*
X158220671Y-76755970D01*
X158197571Y-76764235D01*
X158173773Y-76770196D01*
X158149504Y-76773796D01*
X158125000Y-76775000D01*
X156875000Y-76775000D01*
X156850496Y-76773796D01*
X156826227Y-76770196D01*
X156802429Y-76764235D01*
X156779329Y-76755970D01*
X156757151Y-76745480D01*
X156736107Y-76732867D01*
X156716402Y-76718253D01*
X156698223Y-76701777D01*
X156681747Y-76683598D01*
X156667133Y-76663893D01*
X156654520Y-76642849D01*
X156644030Y-76620671D01*
X156635765Y-76597571D01*
X156629804Y-76573773D01*
X156626204Y-76549504D01*
X156625000Y-76525000D01*
X156625000Y-75775000D01*
X156626204Y-75750496D01*
X156629804Y-75726227D01*
X156635765Y-75702429D01*
X156644030Y-75679329D01*
X156654520Y-75657151D01*
X156667133Y-75636107D01*
X156681747Y-75616402D01*
X156698223Y-75598223D01*
X156716402Y-75581747D01*
X156736107Y-75567133D01*
X156757151Y-75554520D01*
X156779329Y-75544030D01*
X156802429Y-75535765D01*
X156826227Y-75529804D01*
X156850496Y-75526204D01*
X156875000Y-75525000D01*
X158125000Y-75525000D01*
X158149504Y-75526204D01*
X158149504Y-75526204D01*
G37*
D12*
X157500000Y-76150000D03*
G04 #@! TD*
D10*
G04 #@! TO.C,D4*
G36*
X161149504Y-75526204D02*
X161173773Y-75529804D01*
X161197571Y-75535765D01*
X161220671Y-75544030D01*
X161242849Y-75554520D01*
X161263893Y-75567133D01*
X161283598Y-75581747D01*
X161301777Y-75598223D01*
X161318253Y-75616402D01*
X161332867Y-75636107D01*
X161345480Y-75657151D01*
X161355970Y-75679329D01*
X161364235Y-75702429D01*
X161370196Y-75726227D01*
X161373796Y-75750496D01*
X161375000Y-75775000D01*
X161375000Y-76525000D01*
X161373796Y-76549504D01*
X161370196Y-76573773D01*
X161364235Y-76597571D01*
X161355970Y-76620671D01*
X161345480Y-76642849D01*
X161332867Y-76663893D01*
X161318253Y-76683598D01*
X161301777Y-76701777D01*
X161283598Y-76718253D01*
X161263893Y-76732867D01*
X161242849Y-76745480D01*
X161220671Y-76755970D01*
X161197571Y-76764235D01*
X161173773Y-76770196D01*
X161149504Y-76773796D01*
X161125000Y-76775000D01*
X159875000Y-76775000D01*
X159850496Y-76773796D01*
X159826227Y-76770196D01*
X159802429Y-76764235D01*
X159779329Y-76755970D01*
X159757151Y-76745480D01*
X159736107Y-76732867D01*
X159716402Y-76718253D01*
X159698223Y-76701777D01*
X159681747Y-76683598D01*
X159667133Y-76663893D01*
X159654520Y-76642849D01*
X159644030Y-76620671D01*
X159635765Y-76597571D01*
X159629804Y-76573773D01*
X159626204Y-76549504D01*
X159625000Y-76525000D01*
X159625000Y-75775000D01*
X159626204Y-75750496D01*
X159629804Y-75726227D01*
X159635765Y-75702429D01*
X159644030Y-75679329D01*
X159654520Y-75657151D01*
X159667133Y-75636107D01*
X159681747Y-75616402D01*
X159698223Y-75598223D01*
X159716402Y-75581747D01*
X159736107Y-75567133D01*
X159757151Y-75554520D01*
X159779329Y-75544030D01*
X159802429Y-75535765D01*
X159826227Y-75529804D01*
X159850496Y-75526204D01*
X159875000Y-75525000D01*
X161125000Y-75525000D01*
X161149504Y-75526204D01*
X161149504Y-75526204D01*
G37*
D12*
X160500000Y-76150000D03*
D10*
G36*
X161149504Y-72726204D02*
X161173773Y-72729804D01*
X161197571Y-72735765D01*
X161220671Y-72744030D01*
X161242849Y-72754520D01*
X161263893Y-72767133D01*
X161283598Y-72781747D01*
X161301777Y-72798223D01*
X161318253Y-72816402D01*
X161332867Y-72836107D01*
X161345480Y-72857151D01*
X161355970Y-72879329D01*
X161364235Y-72902429D01*
X161370196Y-72926227D01*
X161373796Y-72950496D01*
X161375000Y-72975000D01*
X161375000Y-73725000D01*
X161373796Y-73749504D01*
X161370196Y-73773773D01*
X161364235Y-73797571D01*
X161355970Y-73820671D01*
X161345480Y-73842849D01*
X161332867Y-73863893D01*
X161318253Y-73883598D01*
X161301777Y-73901777D01*
X161283598Y-73918253D01*
X161263893Y-73932867D01*
X161242849Y-73945480D01*
X161220671Y-73955970D01*
X161197571Y-73964235D01*
X161173773Y-73970196D01*
X161149504Y-73973796D01*
X161125000Y-73975000D01*
X159875000Y-73975000D01*
X159850496Y-73973796D01*
X159826227Y-73970196D01*
X159802429Y-73964235D01*
X159779329Y-73955970D01*
X159757151Y-73945480D01*
X159736107Y-73932867D01*
X159716402Y-73918253D01*
X159698223Y-73901777D01*
X159681747Y-73883598D01*
X159667133Y-73863893D01*
X159654520Y-73842849D01*
X159644030Y-73820671D01*
X159635765Y-73797571D01*
X159629804Y-73773773D01*
X159626204Y-73749504D01*
X159625000Y-73725000D01*
X159625000Y-72975000D01*
X159626204Y-72950496D01*
X159629804Y-72926227D01*
X159635765Y-72902429D01*
X159644030Y-72879329D01*
X159654520Y-72857151D01*
X159667133Y-72836107D01*
X159681747Y-72816402D01*
X159698223Y-72798223D01*
X159716402Y-72781747D01*
X159736107Y-72767133D01*
X159757151Y-72754520D01*
X159779329Y-72744030D01*
X159802429Y-72735765D01*
X159826227Y-72729804D01*
X159850496Y-72726204D01*
X159875000Y-72725000D01*
X161125000Y-72725000D01*
X161149504Y-72726204D01*
X161149504Y-72726204D01*
G37*
D12*
X160500000Y-73350000D03*
G04 #@! TD*
D10*
G04 #@! TO.C,R7*
G36*
X154277691Y-66276053D02*
X154298926Y-66279203D01*
X154319750Y-66284419D01*
X154339962Y-66291651D01*
X154359368Y-66300830D01*
X154377781Y-66311866D01*
X154395024Y-66324654D01*
X154410930Y-66339070D01*
X154425346Y-66354976D01*
X154438134Y-66372219D01*
X154449170Y-66390632D01*
X154458349Y-66410038D01*
X154465581Y-66430250D01*
X154470797Y-66451074D01*
X154473947Y-66472309D01*
X154475000Y-66493750D01*
X154475000Y-67006250D01*
X154473947Y-67027691D01*
X154470797Y-67048926D01*
X154465581Y-67069750D01*
X154458349Y-67089962D01*
X154449170Y-67109368D01*
X154438134Y-67127781D01*
X154425346Y-67145024D01*
X154410930Y-67160930D01*
X154395024Y-67175346D01*
X154377781Y-67188134D01*
X154359368Y-67199170D01*
X154339962Y-67208349D01*
X154319750Y-67215581D01*
X154298926Y-67220797D01*
X154277691Y-67223947D01*
X154256250Y-67225000D01*
X153818750Y-67225000D01*
X153797309Y-67223947D01*
X153776074Y-67220797D01*
X153755250Y-67215581D01*
X153735038Y-67208349D01*
X153715632Y-67199170D01*
X153697219Y-67188134D01*
X153679976Y-67175346D01*
X153664070Y-67160930D01*
X153649654Y-67145024D01*
X153636866Y-67127781D01*
X153625830Y-67109368D01*
X153616651Y-67089962D01*
X153609419Y-67069750D01*
X153604203Y-67048926D01*
X153601053Y-67027691D01*
X153600000Y-67006250D01*
X153600000Y-66493750D01*
X153601053Y-66472309D01*
X153604203Y-66451074D01*
X153609419Y-66430250D01*
X153616651Y-66410038D01*
X153625830Y-66390632D01*
X153636866Y-66372219D01*
X153649654Y-66354976D01*
X153664070Y-66339070D01*
X153679976Y-66324654D01*
X153697219Y-66311866D01*
X153715632Y-66300830D01*
X153735038Y-66291651D01*
X153755250Y-66284419D01*
X153776074Y-66279203D01*
X153797309Y-66276053D01*
X153818750Y-66275000D01*
X154256250Y-66275000D01*
X154277691Y-66276053D01*
X154277691Y-66276053D01*
G37*
D11*
X154037500Y-66750000D03*
D10*
G36*
X152702691Y-66276053D02*
X152723926Y-66279203D01*
X152744750Y-66284419D01*
X152764962Y-66291651D01*
X152784368Y-66300830D01*
X152802781Y-66311866D01*
X152820024Y-66324654D01*
X152835930Y-66339070D01*
X152850346Y-66354976D01*
X152863134Y-66372219D01*
X152874170Y-66390632D01*
X152883349Y-66410038D01*
X152890581Y-66430250D01*
X152895797Y-66451074D01*
X152898947Y-66472309D01*
X152900000Y-66493750D01*
X152900000Y-67006250D01*
X152898947Y-67027691D01*
X152895797Y-67048926D01*
X152890581Y-67069750D01*
X152883349Y-67089962D01*
X152874170Y-67109368D01*
X152863134Y-67127781D01*
X152850346Y-67145024D01*
X152835930Y-67160930D01*
X152820024Y-67175346D01*
X152802781Y-67188134D01*
X152784368Y-67199170D01*
X152764962Y-67208349D01*
X152744750Y-67215581D01*
X152723926Y-67220797D01*
X152702691Y-67223947D01*
X152681250Y-67225000D01*
X152243750Y-67225000D01*
X152222309Y-67223947D01*
X152201074Y-67220797D01*
X152180250Y-67215581D01*
X152160038Y-67208349D01*
X152140632Y-67199170D01*
X152122219Y-67188134D01*
X152104976Y-67175346D01*
X152089070Y-67160930D01*
X152074654Y-67145024D01*
X152061866Y-67127781D01*
X152050830Y-67109368D01*
X152041651Y-67089962D01*
X152034419Y-67069750D01*
X152029203Y-67048926D01*
X152026053Y-67027691D01*
X152025000Y-67006250D01*
X152025000Y-66493750D01*
X152026053Y-66472309D01*
X152029203Y-66451074D01*
X152034419Y-66430250D01*
X152041651Y-66410038D01*
X152050830Y-66390632D01*
X152061866Y-66372219D01*
X152074654Y-66354976D01*
X152089070Y-66339070D01*
X152104976Y-66324654D01*
X152122219Y-66311866D01*
X152140632Y-66300830D01*
X152160038Y-66291651D01*
X152180250Y-66284419D01*
X152201074Y-66279203D01*
X152222309Y-66276053D01*
X152243750Y-66275000D01*
X152681250Y-66275000D01*
X152702691Y-66276053D01*
X152702691Y-66276053D01*
G37*
D11*
X152462500Y-66750000D03*
G04 #@! TD*
D10*
G04 #@! TO.C,R6*
G36*
X152702691Y-64276053D02*
X152723926Y-64279203D01*
X152744750Y-64284419D01*
X152764962Y-64291651D01*
X152784368Y-64300830D01*
X152802781Y-64311866D01*
X152820024Y-64324654D01*
X152835930Y-64339070D01*
X152850346Y-64354976D01*
X152863134Y-64372219D01*
X152874170Y-64390632D01*
X152883349Y-64410038D01*
X152890581Y-64430250D01*
X152895797Y-64451074D01*
X152898947Y-64472309D01*
X152900000Y-64493750D01*
X152900000Y-65006250D01*
X152898947Y-65027691D01*
X152895797Y-65048926D01*
X152890581Y-65069750D01*
X152883349Y-65089962D01*
X152874170Y-65109368D01*
X152863134Y-65127781D01*
X152850346Y-65145024D01*
X152835930Y-65160930D01*
X152820024Y-65175346D01*
X152802781Y-65188134D01*
X152784368Y-65199170D01*
X152764962Y-65208349D01*
X152744750Y-65215581D01*
X152723926Y-65220797D01*
X152702691Y-65223947D01*
X152681250Y-65225000D01*
X152243750Y-65225000D01*
X152222309Y-65223947D01*
X152201074Y-65220797D01*
X152180250Y-65215581D01*
X152160038Y-65208349D01*
X152140632Y-65199170D01*
X152122219Y-65188134D01*
X152104976Y-65175346D01*
X152089070Y-65160930D01*
X152074654Y-65145024D01*
X152061866Y-65127781D01*
X152050830Y-65109368D01*
X152041651Y-65089962D01*
X152034419Y-65069750D01*
X152029203Y-65048926D01*
X152026053Y-65027691D01*
X152025000Y-65006250D01*
X152025000Y-64493750D01*
X152026053Y-64472309D01*
X152029203Y-64451074D01*
X152034419Y-64430250D01*
X152041651Y-64410038D01*
X152050830Y-64390632D01*
X152061866Y-64372219D01*
X152074654Y-64354976D01*
X152089070Y-64339070D01*
X152104976Y-64324654D01*
X152122219Y-64311866D01*
X152140632Y-64300830D01*
X152160038Y-64291651D01*
X152180250Y-64284419D01*
X152201074Y-64279203D01*
X152222309Y-64276053D01*
X152243750Y-64275000D01*
X152681250Y-64275000D01*
X152702691Y-64276053D01*
X152702691Y-64276053D01*
G37*
D11*
X152462500Y-64750000D03*
D10*
G36*
X154277691Y-64276053D02*
X154298926Y-64279203D01*
X154319750Y-64284419D01*
X154339962Y-64291651D01*
X154359368Y-64300830D01*
X154377781Y-64311866D01*
X154395024Y-64324654D01*
X154410930Y-64339070D01*
X154425346Y-64354976D01*
X154438134Y-64372219D01*
X154449170Y-64390632D01*
X154458349Y-64410038D01*
X154465581Y-64430250D01*
X154470797Y-64451074D01*
X154473947Y-64472309D01*
X154475000Y-64493750D01*
X154475000Y-65006250D01*
X154473947Y-65027691D01*
X154470797Y-65048926D01*
X154465581Y-65069750D01*
X154458349Y-65089962D01*
X154449170Y-65109368D01*
X154438134Y-65127781D01*
X154425346Y-65145024D01*
X154410930Y-65160930D01*
X154395024Y-65175346D01*
X154377781Y-65188134D01*
X154359368Y-65199170D01*
X154339962Y-65208349D01*
X154319750Y-65215581D01*
X154298926Y-65220797D01*
X154277691Y-65223947D01*
X154256250Y-65225000D01*
X153818750Y-65225000D01*
X153797309Y-65223947D01*
X153776074Y-65220797D01*
X153755250Y-65215581D01*
X153735038Y-65208349D01*
X153715632Y-65199170D01*
X153697219Y-65188134D01*
X153679976Y-65175346D01*
X153664070Y-65160930D01*
X153649654Y-65145024D01*
X153636866Y-65127781D01*
X153625830Y-65109368D01*
X153616651Y-65089962D01*
X153609419Y-65069750D01*
X153604203Y-65048926D01*
X153601053Y-65027691D01*
X153600000Y-65006250D01*
X153600000Y-64493750D01*
X153601053Y-64472309D01*
X153604203Y-64451074D01*
X153609419Y-64430250D01*
X153616651Y-64410038D01*
X153625830Y-64390632D01*
X153636866Y-64372219D01*
X153649654Y-64354976D01*
X153664070Y-64339070D01*
X153679976Y-64324654D01*
X153697219Y-64311866D01*
X153715632Y-64300830D01*
X153735038Y-64291651D01*
X153755250Y-64284419D01*
X153776074Y-64279203D01*
X153797309Y-64276053D01*
X153818750Y-64275000D01*
X154256250Y-64275000D01*
X154277691Y-64276053D01*
X154277691Y-64276053D01*
G37*
D11*
X154037500Y-64750000D03*
G04 #@! TD*
D10*
G04 #@! TO.C,R5*
G36*
X154277691Y-68276053D02*
X154298926Y-68279203D01*
X154319750Y-68284419D01*
X154339962Y-68291651D01*
X154359368Y-68300830D01*
X154377781Y-68311866D01*
X154395024Y-68324654D01*
X154410930Y-68339070D01*
X154425346Y-68354976D01*
X154438134Y-68372219D01*
X154449170Y-68390632D01*
X154458349Y-68410038D01*
X154465581Y-68430250D01*
X154470797Y-68451074D01*
X154473947Y-68472309D01*
X154475000Y-68493750D01*
X154475000Y-69006250D01*
X154473947Y-69027691D01*
X154470797Y-69048926D01*
X154465581Y-69069750D01*
X154458349Y-69089962D01*
X154449170Y-69109368D01*
X154438134Y-69127781D01*
X154425346Y-69145024D01*
X154410930Y-69160930D01*
X154395024Y-69175346D01*
X154377781Y-69188134D01*
X154359368Y-69199170D01*
X154339962Y-69208349D01*
X154319750Y-69215581D01*
X154298926Y-69220797D01*
X154277691Y-69223947D01*
X154256250Y-69225000D01*
X153818750Y-69225000D01*
X153797309Y-69223947D01*
X153776074Y-69220797D01*
X153755250Y-69215581D01*
X153735038Y-69208349D01*
X153715632Y-69199170D01*
X153697219Y-69188134D01*
X153679976Y-69175346D01*
X153664070Y-69160930D01*
X153649654Y-69145024D01*
X153636866Y-69127781D01*
X153625830Y-69109368D01*
X153616651Y-69089962D01*
X153609419Y-69069750D01*
X153604203Y-69048926D01*
X153601053Y-69027691D01*
X153600000Y-69006250D01*
X153600000Y-68493750D01*
X153601053Y-68472309D01*
X153604203Y-68451074D01*
X153609419Y-68430250D01*
X153616651Y-68410038D01*
X153625830Y-68390632D01*
X153636866Y-68372219D01*
X153649654Y-68354976D01*
X153664070Y-68339070D01*
X153679976Y-68324654D01*
X153697219Y-68311866D01*
X153715632Y-68300830D01*
X153735038Y-68291651D01*
X153755250Y-68284419D01*
X153776074Y-68279203D01*
X153797309Y-68276053D01*
X153818750Y-68275000D01*
X154256250Y-68275000D01*
X154277691Y-68276053D01*
X154277691Y-68276053D01*
G37*
D11*
X154037500Y-68750000D03*
D10*
G36*
X152702691Y-68276053D02*
X152723926Y-68279203D01*
X152744750Y-68284419D01*
X152764962Y-68291651D01*
X152784368Y-68300830D01*
X152802781Y-68311866D01*
X152820024Y-68324654D01*
X152835930Y-68339070D01*
X152850346Y-68354976D01*
X152863134Y-68372219D01*
X152874170Y-68390632D01*
X152883349Y-68410038D01*
X152890581Y-68430250D01*
X152895797Y-68451074D01*
X152898947Y-68472309D01*
X152900000Y-68493750D01*
X152900000Y-69006250D01*
X152898947Y-69027691D01*
X152895797Y-69048926D01*
X152890581Y-69069750D01*
X152883349Y-69089962D01*
X152874170Y-69109368D01*
X152863134Y-69127781D01*
X152850346Y-69145024D01*
X152835930Y-69160930D01*
X152820024Y-69175346D01*
X152802781Y-69188134D01*
X152784368Y-69199170D01*
X152764962Y-69208349D01*
X152744750Y-69215581D01*
X152723926Y-69220797D01*
X152702691Y-69223947D01*
X152681250Y-69225000D01*
X152243750Y-69225000D01*
X152222309Y-69223947D01*
X152201074Y-69220797D01*
X152180250Y-69215581D01*
X152160038Y-69208349D01*
X152140632Y-69199170D01*
X152122219Y-69188134D01*
X152104976Y-69175346D01*
X152089070Y-69160930D01*
X152074654Y-69145024D01*
X152061866Y-69127781D01*
X152050830Y-69109368D01*
X152041651Y-69089962D01*
X152034419Y-69069750D01*
X152029203Y-69048926D01*
X152026053Y-69027691D01*
X152025000Y-69006250D01*
X152025000Y-68493750D01*
X152026053Y-68472309D01*
X152029203Y-68451074D01*
X152034419Y-68430250D01*
X152041651Y-68410038D01*
X152050830Y-68390632D01*
X152061866Y-68372219D01*
X152074654Y-68354976D01*
X152089070Y-68339070D01*
X152104976Y-68324654D01*
X152122219Y-68311866D01*
X152140632Y-68300830D01*
X152160038Y-68291651D01*
X152180250Y-68284419D01*
X152201074Y-68279203D01*
X152222309Y-68276053D01*
X152243750Y-68275000D01*
X152681250Y-68275000D01*
X152702691Y-68276053D01*
X152702691Y-68276053D01*
G37*
D11*
X152462500Y-68750000D03*
G04 #@! TD*
D10*
G04 #@! TO.C,C1*
G36*
X116777691Y-75276053D02*
X116798926Y-75279203D01*
X116819750Y-75284419D01*
X116839962Y-75291651D01*
X116859368Y-75300830D01*
X116877781Y-75311866D01*
X116895024Y-75324654D01*
X116910930Y-75339070D01*
X116925346Y-75354976D01*
X116938134Y-75372219D01*
X116949170Y-75390632D01*
X116958349Y-75410038D01*
X116965581Y-75430250D01*
X116970797Y-75451074D01*
X116973947Y-75472309D01*
X116975000Y-75493750D01*
X116975000Y-76006250D01*
X116973947Y-76027691D01*
X116970797Y-76048926D01*
X116965581Y-76069750D01*
X116958349Y-76089962D01*
X116949170Y-76109368D01*
X116938134Y-76127781D01*
X116925346Y-76145024D01*
X116910930Y-76160930D01*
X116895024Y-76175346D01*
X116877781Y-76188134D01*
X116859368Y-76199170D01*
X116839962Y-76208349D01*
X116819750Y-76215581D01*
X116798926Y-76220797D01*
X116777691Y-76223947D01*
X116756250Y-76225000D01*
X116318750Y-76225000D01*
X116297309Y-76223947D01*
X116276074Y-76220797D01*
X116255250Y-76215581D01*
X116235038Y-76208349D01*
X116215632Y-76199170D01*
X116197219Y-76188134D01*
X116179976Y-76175346D01*
X116164070Y-76160930D01*
X116149654Y-76145024D01*
X116136866Y-76127781D01*
X116125830Y-76109368D01*
X116116651Y-76089962D01*
X116109419Y-76069750D01*
X116104203Y-76048926D01*
X116101053Y-76027691D01*
X116100000Y-76006250D01*
X116100000Y-75493750D01*
X116101053Y-75472309D01*
X116104203Y-75451074D01*
X116109419Y-75430250D01*
X116116651Y-75410038D01*
X116125830Y-75390632D01*
X116136866Y-75372219D01*
X116149654Y-75354976D01*
X116164070Y-75339070D01*
X116179976Y-75324654D01*
X116197219Y-75311866D01*
X116215632Y-75300830D01*
X116235038Y-75291651D01*
X116255250Y-75284419D01*
X116276074Y-75279203D01*
X116297309Y-75276053D01*
X116318750Y-75275000D01*
X116756250Y-75275000D01*
X116777691Y-75276053D01*
X116777691Y-75276053D01*
G37*
D11*
X116537500Y-75750000D03*
D10*
G36*
X115202691Y-75276053D02*
X115223926Y-75279203D01*
X115244750Y-75284419D01*
X115264962Y-75291651D01*
X115284368Y-75300830D01*
X115302781Y-75311866D01*
X115320024Y-75324654D01*
X115335930Y-75339070D01*
X115350346Y-75354976D01*
X115363134Y-75372219D01*
X115374170Y-75390632D01*
X115383349Y-75410038D01*
X115390581Y-75430250D01*
X115395797Y-75451074D01*
X115398947Y-75472309D01*
X115400000Y-75493750D01*
X115400000Y-76006250D01*
X115398947Y-76027691D01*
X115395797Y-76048926D01*
X115390581Y-76069750D01*
X115383349Y-76089962D01*
X115374170Y-76109368D01*
X115363134Y-76127781D01*
X115350346Y-76145024D01*
X115335930Y-76160930D01*
X115320024Y-76175346D01*
X115302781Y-76188134D01*
X115284368Y-76199170D01*
X115264962Y-76208349D01*
X115244750Y-76215581D01*
X115223926Y-76220797D01*
X115202691Y-76223947D01*
X115181250Y-76225000D01*
X114743750Y-76225000D01*
X114722309Y-76223947D01*
X114701074Y-76220797D01*
X114680250Y-76215581D01*
X114660038Y-76208349D01*
X114640632Y-76199170D01*
X114622219Y-76188134D01*
X114604976Y-76175346D01*
X114589070Y-76160930D01*
X114574654Y-76145024D01*
X114561866Y-76127781D01*
X114550830Y-76109368D01*
X114541651Y-76089962D01*
X114534419Y-76069750D01*
X114529203Y-76048926D01*
X114526053Y-76027691D01*
X114525000Y-76006250D01*
X114525000Y-75493750D01*
X114526053Y-75472309D01*
X114529203Y-75451074D01*
X114534419Y-75430250D01*
X114541651Y-75410038D01*
X114550830Y-75390632D01*
X114561866Y-75372219D01*
X114574654Y-75354976D01*
X114589070Y-75339070D01*
X114604976Y-75324654D01*
X114622219Y-75311866D01*
X114640632Y-75300830D01*
X114660038Y-75291651D01*
X114680250Y-75284419D01*
X114701074Y-75279203D01*
X114722309Y-75276053D01*
X114743750Y-75275000D01*
X115181250Y-75275000D01*
X115202691Y-75276053D01*
X115202691Y-75276053D01*
G37*
D11*
X114962500Y-75750000D03*
G04 #@! TD*
D10*
G04 #@! TO.C,C2*
G36*
X111202691Y-69526053D02*
X111223926Y-69529203D01*
X111244750Y-69534419D01*
X111264962Y-69541651D01*
X111284368Y-69550830D01*
X111302781Y-69561866D01*
X111320024Y-69574654D01*
X111335930Y-69589070D01*
X111350346Y-69604976D01*
X111363134Y-69622219D01*
X111374170Y-69640632D01*
X111383349Y-69660038D01*
X111390581Y-69680250D01*
X111395797Y-69701074D01*
X111398947Y-69722309D01*
X111400000Y-69743750D01*
X111400000Y-70256250D01*
X111398947Y-70277691D01*
X111395797Y-70298926D01*
X111390581Y-70319750D01*
X111383349Y-70339962D01*
X111374170Y-70359368D01*
X111363134Y-70377781D01*
X111350346Y-70395024D01*
X111335930Y-70410930D01*
X111320024Y-70425346D01*
X111302781Y-70438134D01*
X111284368Y-70449170D01*
X111264962Y-70458349D01*
X111244750Y-70465581D01*
X111223926Y-70470797D01*
X111202691Y-70473947D01*
X111181250Y-70475000D01*
X110743750Y-70475000D01*
X110722309Y-70473947D01*
X110701074Y-70470797D01*
X110680250Y-70465581D01*
X110660038Y-70458349D01*
X110640632Y-70449170D01*
X110622219Y-70438134D01*
X110604976Y-70425346D01*
X110589070Y-70410930D01*
X110574654Y-70395024D01*
X110561866Y-70377781D01*
X110550830Y-70359368D01*
X110541651Y-70339962D01*
X110534419Y-70319750D01*
X110529203Y-70298926D01*
X110526053Y-70277691D01*
X110525000Y-70256250D01*
X110525000Y-69743750D01*
X110526053Y-69722309D01*
X110529203Y-69701074D01*
X110534419Y-69680250D01*
X110541651Y-69660038D01*
X110550830Y-69640632D01*
X110561866Y-69622219D01*
X110574654Y-69604976D01*
X110589070Y-69589070D01*
X110604976Y-69574654D01*
X110622219Y-69561866D01*
X110640632Y-69550830D01*
X110660038Y-69541651D01*
X110680250Y-69534419D01*
X110701074Y-69529203D01*
X110722309Y-69526053D01*
X110743750Y-69525000D01*
X111181250Y-69525000D01*
X111202691Y-69526053D01*
X111202691Y-69526053D01*
G37*
D11*
X110962500Y-70000000D03*
D10*
G36*
X112777691Y-69526053D02*
X112798926Y-69529203D01*
X112819750Y-69534419D01*
X112839962Y-69541651D01*
X112859368Y-69550830D01*
X112877781Y-69561866D01*
X112895024Y-69574654D01*
X112910930Y-69589070D01*
X112925346Y-69604976D01*
X112938134Y-69622219D01*
X112949170Y-69640632D01*
X112958349Y-69660038D01*
X112965581Y-69680250D01*
X112970797Y-69701074D01*
X112973947Y-69722309D01*
X112975000Y-69743750D01*
X112975000Y-70256250D01*
X112973947Y-70277691D01*
X112970797Y-70298926D01*
X112965581Y-70319750D01*
X112958349Y-70339962D01*
X112949170Y-70359368D01*
X112938134Y-70377781D01*
X112925346Y-70395024D01*
X112910930Y-70410930D01*
X112895024Y-70425346D01*
X112877781Y-70438134D01*
X112859368Y-70449170D01*
X112839962Y-70458349D01*
X112819750Y-70465581D01*
X112798926Y-70470797D01*
X112777691Y-70473947D01*
X112756250Y-70475000D01*
X112318750Y-70475000D01*
X112297309Y-70473947D01*
X112276074Y-70470797D01*
X112255250Y-70465581D01*
X112235038Y-70458349D01*
X112215632Y-70449170D01*
X112197219Y-70438134D01*
X112179976Y-70425346D01*
X112164070Y-70410930D01*
X112149654Y-70395024D01*
X112136866Y-70377781D01*
X112125830Y-70359368D01*
X112116651Y-70339962D01*
X112109419Y-70319750D01*
X112104203Y-70298926D01*
X112101053Y-70277691D01*
X112100000Y-70256250D01*
X112100000Y-69743750D01*
X112101053Y-69722309D01*
X112104203Y-69701074D01*
X112109419Y-69680250D01*
X112116651Y-69660038D01*
X112125830Y-69640632D01*
X112136866Y-69622219D01*
X112149654Y-69604976D01*
X112164070Y-69589070D01*
X112179976Y-69574654D01*
X112197219Y-69561866D01*
X112215632Y-69550830D01*
X112235038Y-69541651D01*
X112255250Y-69534419D01*
X112276074Y-69529203D01*
X112297309Y-69526053D01*
X112318750Y-69525000D01*
X112756250Y-69525000D01*
X112777691Y-69526053D01*
X112777691Y-69526053D01*
G37*
D11*
X112537500Y-70000000D03*
G04 #@! TD*
D10*
G04 #@! TO.C,C3*
G36*
X112777691Y-71276053D02*
X112798926Y-71279203D01*
X112819750Y-71284419D01*
X112839962Y-71291651D01*
X112859368Y-71300830D01*
X112877781Y-71311866D01*
X112895024Y-71324654D01*
X112910930Y-71339070D01*
X112925346Y-71354976D01*
X112938134Y-71372219D01*
X112949170Y-71390632D01*
X112958349Y-71410038D01*
X112965581Y-71430250D01*
X112970797Y-71451074D01*
X112973947Y-71472309D01*
X112975000Y-71493750D01*
X112975000Y-72006250D01*
X112973947Y-72027691D01*
X112970797Y-72048926D01*
X112965581Y-72069750D01*
X112958349Y-72089962D01*
X112949170Y-72109368D01*
X112938134Y-72127781D01*
X112925346Y-72145024D01*
X112910930Y-72160930D01*
X112895024Y-72175346D01*
X112877781Y-72188134D01*
X112859368Y-72199170D01*
X112839962Y-72208349D01*
X112819750Y-72215581D01*
X112798926Y-72220797D01*
X112777691Y-72223947D01*
X112756250Y-72225000D01*
X112318750Y-72225000D01*
X112297309Y-72223947D01*
X112276074Y-72220797D01*
X112255250Y-72215581D01*
X112235038Y-72208349D01*
X112215632Y-72199170D01*
X112197219Y-72188134D01*
X112179976Y-72175346D01*
X112164070Y-72160930D01*
X112149654Y-72145024D01*
X112136866Y-72127781D01*
X112125830Y-72109368D01*
X112116651Y-72089962D01*
X112109419Y-72069750D01*
X112104203Y-72048926D01*
X112101053Y-72027691D01*
X112100000Y-72006250D01*
X112100000Y-71493750D01*
X112101053Y-71472309D01*
X112104203Y-71451074D01*
X112109419Y-71430250D01*
X112116651Y-71410038D01*
X112125830Y-71390632D01*
X112136866Y-71372219D01*
X112149654Y-71354976D01*
X112164070Y-71339070D01*
X112179976Y-71324654D01*
X112197219Y-71311866D01*
X112215632Y-71300830D01*
X112235038Y-71291651D01*
X112255250Y-71284419D01*
X112276074Y-71279203D01*
X112297309Y-71276053D01*
X112318750Y-71275000D01*
X112756250Y-71275000D01*
X112777691Y-71276053D01*
X112777691Y-71276053D01*
G37*
D11*
X112537500Y-71750000D03*
D10*
G36*
X111202691Y-71276053D02*
X111223926Y-71279203D01*
X111244750Y-71284419D01*
X111264962Y-71291651D01*
X111284368Y-71300830D01*
X111302781Y-71311866D01*
X111320024Y-71324654D01*
X111335930Y-71339070D01*
X111350346Y-71354976D01*
X111363134Y-71372219D01*
X111374170Y-71390632D01*
X111383349Y-71410038D01*
X111390581Y-71430250D01*
X111395797Y-71451074D01*
X111398947Y-71472309D01*
X111400000Y-71493750D01*
X111400000Y-72006250D01*
X111398947Y-72027691D01*
X111395797Y-72048926D01*
X111390581Y-72069750D01*
X111383349Y-72089962D01*
X111374170Y-72109368D01*
X111363134Y-72127781D01*
X111350346Y-72145024D01*
X111335930Y-72160930D01*
X111320024Y-72175346D01*
X111302781Y-72188134D01*
X111284368Y-72199170D01*
X111264962Y-72208349D01*
X111244750Y-72215581D01*
X111223926Y-72220797D01*
X111202691Y-72223947D01*
X111181250Y-72225000D01*
X110743750Y-72225000D01*
X110722309Y-72223947D01*
X110701074Y-72220797D01*
X110680250Y-72215581D01*
X110660038Y-72208349D01*
X110640632Y-72199170D01*
X110622219Y-72188134D01*
X110604976Y-72175346D01*
X110589070Y-72160930D01*
X110574654Y-72145024D01*
X110561866Y-72127781D01*
X110550830Y-72109368D01*
X110541651Y-72089962D01*
X110534419Y-72069750D01*
X110529203Y-72048926D01*
X110526053Y-72027691D01*
X110525000Y-72006250D01*
X110525000Y-71493750D01*
X110526053Y-71472309D01*
X110529203Y-71451074D01*
X110534419Y-71430250D01*
X110541651Y-71410038D01*
X110550830Y-71390632D01*
X110561866Y-71372219D01*
X110574654Y-71354976D01*
X110589070Y-71339070D01*
X110604976Y-71324654D01*
X110622219Y-71311866D01*
X110640632Y-71300830D01*
X110660038Y-71291651D01*
X110680250Y-71284419D01*
X110701074Y-71279203D01*
X110722309Y-71276053D01*
X110743750Y-71275000D01*
X111181250Y-71275000D01*
X111202691Y-71276053D01*
X111202691Y-71276053D01*
G37*
D11*
X110962500Y-71750000D03*
G04 #@! TD*
D10*
G04 #@! TO.C,L2*
G36*
X115027691Y-79101053D02*
X115048926Y-79104203D01*
X115069750Y-79109419D01*
X115089962Y-79116651D01*
X115109368Y-79125830D01*
X115127781Y-79136866D01*
X115145024Y-79149654D01*
X115160930Y-79164070D01*
X115175346Y-79179976D01*
X115188134Y-79197219D01*
X115199170Y-79215632D01*
X115208349Y-79235038D01*
X115215581Y-79255250D01*
X115220797Y-79276074D01*
X115223947Y-79297309D01*
X115225000Y-79318750D01*
X115225000Y-79756250D01*
X115223947Y-79777691D01*
X115220797Y-79798926D01*
X115215581Y-79819750D01*
X115208349Y-79839962D01*
X115199170Y-79859368D01*
X115188134Y-79877781D01*
X115175346Y-79895024D01*
X115160930Y-79910930D01*
X115145024Y-79925346D01*
X115127781Y-79938134D01*
X115109368Y-79949170D01*
X115089962Y-79958349D01*
X115069750Y-79965581D01*
X115048926Y-79970797D01*
X115027691Y-79973947D01*
X115006250Y-79975000D01*
X114493750Y-79975000D01*
X114472309Y-79973947D01*
X114451074Y-79970797D01*
X114430250Y-79965581D01*
X114410038Y-79958349D01*
X114390632Y-79949170D01*
X114372219Y-79938134D01*
X114354976Y-79925346D01*
X114339070Y-79910930D01*
X114324654Y-79895024D01*
X114311866Y-79877781D01*
X114300830Y-79859368D01*
X114291651Y-79839962D01*
X114284419Y-79819750D01*
X114279203Y-79798926D01*
X114276053Y-79777691D01*
X114275000Y-79756250D01*
X114275000Y-79318750D01*
X114276053Y-79297309D01*
X114279203Y-79276074D01*
X114284419Y-79255250D01*
X114291651Y-79235038D01*
X114300830Y-79215632D01*
X114311866Y-79197219D01*
X114324654Y-79179976D01*
X114339070Y-79164070D01*
X114354976Y-79149654D01*
X114372219Y-79136866D01*
X114390632Y-79125830D01*
X114410038Y-79116651D01*
X114430250Y-79109419D01*
X114451074Y-79104203D01*
X114472309Y-79101053D01*
X114493750Y-79100000D01*
X115006250Y-79100000D01*
X115027691Y-79101053D01*
X115027691Y-79101053D01*
G37*
D11*
X114750000Y-79537500D03*
D10*
G36*
X115027691Y-77526053D02*
X115048926Y-77529203D01*
X115069750Y-77534419D01*
X115089962Y-77541651D01*
X115109368Y-77550830D01*
X115127781Y-77561866D01*
X115145024Y-77574654D01*
X115160930Y-77589070D01*
X115175346Y-77604976D01*
X115188134Y-77622219D01*
X115199170Y-77640632D01*
X115208349Y-77660038D01*
X115215581Y-77680250D01*
X115220797Y-77701074D01*
X115223947Y-77722309D01*
X115225000Y-77743750D01*
X115225000Y-78181250D01*
X115223947Y-78202691D01*
X115220797Y-78223926D01*
X115215581Y-78244750D01*
X115208349Y-78264962D01*
X115199170Y-78284368D01*
X115188134Y-78302781D01*
X115175346Y-78320024D01*
X115160930Y-78335930D01*
X115145024Y-78350346D01*
X115127781Y-78363134D01*
X115109368Y-78374170D01*
X115089962Y-78383349D01*
X115069750Y-78390581D01*
X115048926Y-78395797D01*
X115027691Y-78398947D01*
X115006250Y-78400000D01*
X114493750Y-78400000D01*
X114472309Y-78398947D01*
X114451074Y-78395797D01*
X114430250Y-78390581D01*
X114410038Y-78383349D01*
X114390632Y-78374170D01*
X114372219Y-78363134D01*
X114354976Y-78350346D01*
X114339070Y-78335930D01*
X114324654Y-78320024D01*
X114311866Y-78302781D01*
X114300830Y-78284368D01*
X114291651Y-78264962D01*
X114284419Y-78244750D01*
X114279203Y-78223926D01*
X114276053Y-78202691D01*
X114275000Y-78181250D01*
X114275000Y-77743750D01*
X114276053Y-77722309D01*
X114279203Y-77701074D01*
X114284419Y-77680250D01*
X114291651Y-77660038D01*
X114300830Y-77640632D01*
X114311866Y-77622219D01*
X114324654Y-77604976D01*
X114339070Y-77589070D01*
X114354976Y-77574654D01*
X114372219Y-77561866D01*
X114390632Y-77550830D01*
X114410038Y-77541651D01*
X114430250Y-77534419D01*
X114451074Y-77529203D01*
X114472309Y-77526053D01*
X114493750Y-77525000D01*
X115006250Y-77525000D01*
X115027691Y-77526053D01*
X115027691Y-77526053D01*
G37*
D11*
X114750000Y-77962500D03*
G04 #@! TD*
D10*
G04 #@! TO.C,L1*
G36*
X117027691Y-77526053D02*
X117048926Y-77529203D01*
X117069750Y-77534419D01*
X117089962Y-77541651D01*
X117109368Y-77550830D01*
X117127781Y-77561866D01*
X117145024Y-77574654D01*
X117160930Y-77589070D01*
X117175346Y-77604976D01*
X117188134Y-77622219D01*
X117199170Y-77640632D01*
X117208349Y-77660038D01*
X117215581Y-77680250D01*
X117220797Y-77701074D01*
X117223947Y-77722309D01*
X117225000Y-77743750D01*
X117225000Y-78181250D01*
X117223947Y-78202691D01*
X117220797Y-78223926D01*
X117215581Y-78244750D01*
X117208349Y-78264962D01*
X117199170Y-78284368D01*
X117188134Y-78302781D01*
X117175346Y-78320024D01*
X117160930Y-78335930D01*
X117145024Y-78350346D01*
X117127781Y-78363134D01*
X117109368Y-78374170D01*
X117089962Y-78383349D01*
X117069750Y-78390581D01*
X117048926Y-78395797D01*
X117027691Y-78398947D01*
X117006250Y-78400000D01*
X116493750Y-78400000D01*
X116472309Y-78398947D01*
X116451074Y-78395797D01*
X116430250Y-78390581D01*
X116410038Y-78383349D01*
X116390632Y-78374170D01*
X116372219Y-78363134D01*
X116354976Y-78350346D01*
X116339070Y-78335930D01*
X116324654Y-78320024D01*
X116311866Y-78302781D01*
X116300830Y-78284368D01*
X116291651Y-78264962D01*
X116284419Y-78244750D01*
X116279203Y-78223926D01*
X116276053Y-78202691D01*
X116275000Y-78181250D01*
X116275000Y-77743750D01*
X116276053Y-77722309D01*
X116279203Y-77701074D01*
X116284419Y-77680250D01*
X116291651Y-77660038D01*
X116300830Y-77640632D01*
X116311866Y-77622219D01*
X116324654Y-77604976D01*
X116339070Y-77589070D01*
X116354976Y-77574654D01*
X116372219Y-77561866D01*
X116390632Y-77550830D01*
X116410038Y-77541651D01*
X116430250Y-77534419D01*
X116451074Y-77529203D01*
X116472309Y-77526053D01*
X116493750Y-77525000D01*
X117006250Y-77525000D01*
X117027691Y-77526053D01*
X117027691Y-77526053D01*
G37*
D11*
X116750000Y-77962500D03*
D10*
G36*
X117027691Y-79101053D02*
X117048926Y-79104203D01*
X117069750Y-79109419D01*
X117089962Y-79116651D01*
X117109368Y-79125830D01*
X117127781Y-79136866D01*
X117145024Y-79149654D01*
X117160930Y-79164070D01*
X117175346Y-79179976D01*
X117188134Y-79197219D01*
X117199170Y-79215632D01*
X117208349Y-79235038D01*
X117215581Y-79255250D01*
X117220797Y-79276074D01*
X117223947Y-79297309D01*
X117225000Y-79318750D01*
X117225000Y-79756250D01*
X117223947Y-79777691D01*
X117220797Y-79798926D01*
X117215581Y-79819750D01*
X117208349Y-79839962D01*
X117199170Y-79859368D01*
X117188134Y-79877781D01*
X117175346Y-79895024D01*
X117160930Y-79910930D01*
X117145024Y-79925346D01*
X117127781Y-79938134D01*
X117109368Y-79949170D01*
X117089962Y-79958349D01*
X117069750Y-79965581D01*
X117048926Y-79970797D01*
X117027691Y-79973947D01*
X117006250Y-79975000D01*
X116493750Y-79975000D01*
X116472309Y-79973947D01*
X116451074Y-79970797D01*
X116430250Y-79965581D01*
X116410038Y-79958349D01*
X116390632Y-79949170D01*
X116372219Y-79938134D01*
X116354976Y-79925346D01*
X116339070Y-79910930D01*
X116324654Y-79895024D01*
X116311866Y-79877781D01*
X116300830Y-79859368D01*
X116291651Y-79839962D01*
X116284419Y-79819750D01*
X116279203Y-79798926D01*
X116276053Y-79777691D01*
X116275000Y-79756250D01*
X116275000Y-79318750D01*
X116276053Y-79297309D01*
X116279203Y-79276074D01*
X116284419Y-79255250D01*
X116291651Y-79235038D01*
X116300830Y-79215632D01*
X116311866Y-79197219D01*
X116324654Y-79179976D01*
X116339070Y-79164070D01*
X116354976Y-79149654D01*
X116372219Y-79136866D01*
X116390632Y-79125830D01*
X116410038Y-79116651D01*
X116430250Y-79109419D01*
X116451074Y-79104203D01*
X116472309Y-79101053D01*
X116493750Y-79100000D01*
X117006250Y-79100000D01*
X117027691Y-79101053D01*
X117027691Y-79101053D01*
G37*
D11*
X116750000Y-79537500D03*
G04 #@! TD*
D13*
G04 #@! TO.C,U1*
X116350000Y-67845000D03*
X116350000Y-69115000D03*
X116350000Y-70385000D03*
X116350000Y-71655000D03*
X121750000Y-71655000D03*
X121750000Y-70385000D03*
X121750000Y-69115000D03*
X121750000Y-67845000D03*
G04 #@! TD*
D10*
G04 #@! TO.C,R1*
G36*
X148027691Y-64276053D02*
X148048926Y-64279203D01*
X148069750Y-64284419D01*
X148089962Y-64291651D01*
X148109368Y-64300830D01*
X148127781Y-64311866D01*
X148145024Y-64324654D01*
X148160930Y-64339070D01*
X148175346Y-64354976D01*
X148188134Y-64372219D01*
X148199170Y-64390632D01*
X148208349Y-64410038D01*
X148215581Y-64430250D01*
X148220797Y-64451074D01*
X148223947Y-64472309D01*
X148225000Y-64493750D01*
X148225000Y-64931250D01*
X148223947Y-64952691D01*
X148220797Y-64973926D01*
X148215581Y-64994750D01*
X148208349Y-65014962D01*
X148199170Y-65034368D01*
X148188134Y-65052781D01*
X148175346Y-65070024D01*
X148160930Y-65085930D01*
X148145024Y-65100346D01*
X148127781Y-65113134D01*
X148109368Y-65124170D01*
X148089962Y-65133349D01*
X148069750Y-65140581D01*
X148048926Y-65145797D01*
X148027691Y-65148947D01*
X148006250Y-65150000D01*
X147493750Y-65150000D01*
X147472309Y-65148947D01*
X147451074Y-65145797D01*
X147430250Y-65140581D01*
X147410038Y-65133349D01*
X147390632Y-65124170D01*
X147372219Y-65113134D01*
X147354976Y-65100346D01*
X147339070Y-65085930D01*
X147324654Y-65070024D01*
X147311866Y-65052781D01*
X147300830Y-65034368D01*
X147291651Y-65014962D01*
X147284419Y-64994750D01*
X147279203Y-64973926D01*
X147276053Y-64952691D01*
X147275000Y-64931250D01*
X147275000Y-64493750D01*
X147276053Y-64472309D01*
X147279203Y-64451074D01*
X147284419Y-64430250D01*
X147291651Y-64410038D01*
X147300830Y-64390632D01*
X147311866Y-64372219D01*
X147324654Y-64354976D01*
X147339070Y-64339070D01*
X147354976Y-64324654D01*
X147372219Y-64311866D01*
X147390632Y-64300830D01*
X147410038Y-64291651D01*
X147430250Y-64284419D01*
X147451074Y-64279203D01*
X147472309Y-64276053D01*
X147493750Y-64275000D01*
X148006250Y-64275000D01*
X148027691Y-64276053D01*
X148027691Y-64276053D01*
G37*
D11*
X147750000Y-64712500D03*
D10*
G36*
X148027691Y-65851053D02*
X148048926Y-65854203D01*
X148069750Y-65859419D01*
X148089962Y-65866651D01*
X148109368Y-65875830D01*
X148127781Y-65886866D01*
X148145024Y-65899654D01*
X148160930Y-65914070D01*
X148175346Y-65929976D01*
X148188134Y-65947219D01*
X148199170Y-65965632D01*
X148208349Y-65985038D01*
X148215581Y-66005250D01*
X148220797Y-66026074D01*
X148223947Y-66047309D01*
X148225000Y-66068750D01*
X148225000Y-66506250D01*
X148223947Y-66527691D01*
X148220797Y-66548926D01*
X148215581Y-66569750D01*
X148208349Y-66589962D01*
X148199170Y-66609368D01*
X148188134Y-66627781D01*
X148175346Y-66645024D01*
X148160930Y-66660930D01*
X148145024Y-66675346D01*
X148127781Y-66688134D01*
X148109368Y-66699170D01*
X148089962Y-66708349D01*
X148069750Y-66715581D01*
X148048926Y-66720797D01*
X148027691Y-66723947D01*
X148006250Y-66725000D01*
X147493750Y-66725000D01*
X147472309Y-66723947D01*
X147451074Y-66720797D01*
X147430250Y-66715581D01*
X147410038Y-66708349D01*
X147390632Y-66699170D01*
X147372219Y-66688134D01*
X147354976Y-66675346D01*
X147339070Y-66660930D01*
X147324654Y-66645024D01*
X147311866Y-66627781D01*
X147300830Y-66609368D01*
X147291651Y-66589962D01*
X147284419Y-66569750D01*
X147279203Y-66548926D01*
X147276053Y-66527691D01*
X147275000Y-66506250D01*
X147275000Y-66068750D01*
X147276053Y-66047309D01*
X147279203Y-66026074D01*
X147284419Y-66005250D01*
X147291651Y-65985038D01*
X147300830Y-65965632D01*
X147311866Y-65947219D01*
X147324654Y-65929976D01*
X147339070Y-65914070D01*
X147354976Y-65899654D01*
X147372219Y-65886866D01*
X147390632Y-65875830D01*
X147410038Y-65866651D01*
X147430250Y-65859419D01*
X147451074Y-65854203D01*
X147472309Y-65851053D01*
X147493750Y-65850000D01*
X148006250Y-65850000D01*
X148027691Y-65851053D01*
X148027691Y-65851053D01*
G37*
D11*
X147750000Y-66287500D03*
G04 #@! TD*
D10*
G04 #@! TO.C,R2*
G36*
X145527691Y-65851053D02*
X145548926Y-65854203D01*
X145569750Y-65859419D01*
X145589962Y-65866651D01*
X145609368Y-65875830D01*
X145627781Y-65886866D01*
X145645024Y-65899654D01*
X145660930Y-65914070D01*
X145675346Y-65929976D01*
X145688134Y-65947219D01*
X145699170Y-65965632D01*
X145708349Y-65985038D01*
X145715581Y-66005250D01*
X145720797Y-66026074D01*
X145723947Y-66047309D01*
X145725000Y-66068750D01*
X145725000Y-66506250D01*
X145723947Y-66527691D01*
X145720797Y-66548926D01*
X145715581Y-66569750D01*
X145708349Y-66589962D01*
X145699170Y-66609368D01*
X145688134Y-66627781D01*
X145675346Y-66645024D01*
X145660930Y-66660930D01*
X145645024Y-66675346D01*
X145627781Y-66688134D01*
X145609368Y-66699170D01*
X145589962Y-66708349D01*
X145569750Y-66715581D01*
X145548926Y-66720797D01*
X145527691Y-66723947D01*
X145506250Y-66725000D01*
X144993750Y-66725000D01*
X144972309Y-66723947D01*
X144951074Y-66720797D01*
X144930250Y-66715581D01*
X144910038Y-66708349D01*
X144890632Y-66699170D01*
X144872219Y-66688134D01*
X144854976Y-66675346D01*
X144839070Y-66660930D01*
X144824654Y-66645024D01*
X144811866Y-66627781D01*
X144800830Y-66609368D01*
X144791651Y-66589962D01*
X144784419Y-66569750D01*
X144779203Y-66548926D01*
X144776053Y-66527691D01*
X144775000Y-66506250D01*
X144775000Y-66068750D01*
X144776053Y-66047309D01*
X144779203Y-66026074D01*
X144784419Y-66005250D01*
X144791651Y-65985038D01*
X144800830Y-65965632D01*
X144811866Y-65947219D01*
X144824654Y-65929976D01*
X144839070Y-65914070D01*
X144854976Y-65899654D01*
X144872219Y-65886866D01*
X144890632Y-65875830D01*
X144910038Y-65866651D01*
X144930250Y-65859419D01*
X144951074Y-65854203D01*
X144972309Y-65851053D01*
X144993750Y-65850000D01*
X145506250Y-65850000D01*
X145527691Y-65851053D01*
X145527691Y-65851053D01*
G37*
D11*
X145250000Y-66287500D03*
D10*
G36*
X145527691Y-64276053D02*
X145548926Y-64279203D01*
X145569750Y-64284419D01*
X145589962Y-64291651D01*
X145609368Y-64300830D01*
X145627781Y-64311866D01*
X145645024Y-64324654D01*
X145660930Y-64339070D01*
X145675346Y-64354976D01*
X145688134Y-64372219D01*
X145699170Y-64390632D01*
X145708349Y-64410038D01*
X145715581Y-64430250D01*
X145720797Y-64451074D01*
X145723947Y-64472309D01*
X145725000Y-64493750D01*
X145725000Y-64931250D01*
X145723947Y-64952691D01*
X145720797Y-64973926D01*
X145715581Y-64994750D01*
X145708349Y-65014962D01*
X145699170Y-65034368D01*
X145688134Y-65052781D01*
X145675346Y-65070024D01*
X145660930Y-65085930D01*
X145645024Y-65100346D01*
X145627781Y-65113134D01*
X145609368Y-65124170D01*
X145589962Y-65133349D01*
X145569750Y-65140581D01*
X145548926Y-65145797D01*
X145527691Y-65148947D01*
X145506250Y-65150000D01*
X144993750Y-65150000D01*
X144972309Y-65148947D01*
X144951074Y-65145797D01*
X144930250Y-65140581D01*
X144910038Y-65133349D01*
X144890632Y-65124170D01*
X144872219Y-65113134D01*
X144854976Y-65100346D01*
X144839070Y-65085930D01*
X144824654Y-65070024D01*
X144811866Y-65052781D01*
X144800830Y-65034368D01*
X144791651Y-65014962D01*
X144784419Y-64994750D01*
X144779203Y-64973926D01*
X144776053Y-64952691D01*
X144775000Y-64931250D01*
X144775000Y-64493750D01*
X144776053Y-64472309D01*
X144779203Y-64451074D01*
X144784419Y-64430250D01*
X144791651Y-64410038D01*
X144800830Y-64390632D01*
X144811866Y-64372219D01*
X144824654Y-64354976D01*
X144839070Y-64339070D01*
X144854976Y-64324654D01*
X144872219Y-64311866D01*
X144890632Y-64300830D01*
X144910038Y-64291651D01*
X144930250Y-64284419D01*
X144951074Y-64279203D01*
X144972309Y-64276053D01*
X144993750Y-64275000D01*
X145506250Y-64275000D01*
X145527691Y-64276053D01*
X145527691Y-64276053D01*
G37*
D11*
X145250000Y-64712500D03*
G04 #@! TD*
D10*
G04 #@! TO.C,R3*
G36*
X126027691Y-69351053D02*
X126048926Y-69354203D01*
X126069750Y-69359419D01*
X126089962Y-69366651D01*
X126109368Y-69375830D01*
X126127781Y-69386866D01*
X126145024Y-69399654D01*
X126160930Y-69414070D01*
X126175346Y-69429976D01*
X126188134Y-69447219D01*
X126199170Y-69465632D01*
X126208349Y-69485038D01*
X126215581Y-69505250D01*
X126220797Y-69526074D01*
X126223947Y-69547309D01*
X126225000Y-69568750D01*
X126225000Y-70006250D01*
X126223947Y-70027691D01*
X126220797Y-70048926D01*
X126215581Y-70069750D01*
X126208349Y-70089962D01*
X126199170Y-70109368D01*
X126188134Y-70127781D01*
X126175346Y-70145024D01*
X126160930Y-70160930D01*
X126145024Y-70175346D01*
X126127781Y-70188134D01*
X126109368Y-70199170D01*
X126089962Y-70208349D01*
X126069750Y-70215581D01*
X126048926Y-70220797D01*
X126027691Y-70223947D01*
X126006250Y-70225000D01*
X125493750Y-70225000D01*
X125472309Y-70223947D01*
X125451074Y-70220797D01*
X125430250Y-70215581D01*
X125410038Y-70208349D01*
X125390632Y-70199170D01*
X125372219Y-70188134D01*
X125354976Y-70175346D01*
X125339070Y-70160930D01*
X125324654Y-70145024D01*
X125311866Y-70127781D01*
X125300830Y-70109368D01*
X125291651Y-70089962D01*
X125284419Y-70069750D01*
X125279203Y-70048926D01*
X125276053Y-70027691D01*
X125275000Y-70006250D01*
X125275000Y-69568750D01*
X125276053Y-69547309D01*
X125279203Y-69526074D01*
X125284419Y-69505250D01*
X125291651Y-69485038D01*
X125300830Y-69465632D01*
X125311866Y-69447219D01*
X125324654Y-69429976D01*
X125339070Y-69414070D01*
X125354976Y-69399654D01*
X125372219Y-69386866D01*
X125390632Y-69375830D01*
X125410038Y-69366651D01*
X125430250Y-69359419D01*
X125451074Y-69354203D01*
X125472309Y-69351053D01*
X125493750Y-69350000D01*
X126006250Y-69350000D01*
X126027691Y-69351053D01*
X126027691Y-69351053D01*
G37*
D11*
X125750000Y-69787500D03*
D10*
G36*
X126027691Y-67776053D02*
X126048926Y-67779203D01*
X126069750Y-67784419D01*
X126089962Y-67791651D01*
X126109368Y-67800830D01*
X126127781Y-67811866D01*
X126145024Y-67824654D01*
X126160930Y-67839070D01*
X126175346Y-67854976D01*
X126188134Y-67872219D01*
X126199170Y-67890632D01*
X126208349Y-67910038D01*
X126215581Y-67930250D01*
X126220797Y-67951074D01*
X126223947Y-67972309D01*
X126225000Y-67993750D01*
X126225000Y-68431250D01*
X126223947Y-68452691D01*
X126220797Y-68473926D01*
X126215581Y-68494750D01*
X126208349Y-68514962D01*
X126199170Y-68534368D01*
X126188134Y-68552781D01*
X126175346Y-68570024D01*
X126160930Y-68585930D01*
X126145024Y-68600346D01*
X126127781Y-68613134D01*
X126109368Y-68624170D01*
X126089962Y-68633349D01*
X126069750Y-68640581D01*
X126048926Y-68645797D01*
X126027691Y-68648947D01*
X126006250Y-68650000D01*
X125493750Y-68650000D01*
X125472309Y-68648947D01*
X125451074Y-68645797D01*
X125430250Y-68640581D01*
X125410038Y-68633349D01*
X125390632Y-68624170D01*
X125372219Y-68613134D01*
X125354976Y-68600346D01*
X125339070Y-68585930D01*
X125324654Y-68570024D01*
X125311866Y-68552781D01*
X125300830Y-68534368D01*
X125291651Y-68514962D01*
X125284419Y-68494750D01*
X125279203Y-68473926D01*
X125276053Y-68452691D01*
X125275000Y-68431250D01*
X125275000Y-67993750D01*
X125276053Y-67972309D01*
X125279203Y-67951074D01*
X125284419Y-67930250D01*
X125291651Y-67910038D01*
X125300830Y-67890632D01*
X125311866Y-67872219D01*
X125324654Y-67854976D01*
X125339070Y-67839070D01*
X125354976Y-67824654D01*
X125372219Y-67811866D01*
X125390632Y-67800830D01*
X125410038Y-67791651D01*
X125430250Y-67784419D01*
X125451074Y-67779203D01*
X125472309Y-67776053D01*
X125493750Y-67775000D01*
X126006250Y-67775000D01*
X126027691Y-67776053D01*
X126027691Y-67776053D01*
G37*
D11*
X125750000Y-68212500D03*
G04 #@! TD*
D10*
G04 #@! TO.C,R4*
G36*
X128027691Y-67776053D02*
X128048926Y-67779203D01*
X128069750Y-67784419D01*
X128089962Y-67791651D01*
X128109368Y-67800830D01*
X128127781Y-67811866D01*
X128145024Y-67824654D01*
X128160930Y-67839070D01*
X128175346Y-67854976D01*
X128188134Y-67872219D01*
X128199170Y-67890632D01*
X128208349Y-67910038D01*
X128215581Y-67930250D01*
X128220797Y-67951074D01*
X128223947Y-67972309D01*
X128225000Y-67993750D01*
X128225000Y-68431250D01*
X128223947Y-68452691D01*
X128220797Y-68473926D01*
X128215581Y-68494750D01*
X128208349Y-68514962D01*
X128199170Y-68534368D01*
X128188134Y-68552781D01*
X128175346Y-68570024D01*
X128160930Y-68585930D01*
X128145024Y-68600346D01*
X128127781Y-68613134D01*
X128109368Y-68624170D01*
X128089962Y-68633349D01*
X128069750Y-68640581D01*
X128048926Y-68645797D01*
X128027691Y-68648947D01*
X128006250Y-68650000D01*
X127493750Y-68650000D01*
X127472309Y-68648947D01*
X127451074Y-68645797D01*
X127430250Y-68640581D01*
X127410038Y-68633349D01*
X127390632Y-68624170D01*
X127372219Y-68613134D01*
X127354976Y-68600346D01*
X127339070Y-68585930D01*
X127324654Y-68570024D01*
X127311866Y-68552781D01*
X127300830Y-68534368D01*
X127291651Y-68514962D01*
X127284419Y-68494750D01*
X127279203Y-68473926D01*
X127276053Y-68452691D01*
X127275000Y-68431250D01*
X127275000Y-67993750D01*
X127276053Y-67972309D01*
X127279203Y-67951074D01*
X127284419Y-67930250D01*
X127291651Y-67910038D01*
X127300830Y-67890632D01*
X127311866Y-67872219D01*
X127324654Y-67854976D01*
X127339070Y-67839070D01*
X127354976Y-67824654D01*
X127372219Y-67811866D01*
X127390632Y-67800830D01*
X127410038Y-67791651D01*
X127430250Y-67784419D01*
X127451074Y-67779203D01*
X127472309Y-67776053D01*
X127493750Y-67775000D01*
X128006250Y-67775000D01*
X128027691Y-67776053D01*
X128027691Y-67776053D01*
G37*
D11*
X127750000Y-68212500D03*
D10*
G36*
X128027691Y-69351053D02*
X128048926Y-69354203D01*
X128069750Y-69359419D01*
X128089962Y-69366651D01*
X128109368Y-69375830D01*
X128127781Y-69386866D01*
X128145024Y-69399654D01*
X128160930Y-69414070D01*
X128175346Y-69429976D01*
X128188134Y-69447219D01*
X128199170Y-69465632D01*
X128208349Y-69485038D01*
X128215581Y-69505250D01*
X128220797Y-69526074D01*
X128223947Y-69547309D01*
X128225000Y-69568750D01*
X128225000Y-70006250D01*
X128223947Y-70027691D01*
X128220797Y-70048926D01*
X128215581Y-70069750D01*
X128208349Y-70089962D01*
X128199170Y-70109368D01*
X128188134Y-70127781D01*
X128175346Y-70145024D01*
X128160930Y-70160930D01*
X128145024Y-70175346D01*
X128127781Y-70188134D01*
X128109368Y-70199170D01*
X128089962Y-70208349D01*
X128069750Y-70215581D01*
X128048926Y-70220797D01*
X128027691Y-70223947D01*
X128006250Y-70225000D01*
X127493750Y-70225000D01*
X127472309Y-70223947D01*
X127451074Y-70220797D01*
X127430250Y-70215581D01*
X127410038Y-70208349D01*
X127390632Y-70199170D01*
X127372219Y-70188134D01*
X127354976Y-70175346D01*
X127339070Y-70160930D01*
X127324654Y-70145024D01*
X127311866Y-70127781D01*
X127300830Y-70109368D01*
X127291651Y-70089962D01*
X127284419Y-70069750D01*
X127279203Y-70048926D01*
X127276053Y-70027691D01*
X127275000Y-70006250D01*
X127275000Y-69568750D01*
X127276053Y-69547309D01*
X127279203Y-69526074D01*
X127284419Y-69505250D01*
X127291651Y-69485038D01*
X127300830Y-69465632D01*
X127311866Y-69447219D01*
X127324654Y-69429976D01*
X127339070Y-69414070D01*
X127354976Y-69399654D01*
X127372219Y-69386866D01*
X127390632Y-69375830D01*
X127410038Y-69366651D01*
X127430250Y-69359419D01*
X127451074Y-69354203D01*
X127472309Y-69351053D01*
X127493750Y-69350000D01*
X128006250Y-69350000D01*
X128027691Y-69351053D01*
X128027691Y-69351053D01*
G37*
D11*
X127750000Y-69787500D03*
G04 #@! TD*
M02*
