G04 #@! TF.GenerationSoftware,KiCad,Pcbnew,(5.0.0)*
G04 #@! TF.CreationDate,2019-03-22T21:44:55+01:00*
G04 #@! TF.ProjectId,rpismdoven,727069736D646F76656E2E6B69636164,rev?*
G04 #@! TF.SameCoordinates,Original*
G04 #@! TF.FileFunction,Profile,NP*
%FSLAX46Y46*%
G04 Gerber Fmt 4.6, Leading zero omitted, Abs format (unit mm)*
G04 Created by KiCad (PCBNEW (5.0.0)) date 03/22/19 21:44:55*
%MOMM*%
%LPD*%
G01*
G04 APERTURE LIST*
%ADD10C,0.150000*%
G04 APERTURE END LIST*
D10*
X142700000Y-92450000D02*
X142700000Y-107450000D01*
X143700000Y-91450000D02*
G75*
G02X144700000Y-92450000I0J-1000000D01*
G01*
X142700000Y-92450000D02*
G75*
G02X143700000Y-91450000I1000000J0D01*
G01*
X143700000Y-108450000D02*
G75*
G02X142700000Y-107450000I0J1000000D01*
G01*
X144700000Y-107450000D02*
G75*
G02X143700000Y-108450000I-1000000J0D01*
G01*
X144700000Y-92450000D02*
X144700000Y-107450000D01*
X102700000Y-91950000D02*
X99700000Y-91950000D01*
X99700000Y-74950000D02*
X102700000Y-74950000D01*
X98700000Y-73950000D02*
X98700000Y-57950000D01*
X99700000Y-74950000D02*
G75*
G02X98700000Y-73950000I0J1000000D01*
G01*
X102700000Y-74950000D02*
G75*
G02X103700000Y-75950000I0J-1000000D01*
G01*
X103700000Y-90950000D02*
G75*
G02X102700000Y-91950000I-1000000J0D01*
G01*
X98700000Y-92950000D02*
G75*
G02X99700000Y-91950000I1000000J0D01*
G01*
X103700000Y-75950000D02*
X103700000Y-90950000D01*
X98700000Y-108450000D02*
X98700000Y-92950000D01*
X160700000Y-111450000D02*
X101700000Y-111450000D01*
X98700000Y-57950000D02*
G75*
G02X101700000Y-54950000I3000000J0D01*
G01*
X101700000Y-111450000D02*
G75*
G02X98700000Y-108450000I0J3000000D01*
G01*
X163700000Y-108450000D02*
G75*
G02X160700000Y-111450000I-3000000J0D01*
G01*
X160700000Y-54950000D02*
G75*
G02X163700000Y-57950000I0J-3000000D01*
G01*
X163700000Y-108450000D02*
X163700000Y-57950000D01*
X160700000Y-54950000D02*
X101690000Y-54950000D01*
M02*
