G04 #@! TF.GenerationSoftware,KiCad,Pcbnew,(5.0.0)*
G04 #@! TF.CreationDate,2019-03-22T21:44:55+01:00*
G04 #@! TF.ProjectId,rpismdoven,727069736D646F76656E2E6B69636164,rev?*
G04 #@! TF.SameCoordinates,Original*
G04 #@! TF.FileFunction,Legend,Top*
G04 #@! TF.FilePolarity,Positive*
%FSLAX46Y46*%
G04 Gerber Fmt 4.6, Leading zero omitted, Abs format (unit mm)*
G04 Created by KiCad (PCBNEW (5.0.0)) date 03/22/19 21:44:55*
%MOMM*%
%LPD*%
G01*
G04 APERTURE LIST*
%ADD10C,0.300000*%
%ADD11C,0.120000*%
%ADD12C,0.150000*%
%ADD13C,0.010000*%
G04 APERTURE END LIST*
D10*
X107964285Y-94703571D02*
X107464285Y-93989285D01*
X107107142Y-94703571D02*
X107107142Y-93203571D01*
X107678571Y-93203571D01*
X107821428Y-93275000D01*
X107892857Y-93346428D01*
X107964285Y-93489285D01*
X107964285Y-93703571D01*
X107892857Y-93846428D01*
X107821428Y-93917857D01*
X107678571Y-93989285D01*
X107107142Y-93989285D01*
X108607142Y-94703571D02*
X108607142Y-93203571D01*
X109178571Y-93203571D01*
X109321428Y-93275000D01*
X109392857Y-93346428D01*
X109464285Y-93489285D01*
X109464285Y-93703571D01*
X109392857Y-93846428D01*
X109321428Y-93917857D01*
X109178571Y-93989285D01*
X108607142Y-93989285D01*
X110107142Y-94703571D02*
X110107142Y-93203571D01*
X111892857Y-94632142D02*
X112107142Y-94703571D01*
X112464285Y-94703571D01*
X112607142Y-94632142D01*
X112678571Y-94560714D01*
X112750000Y-94417857D01*
X112750000Y-94275000D01*
X112678571Y-94132142D01*
X112607142Y-94060714D01*
X112464285Y-93989285D01*
X112178571Y-93917857D01*
X112035714Y-93846428D01*
X111964285Y-93775000D01*
X111892857Y-93632142D01*
X111892857Y-93489285D01*
X111964285Y-93346428D01*
X112035714Y-93275000D01*
X112178571Y-93203571D01*
X112535714Y-93203571D01*
X112750000Y-93275000D01*
X113392857Y-94703571D02*
X113392857Y-93203571D01*
X113892857Y-94275000D01*
X114392857Y-93203571D01*
X114392857Y-94703571D01*
X115107142Y-94703571D02*
X115107142Y-93203571D01*
X115464285Y-93203571D01*
X115678571Y-93275000D01*
X115821428Y-93417857D01*
X115892857Y-93560714D01*
X115964285Y-93846428D01*
X115964285Y-94060714D01*
X115892857Y-94346428D01*
X115821428Y-94489285D01*
X115678571Y-94632142D01*
X115464285Y-94703571D01*
X115107142Y-94703571D01*
X118035714Y-93203571D02*
X118321428Y-93203571D01*
X118464285Y-93275000D01*
X118607142Y-93417857D01*
X118678571Y-93703571D01*
X118678571Y-94203571D01*
X118607142Y-94489285D01*
X118464285Y-94632142D01*
X118321428Y-94703571D01*
X118035714Y-94703571D01*
X117892857Y-94632142D01*
X117750000Y-94489285D01*
X117678571Y-94203571D01*
X117678571Y-93703571D01*
X117750000Y-93417857D01*
X117892857Y-93275000D01*
X118035714Y-93203571D01*
X119178571Y-93703571D02*
X119535714Y-94703571D01*
X119892857Y-93703571D01*
X121035714Y-94632142D02*
X120892857Y-94703571D01*
X120607142Y-94703571D01*
X120464285Y-94632142D01*
X120392857Y-94489285D01*
X120392857Y-93917857D01*
X120464285Y-93775000D01*
X120607142Y-93703571D01*
X120892857Y-93703571D01*
X121035714Y-93775000D01*
X121107142Y-93917857D01*
X121107142Y-94060714D01*
X120392857Y-94203571D01*
X121750000Y-93703571D02*
X121750000Y-94703571D01*
X121750000Y-93846428D02*
X121821428Y-93775000D01*
X121964285Y-93703571D01*
X122178571Y-93703571D01*
X122321428Y-93775000D01*
X122392857Y-93917857D01*
X122392857Y-94703571D01*
X107857142Y-97253571D02*
X107000000Y-97253571D01*
X107428571Y-97253571D02*
X107428571Y-95753571D01*
X107285714Y-95967857D01*
X107142857Y-96110714D01*
X107000000Y-96182142D01*
X108571428Y-97253571D02*
X108857142Y-97253571D01*
X109000000Y-97182142D01*
X109071428Y-97110714D01*
X109214285Y-96896428D01*
X109285714Y-96610714D01*
X109285714Y-96039285D01*
X109214285Y-95896428D01*
X109142857Y-95825000D01*
X109000000Y-95753571D01*
X108714285Y-95753571D01*
X108571428Y-95825000D01*
X108500000Y-95896428D01*
X108428571Y-96039285D01*
X108428571Y-96396428D01*
X108500000Y-96539285D01*
X108571428Y-96610714D01*
X108714285Y-96682142D01*
X109000000Y-96682142D01*
X109142857Y-96610714D01*
X109214285Y-96539285D01*
X109285714Y-96396428D01*
X110714285Y-97253571D02*
X109857142Y-97253571D01*
X110285714Y-97253571D02*
X110285714Y-95753571D01*
X110142857Y-95967857D01*
X110000000Y-96110714D01*
X109857142Y-96182142D01*
X111285714Y-95896428D02*
X111357142Y-95825000D01*
X111500000Y-95753571D01*
X111857142Y-95753571D01*
X112000000Y-95825000D01*
X112071428Y-95896428D01*
X112142857Y-96039285D01*
X112142857Y-96182142D01*
X112071428Y-96396428D01*
X111214285Y-97253571D01*
X112142857Y-97253571D01*
X113928571Y-96682142D02*
X115071428Y-96682142D01*
X116857142Y-96825000D02*
X117571428Y-96825000D01*
X116714285Y-97253571D02*
X117214285Y-95753571D01*
X117714285Y-97253571D01*
X118000000Y-95753571D02*
X118857142Y-95753571D01*
X118428571Y-97253571D02*
X118428571Y-95753571D01*
X119357142Y-97253571D02*
X119357142Y-95753571D01*
X119357142Y-96467857D02*
X120214285Y-96467857D01*
X120214285Y-97253571D02*
X120214285Y-95753571D01*
X120928571Y-97253571D02*
X120928571Y-95753571D01*
X122500000Y-97253571D02*
X122000000Y-96539285D01*
X121642857Y-97253571D02*
X121642857Y-95753571D01*
X122214285Y-95753571D01*
X122357142Y-95825000D01*
X122428571Y-95896428D01*
X122500000Y-96039285D01*
X122500000Y-96253571D01*
X122428571Y-96396428D01*
X122357142Y-96467857D01*
X122214285Y-96539285D01*
X121642857Y-96539285D01*
D11*
G04 #@! TO.C,R8*
X147837221Y-69060000D02*
X148162779Y-69060000D01*
X147837221Y-68040000D02*
X148162779Y-68040000D01*
G04 #@! TO.C,R9*
X142037221Y-68040000D02*
X142362779Y-68040000D01*
X142037221Y-69060000D02*
X142362779Y-69060000D01*
G04 #@! TO.C,J3*
X105090000Y-76160000D02*
X105090000Y-86320000D01*
X112710000Y-76160000D02*
X105090000Y-76160000D01*
X112710000Y-86320000D02*
X112710000Y-76160000D01*
X105090000Y-86320000D02*
X112710000Y-86320000D01*
X106360000Y-86320000D02*
X106360000Y-76160000D01*
G04 #@! TO.C,D3*
X153365000Y-73150000D02*
X153365000Y-77035000D01*
X153365000Y-77035000D02*
X155635000Y-77035000D01*
X155635000Y-77035000D02*
X155635000Y-73150000D01*
G04 #@! TO.C,D5*
X158635000Y-77035000D02*
X158635000Y-73150000D01*
X156365000Y-77035000D02*
X158635000Y-77035000D01*
X156365000Y-73150000D02*
X156365000Y-77035000D01*
G04 #@! TO.C,D4*
X159365000Y-73150000D02*
X159365000Y-77035000D01*
X159365000Y-77035000D02*
X161635000Y-77035000D01*
X161635000Y-77035000D02*
X161635000Y-73150000D01*
G04 #@! TO.C,R7*
X153412779Y-67260000D02*
X153087221Y-67260000D01*
X153412779Y-66240000D02*
X153087221Y-66240000D01*
G04 #@! TO.C,R6*
X153412779Y-64240000D02*
X153087221Y-64240000D01*
X153412779Y-65260000D02*
X153087221Y-65260000D01*
G04 #@! TO.C,R5*
X153412779Y-69260000D02*
X153087221Y-69260000D01*
X153412779Y-68240000D02*
X153087221Y-68240000D01*
G04 #@! TO.C,BZ1*
X154100000Y-83950000D02*
G75*
G03X154100000Y-83950000I-6100000J0D01*
G01*
G04 #@! TO.C,Q2*
X139911522Y-74358478D02*
G75*
G03X144350000Y-72520000I1838478J1838478D01*
G01*
X139911522Y-70681522D02*
G75*
G02X144350000Y-72520000I1838478J-1838478D01*
G01*
X139900000Y-70720000D02*
X139900000Y-74320000D01*
G04 #@! TO.C,Q1*
X146900000Y-70720000D02*
X146900000Y-74320000D01*
X146911522Y-70681522D02*
G75*
G02X151350000Y-72520000I1838478J-1838478D01*
G01*
X146911522Y-74358478D02*
G75*
G03X151350000Y-72520000I1838478J1838478D01*
G01*
G04 #@! TO.C,C1*
X115912779Y-76260000D02*
X115587221Y-76260000D01*
X115912779Y-75240000D02*
X115587221Y-75240000D01*
G04 #@! TO.C,C2*
X111912779Y-69490000D02*
X111587221Y-69490000D01*
X111912779Y-70510000D02*
X111587221Y-70510000D01*
G04 #@! TO.C,C3*
X111912779Y-72260000D02*
X111587221Y-72260000D01*
X111912779Y-71240000D02*
X111587221Y-71240000D01*
G04 #@! TO.C,J4*
X136480000Y-78670000D02*
X136480000Y-81330000D01*
X136480000Y-78670000D02*
X123720000Y-78670000D01*
X123720000Y-78670000D02*
X123720000Y-81330000D01*
X136480000Y-81330000D02*
X123720000Y-81330000D01*
X139080000Y-81330000D02*
X137750000Y-81330000D01*
X139080000Y-80000000D02*
X139080000Y-81330000D01*
G04 #@! TO.C,D2*
X131370000Y-68290000D02*
X129130000Y-68290000D01*
X131370000Y-68530000D02*
X129130000Y-68530000D01*
X131370000Y-68410000D02*
X129130000Y-68410000D01*
X130250000Y-72580000D02*
X130250000Y-71930000D01*
X130250000Y-67040000D02*
X130250000Y-67690000D01*
X131370000Y-71930000D02*
X131370000Y-67690000D01*
X129130000Y-71930000D02*
X131370000Y-71930000D01*
X129130000Y-67690000D02*
X129130000Y-71930000D01*
X131370000Y-67690000D02*
X129130000Y-67690000D01*
G04 #@! TO.C,D1*
X135870000Y-67690000D02*
X133630000Y-67690000D01*
X133630000Y-67690000D02*
X133630000Y-71930000D01*
X133630000Y-71930000D02*
X135870000Y-71930000D01*
X135870000Y-71930000D02*
X135870000Y-67690000D01*
X134750000Y-67040000D02*
X134750000Y-67690000D01*
X134750000Y-72580000D02*
X134750000Y-71930000D01*
X135870000Y-68410000D02*
X133630000Y-68410000D01*
X135870000Y-68530000D02*
X133630000Y-68530000D01*
X135870000Y-68290000D02*
X133630000Y-68290000D01*
G04 #@! TO.C,L2*
X114240000Y-78587221D02*
X114240000Y-78912779D01*
X115260000Y-78587221D02*
X115260000Y-78912779D01*
G04 #@! TO.C,L1*
X117260000Y-78587221D02*
X117260000Y-78912779D01*
X116240000Y-78587221D02*
X116240000Y-78912779D01*
D12*
G04 #@! TO.C,U1*
X116975000Y-67175000D02*
X116975000Y-67225000D01*
X121125000Y-67175000D02*
X121125000Y-67320000D01*
X121125000Y-72325000D02*
X121125000Y-72180000D01*
X116975000Y-72325000D02*
X116975000Y-72180000D01*
X116975000Y-67175000D02*
X121125000Y-67175000D01*
X116975000Y-72325000D02*
X121125000Y-72325000D01*
X116975000Y-67225000D02*
X115575000Y-67225000D01*
D11*
G04 #@! TO.C,R1*
X148260000Y-65662779D02*
X148260000Y-65337221D01*
X147240000Y-65662779D02*
X147240000Y-65337221D01*
G04 #@! TO.C,R2*
X144740000Y-65662779D02*
X144740000Y-65337221D01*
X145760000Y-65662779D02*
X145760000Y-65337221D01*
G04 #@! TO.C,R3*
X125240000Y-68837221D02*
X125240000Y-69162779D01*
X126260000Y-68837221D02*
X126260000Y-69162779D01*
G04 #@! TO.C,R4*
X128260000Y-68837221D02*
X128260000Y-69162779D01*
X127240000Y-68837221D02*
X127240000Y-69162779D01*
G04 #@! TO.C,J2*
X100360000Y-73920000D02*
X100360000Y-63760000D01*
X99090000Y-73920000D02*
X106710000Y-73920000D01*
X106710000Y-73920000D02*
X106710000Y-63760000D01*
X106710000Y-63760000D02*
X99090000Y-63760000D01*
X99090000Y-63760000D02*
X99090000Y-73920000D01*
D13*
G04 #@! TO.C,REF\002A\002A*
G36*
X114833620Y-98126594D02*
X115027030Y-98175286D01*
X115200971Y-98261332D01*
X115351260Y-98381421D01*
X115473716Y-98532243D01*
X115564155Y-98710486D01*
X115616914Y-98903967D01*
X115628668Y-99099364D01*
X115598827Y-99287920D01*
X115531126Y-99464419D01*
X115429297Y-99623645D01*
X115297075Y-99760385D01*
X115138192Y-99869422D01*
X114956383Y-99945540D01*
X114853394Y-99970498D01*
X114764001Y-99985608D01*
X114695091Y-99991579D01*
X114628876Y-99987913D01*
X114547566Y-99974113D01*
X114481078Y-99960100D01*
X114293412Y-99896800D01*
X114125319Y-99794096D01*
X113980584Y-99655102D01*
X113862993Y-99482935D01*
X113834971Y-99428214D01*
X113801949Y-99355155D01*
X113781240Y-99293803D01*
X113770059Y-99229252D01*
X113765620Y-99146599D01*
X113765061Y-99054018D01*
X113773271Y-98884549D01*
X113800221Y-98745373D01*
X113850826Y-98623582D01*
X113929998Y-98506272D01*
X114007438Y-98417349D01*
X114151864Y-98285125D01*
X114302721Y-98193855D01*
X114468962Y-98139208D01*
X114624922Y-98118567D01*
X114833620Y-98126594D01*
X114833620Y-98126594D01*
G37*
X114833620Y-98126594D02*
X115027030Y-98175286D01*
X115200971Y-98261332D01*
X115351260Y-98381421D01*
X115473716Y-98532243D01*
X115564155Y-98710486D01*
X115616914Y-98903967D01*
X115628668Y-99099364D01*
X115598827Y-99287920D01*
X115531126Y-99464419D01*
X115429297Y-99623645D01*
X115297075Y-99760385D01*
X115138192Y-99869422D01*
X114956383Y-99945540D01*
X114853394Y-99970498D01*
X114764001Y-99985608D01*
X114695091Y-99991579D01*
X114628876Y-99987913D01*
X114547566Y-99974113D01*
X114481078Y-99960100D01*
X114293412Y-99896800D01*
X114125319Y-99794096D01*
X113980584Y-99655102D01*
X113862993Y-99482935D01*
X113834971Y-99428214D01*
X113801949Y-99355155D01*
X113781240Y-99293803D01*
X113770059Y-99229252D01*
X113765620Y-99146599D01*
X113765061Y-99054018D01*
X113773271Y-98884549D01*
X113800221Y-98745373D01*
X113850826Y-98623582D01*
X113929998Y-98506272D01*
X114007438Y-98417349D01*
X114151864Y-98285125D01*
X114302721Y-98193855D01*
X114468962Y-98139208D01*
X114624922Y-98118567D01*
X114833620Y-98126594D01*
G36*
X131828251Y-103039777D02*
X131828290Y-103510705D01*
X131828342Y-103938488D01*
X131828488Y-104325338D01*
X131828805Y-104673466D01*
X131829371Y-104985085D01*
X131830265Y-105262406D01*
X131831565Y-105507640D01*
X131833349Y-105723001D01*
X131835697Y-105910700D01*
X131838685Y-106072948D01*
X131842393Y-106211957D01*
X131846899Y-106329940D01*
X131852282Y-106429109D01*
X131858619Y-106511674D01*
X131865988Y-106579848D01*
X131874470Y-106635843D01*
X131884141Y-106681870D01*
X131895079Y-106720143D01*
X131907365Y-106752871D01*
X131921075Y-106782268D01*
X131936288Y-106810544D01*
X131953083Y-106839913D01*
X131963516Y-106858207D01*
X132032352Y-106980179D01*
X130308393Y-106980179D01*
X130308393Y-106787411D01*
X130306923Y-106700296D01*
X130303002Y-106633671D01*
X130297359Y-106597950D01*
X130294864Y-106594643D01*
X130271918Y-106608472D01*
X130226286Y-106644317D01*
X130180684Y-106683239D01*
X130071027Y-106765072D01*
X129931450Y-106847445D01*
X129776659Y-106922791D01*
X129621360Y-106983543D01*
X129559380Y-107002926D01*
X129421773Y-107032188D01*
X129255331Y-107052199D01*
X129075746Y-107062331D01*
X128898713Y-107061956D01*
X128739925Y-107050445D01*
X128664197Y-107038777D01*
X128386770Y-106962314D01*
X128131031Y-106846351D01*
X127898355Y-106691942D01*
X127690119Y-106500144D01*
X127507701Y-106272012D01*
X127373501Y-106049426D01*
X127263276Y-105814872D01*
X127178900Y-105575108D01*
X127118639Y-105321996D01*
X127080759Y-105047398D01*
X127063526Y-104743174D01*
X127062066Y-104587589D01*
X127066274Y-104473527D01*
X128731909Y-104473527D01*
X128732327Y-104660495D01*
X128738179Y-104836658D01*
X128749554Y-104991506D01*
X128766540Y-105114527D01*
X128771730Y-105139319D01*
X128835616Y-105354843D01*
X128919306Y-105529670D01*
X129023498Y-105664237D01*
X129148891Y-105758983D01*
X129296185Y-105814350D01*
X129466077Y-105830774D01*
X129659267Y-105808695D01*
X129786786Y-105777111D01*
X129885511Y-105740569D01*
X129994252Y-105688642D01*
X130075938Y-105641026D01*
X130217679Y-105547877D01*
X130217679Y-103237225D01*
X130082262Y-103149701D01*
X129924510Y-103067490D01*
X129755387Y-103013951D01*
X129584379Y-102989996D01*
X129420971Y-102996539D01*
X129274647Y-103034493D01*
X129210454Y-103065770D01*
X129094088Y-103152148D01*
X128995736Y-103266199D01*
X128913060Y-103412092D01*
X128843721Y-103593992D01*
X128785380Y-103816069D01*
X128782806Y-103827857D01*
X128762374Y-103952921D01*
X128747021Y-104109229D01*
X128736837Y-104286268D01*
X128731909Y-104473527D01*
X127066274Y-104473527D01*
X127077839Y-104160058D01*
X127121924Y-103766637D01*
X127194214Y-103407587D01*
X127294606Y-103083170D01*
X127422995Y-102793646D01*
X127579278Y-102539276D01*
X127763350Y-102320321D01*
X127975107Y-102137042D01*
X128065839Y-102074864D01*
X128268638Y-101962068D01*
X128476141Y-101882492D01*
X128697300Y-101833957D01*
X128941066Y-101814280D01*
X129126903Y-101816380D01*
X129387369Y-101838410D01*
X129613562Y-101882236D01*
X129812027Y-101949872D01*
X129989306Y-102043331D01*
X130087473Y-102112060D01*
X130146468Y-102156085D01*
X130190043Y-102186160D01*
X130206536Y-102195000D01*
X130209780Y-102173245D01*
X130212373Y-102111665D01*
X130214340Y-102015788D01*
X130215705Y-101891141D01*
X130216495Y-101743250D01*
X130216735Y-101577644D01*
X130216450Y-101399849D01*
X130215665Y-101215393D01*
X130214406Y-101029803D01*
X130212698Y-100848606D01*
X130210567Y-100677330D01*
X130208037Y-100521501D01*
X130205135Y-100386648D01*
X130201886Y-100278297D01*
X130198315Y-100201975D01*
X130197327Y-100187946D01*
X130182105Y-100046486D01*
X130158879Y-99935696D01*
X130123243Y-99841032D01*
X130070791Y-99747952D01*
X130058201Y-99728705D01*
X130009118Y-99655000D01*
X131827857Y-99655000D01*
X131828251Y-103039777D01*
X131828251Y-103039777D01*
G37*
X131828251Y-103039777D02*
X131828290Y-103510705D01*
X131828342Y-103938488D01*
X131828488Y-104325338D01*
X131828805Y-104673466D01*
X131829371Y-104985085D01*
X131830265Y-105262406D01*
X131831565Y-105507640D01*
X131833349Y-105723001D01*
X131835697Y-105910700D01*
X131838685Y-106072948D01*
X131842393Y-106211957D01*
X131846899Y-106329940D01*
X131852282Y-106429109D01*
X131858619Y-106511674D01*
X131865988Y-106579848D01*
X131874470Y-106635843D01*
X131884141Y-106681870D01*
X131895079Y-106720143D01*
X131907365Y-106752871D01*
X131921075Y-106782268D01*
X131936288Y-106810544D01*
X131953083Y-106839913D01*
X131963516Y-106858207D01*
X132032352Y-106980179D01*
X130308393Y-106980179D01*
X130308393Y-106787411D01*
X130306923Y-106700296D01*
X130303002Y-106633671D01*
X130297359Y-106597950D01*
X130294864Y-106594643D01*
X130271918Y-106608472D01*
X130226286Y-106644317D01*
X130180684Y-106683239D01*
X130071027Y-106765072D01*
X129931450Y-106847445D01*
X129776659Y-106922791D01*
X129621360Y-106983543D01*
X129559380Y-107002926D01*
X129421773Y-107032188D01*
X129255331Y-107052199D01*
X129075746Y-107062331D01*
X128898713Y-107061956D01*
X128739925Y-107050445D01*
X128664197Y-107038777D01*
X128386770Y-106962314D01*
X128131031Y-106846351D01*
X127898355Y-106691942D01*
X127690119Y-106500144D01*
X127507701Y-106272012D01*
X127373501Y-106049426D01*
X127263276Y-105814872D01*
X127178900Y-105575108D01*
X127118639Y-105321996D01*
X127080759Y-105047398D01*
X127063526Y-104743174D01*
X127062066Y-104587589D01*
X127066274Y-104473527D01*
X128731909Y-104473527D01*
X128732327Y-104660495D01*
X128738179Y-104836658D01*
X128749554Y-104991506D01*
X128766540Y-105114527D01*
X128771730Y-105139319D01*
X128835616Y-105354843D01*
X128919306Y-105529670D01*
X129023498Y-105664237D01*
X129148891Y-105758983D01*
X129296185Y-105814350D01*
X129466077Y-105830774D01*
X129659267Y-105808695D01*
X129786786Y-105777111D01*
X129885511Y-105740569D01*
X129994252Y-105688642D01*
X130075938Y-105641026D01*
X130217679Y-105547877D01*
X130217679Y-103237225D01*
X130082262Y-103149701D01*
X129924510Y-103067490D01*
X129755387Y-103013951D01*
X129584379Y-102989996D01*
X129420971Y-102996539D01*
X129274647Y-103034493D01*
X129210454Y-103065770D01*
X129094088Y-103152148D01*
X128995736Y-103266199D01*
X128913060Y-103412092D01*
X128843721Y-103593992D01*
X128785380Y-103816069D01*
X128782806Y-103827857D01*
X128762374Y-103952921D01*
X128747021Y-104109229D01*
X128736837Y-104286268D01*
X128731909Y-104473527D01*
X127066274Y-104473527D01*
X127077839Y-104160058D01*
X127121924Y-103766637D01*
X127194214Y-103407587D01*
X127294606Y-103083170D01*
X127422995Y-102793646D01*
X127579278Y-102539276D01*
X127763350Y-102320321D01*
X127975107Y-102137042D01*
X128065839Y-102074864D01*
X128268638Y-101962068D01*
X128476141Y-101882492D01*
X128697300Y-101833957D01*
X128941066Y-101814280D01*
X129126903Y-101816380D01*
X129387369Y-101838410D01*
X129613562Y-101882236D01*
X129812027Y-101949872D01*
X129989306Y-102043331D01*
X130087473Y-102112060D01*
X130146468Y-102156085D01*
X130190043Y-102186160D01*
X130206536Y-102195000D01*
X130209780Y-102173245D01*
X130212373Y-102111665D01*
X130214340Y-102015788D01*
X130215705Y-101891141D01*
X130216495Y-101743250D01*
X130216735Y-101577644D01*
X130216450Y-101399849D01*
X130215665Y-101215393D01*
X130214406Y-101029803D01*
X130212698Y-100848606D01*
X130210567Y-100677330D01*
X130208037Y-100521501D01*
X130205135Y-100386648D01*
X130201886Y-100278297D01*
X130198315Y-100201975D01*
X130197327Y-100187946D01*
X130182105Y-100046486D01*
X130158879Y-99935696D01*
X130123243Y-99841032D01*
X130070791Y-99747952D01*
X130058201Y-99728705D01*
X130009118Y-99655000D01*
X131827857Y-99655000D01*
X131828251Y-103039777D01*
G36*
X124771019Y-101822984D02*
X125076212Y-101863192D01*
X125347948Y-101930762D01*
X125587981Y-102026233D01*
X125798066Y-102150143D01*
X125953978Y-102277831D01*
X126092274Y-102426761D01*
X126200236Y-102587017D01*
X126286427Y-102772281D01*
X126317514Y-102858805D01*
X126343347Y-102937115D01*
X126365851Y-103009732D01*
X126385286Y-103080336D01*
X126401912Y-103152610D01*
X126415989Y-103230234D01*
X126427779Y-103316890D01*
X126437540Y-103416259D01*
X126445535Y-103532022D01*
X126452022Y-103667861D01*
X126457264Y-103827457D01*
X126461519Y-104014491D01*
X126465048Y-104232644D01*
X126468112Y-104485598D01*
X126470972Y-104777033D01*
X126473487Y-105063839D01*
X126476152Y-105377615D01*
X126478574Y-105649364D01*
X126481004Y-105882413D01*
X126483695Y-106080090D01*
X126486899Y-106245722D01*
X126490866Y-106382636D01*
X126495851Y-106494160D01*
X126502103Y-106583622D01*
X126509876Y-106654348D01*
X126519420Y-106709666D01*
X126530989Y-106752903D01*
X126544834Y-106787388D01*
X126561207Y-106816446D01*
X126580359Y-106843406D01*
X126602543Y-106871594D01*
X126611183Y-106882509D01*
X126642963Y-106928390D01*
X126657098Y-106959635D01*
X126657143Y-106960558D01*
X126635292Y-106964975D01*
X126573044Y-106969045D01*
X126475361Y-106972652D01*
X126347204Y-106975683D01*
X126193532Y-106978023D01*
X126019307Y-106979558D01*
X125829490Y-106980172D01*
X125807580Y-106980179D01*
X124958016Y-106980179D01*
X124951464Y-106787188D01*
X124944911Y-106594197D01*
X124820179Y-106696627D01*
X124624650Y-106832257D01*
X124403866Y-106942129D01*
X124230165Y-107002857D01*
X124091407Y-107032365D01*
X123923958Y-107052440D01*
X123743624Y-107062458D01*
X123566207Y-107061790D01*
X123407513Y-107049812D01*
X123334732Y-107038334D01*
X123053445Y-106962272D01*
X122799465Y-106852096D01*
X122574629Y-106709446D01*
X122380774Y-106535962D01*
X122219734Y-106333284D01*
X122093346Y-106103054D01*
X122004199Y-105849745D01*
X121979420Y-105736073D01*
X121964133Y-105611119D01*
X121956843Y-105460774D01*
X121955849Y-105392679D01*
X121955980Y-105386280D01*
X123482641Y-105386280D01*
X123501312Y-105537053D01*
X123557937Y-105665277D01*
X123655307Y-105777050D01*
X123665466Y-105785914D01*
X123762486Y-105855879D01*
X123866365Y-105901244D01*
X123988371Y-105925192D01*
X124139770Y-105930904D01*
X124176147Y-105930090D01*
X124284264Y-105924761D01*
X124364681Y-105913880D01*
X124435027Y-105893462D01*
X124512931Y-105859520D01*
X124534310Y-105849117D01*
X124656154Y-105777141D01*
X124750209Y-105691496D01*
X124775797Y-105660884D01*
X124865536Y-105547356D01*
X124865536Y-105153855D01*
X124864460Y-104995860D01*
X124861065Y-104879441D01*
X124855102Y-104800865D01*
X124846321Y-104756399D01*
X124838115Y-104743408D01*
X124806122Y-104737052D01*
X124738254Y-104731784D01*
X124643987Y-104728101D01*
X124532800Y-104726499D01*
X124514945Y-104726469D01*
X124272316Y-104737023D01*
X124066059Y-104769502D01*
X123892179Y-104825145D01*
X123746681Y-104905195D01*
X123636331Y-104999514D01*
X123546839Y-105115804D01*
X123497170Y-105242463D01*
X123482641Y-105386280D01*
X121955980Y-105386280D01*
X121959733Y-105204331D01*
X121976496Y-105045828D01*
X122009133Y-104902747D01*
X122060635Y-104760665D01*
X122108842Y-104655454D01*
X122226603Y-104464009D01*
X122383494Y-104287171D01*
X122574741Y-104128160D01*
X122795569Y-103990192D01*
X123041205Y-103876488D01*
X123306874Y-103790265D01*
X123436786Y-103760253D01*
X123710365Y-103715846D01*
X124008582Y-103686549D01*
X124312846Y-103673731D01*
X124567093Y-103677010D01*
X124892312Y-103690629D01*
X124877406Y-103572145D01*
X124838648Y-103372953D01*
X124776103Y-103210792D01*
X124688041Y-103084418D01*
X124572732Y-102992590D01*
X124428446Y-102934063D01*
X124253453Y-102907594D01*
X124046022Y-102911941D01*
X123969732Y-102919979D01*
X123686091Y-102970539D01*
X123411243Y-103052974D01*
X123221340Y-103129316D01*
X123130617Y-103168238D01*
X123053409Y-103199518D01*
X123000471Y-103218893D01*
X122985026Y-103223007D01*
X122965450Y-103204769D01*
X122931864Y-103146571D01*
X122883950Y-103047757D01*
X122821393Y-102907669D01*
X122743877Y-102725649D01*
X122730623Y-102693929D01*
X122670242Y-102548649D01*
X122616042Y-102417371D01*
X122570364Y-102305837D01*
X122535548Y-102219787D01*
X122513936Y-102164961D01*
X122507695Y-102147204D01*
X122527782Y-102137652D01*
X122580570Y-102127051D01*
X122637366Y-102119659D01*
X122697950Y-102110103D01*
X122793951Y-102091128D01*
X122916856Y-102064594D01*
X123058150Y-102032361D01*
X123209320Y-101996289D01*
X123266697Y-101982182D01*
X123477757Y-101930777D01*
X123653867Y-101890473D01*
X123803709Y-101859982D01*
X123935967Y-101838016D01*
X124059324Y-101823289D01*
X124182460Y-101814511D01*
X124314061Y-101810397D01*
X124430614Y-101809598D01*
X124771019Y-101822984D01*
X124771019Y-101822984D01*
G37*
X124771019Y-101822984D02*
X125076212Y-101863192D01*
X125347948Y-101930762D01*
X125587981Y-102026233D01*
X125798066Y-102150143D01*
X125953978Y-102277831D01*
X126092274Y-102426761D01*
X126200236Y-102587017D01*
X126286427Y-102772281D01*
X126317514Y-102858805D01*
X126343347Y-102937115D01*
X126365851Y-103009732D01*
X126385286Y-103080336D01*
X126401912Y-103152610D01*
X126415989Y-103230234D01*
X126427779Y-103316890D01*
X126437540Y-103416259D01*
X126445535Y-103532022D01*
X126452022Y-103667861D01*
X126457264Y-103827457D01*
X126461519Y-104014491D01*
X126465048Y-104232644D01*
X126468112Y-104485598D01*
X126470972Y-104777033D01*
X126473487Y-105063839D01*
X126476152Y-105377615D01*
X126478574Y-105649364D01*
X126481004Y-105882413D01*
X126483695Y-106080090D01*
X126486899Y-106245722D01*
X126490866Y-106382636D01*
X126495851Y-106494160D01*
X126502103Y-106583622D01*
X126509876Y-106654348D01*
X126519420Y-106709666D01*
X126530989Y-106752903D01*
X126544834Y-106787388D01*
X126561207Y-106816446D01*
X126580359Y-106843406D01*
X126602543Y-106871594D01*
X126611183Y-106882509D01*
X126642963Y-106928390D01*
X126657098Y-106959635D01*
X126657143Y-106960558D01*
X126635292Y-106964975D01*
X126573044Y-106969045D01*
X126475361Y-106972652D01*
X126347204Y-106975683D01*
X126193532Y-106978023D01*
X126019307Y-106979558D01*
X125829490Y-106980172D01*
X125807580Y-106980179D01*
X124958016Y-106980179D01*
X124951464Y-106787188D01*
X124944911Y-106594197D01*
X124820179Y-106696627D01*
X124624650Y-106832257D01*
X124403866Y-106942129D01*
X124230165Y-107002857D01*
X124091407Y-107032365D01*
X123923958Y-107052440D01*
X123743624Y-107062458D01*
X123566207Y-107061790D01*
X123407513Y-107049812D01*
X123334732Y-107038334D01*
X123053445Y-106962272D01*
X122799465Y-106852096D01*
X122574629Y-106709446D01*
X122380774Y-106535962D01*
X122219734Y-106333284D01*
X122093346Y-106103054D01*
X122004199Y-105849745D01*
X121979420Y-105736073D01*
X121964133Y-105611119D01*
X121956843Y-105460774D01*
X121955849Y-105392679D01*
X121955980Y-105386280D01*
X123482641Y-105386280D01*
X123501312Y-105537053D01*
X123557937Y-105665277D01*
X123655307Y-105777050D01*
X123665466Y-105785914D01*
X123762486Y-105855879D01*
X123866365Y-105901244D01*
X123988371Y-105925192D01*
X124139770Y-105930904D01*
X124176147Y-105930090D01*
X124284264Y-105924761D01*
X124364681Y-105913880D01*
X124435027Y-105893462D01*
X124512931Y-105859520D01*
X124534310Y-105849117D01*
X124656154Y-105777141D01*
X124750209Y-105691496D01*
X124775797Y-105660884D01*
X124865536Y-105547356D01*
X124865536Y-105153855D01*
X124864460Y-104995860D01*
X124861065Y-104879441D01*
X124855102Y-104800865D01*
X124846321Y-104756399D01*
X124838115Y-104743408D01*
X124806122Y-104737052D01*
X124738254Y-104731784D01*
X124643987Y-104728101D01*
X124532800Y-104726499D01*
X124514945Y-104726469D01*
X124272316Y-104737023D01*
X124066059Y-104769502D01*
X123892179Y-104825145D01*
X123746681Y-104905195D01*
X123636331Y-104999514D01*
X123546839Y-105115804D01*
X123497170Y-105242463D01*
X123482641Y-105386280D01*
X121955980Y-105386280D01*
X121959733Y-105204331D01*
X121976496Y-105045828D01*
X122009133Y-104902747D01*
X122060635Y-104760665D01*
X122108842Y-104655454D01*
X122226603Y-104464009D01*
X122383494Y-104287171D01*
X122574741Y-104128160D01*
X122795569Y-103990192D01*
X123041205Y-103876488D01*
X123306874Y-103790265D01*
X123436786Y-103760253D01*
X123710365Y-103715846D01*
X124008582Y-103686549D01*
X124312846Y-103673731D01*
X124567093Y-103677010D01*
X124892312Y-103690629D01*
X124877406Y-103572145D01*
X124838648Y-103372953D01*
X124776103Y-103210792D01*
X124688041Y-103084418D01*
X124572732Y-102992590D01*
X124428446Y-102934063D01*
X124253453Y-102907594D01*
X124046022Y-102911941D01*
X123969732Y-102919979D01*
X123686091Y-102970539D01*
X123411243Y-103052974D01*
X123221340Y-103129316D01*
X123130617Y-103168238D01*
X123053409Y-103199518D01*
X123000471Y-103218893D01*
X122985026Y-103223007D01*
X122965450Y-103204769D01*
X122931864Y-103146571D01*
X122883950Y-103047757D01*
X122821393Y-102907669D01*
X122743877Y-102725649D01*
X122730623Y-102693929D01*
X122670242Y-102548649D01*
X122616042Y-102417371D01*
X122570364Y-102305837D01*
X122535548Y-102219787D01*
X122513936Y-102164961D01*
X122507695Y-102147204D01*
X122527782Y-102137652D01*
X122580570Y-102127051D01*
X122637366Y-102119659D01*
X122697950Y-102110103D01*
X122793951Y-102091128D01*
X122916856Y-102064594D01*
X123058150Y-102032361D01*
X123209320Y-101996289D01*
X123266697Y-101982182D01*
X123477757Y-101930777D01*
X123653867Y-101890473D01*
X123803709Y-101859982D01*
X123935967Y-101838016D01*
X124059324Y-101823289D01*
X124182460Y-101814511D01*
X124314061Y-101810397D01*
X124430614Y-101809598D01*
X124771019Y-101822984D01*
G36*
X120059791Y-99979830D02*
X120381503Y-100022366D01*
X120710847Y-100103005D01*
X121051969Y-100222544D01*
X121409015Y-100381783D01*
X121431651Y-100392922D01*
X121547556Y-100449223D01*
X121651111Y-100497593D01*
X121734760Y-100534652D01*
X121790951Y-100557025D01*
X121810179Y-100562143D01*
X121848784Y-100572203D01*
X121858048Y-100580652D01*
X121847796Y-100601611D01*
X121815573Y-100654422D01*
X121765088Y-100733551D01*
X121700051Y-100833463D01*
X121624172Y-100948625D01*
X121541161Y-101073501D01*
X121454729Y-101202558D01*
X121368583Y-101330261D01*
X121286436Y-101451076D01*
X121211996Y-101559469D01*
X121148974Y-101649905D01*
X121101079Y-101716851D01*
X121072021Y-101754771D01*
X121068033Y-101759169D01*
X121047706Y-101749831D01*
X121002825Y-101715324D01*
X120941411Y-101662045D01*
X120909783Y-101632963D01*
X120715943Y-101481728D01*
X120501569Y-101370351D01*
X120269529Y-101299836D01*
X120022692Y-101271188D01*
X119883272Y-101273540D01*
X119639913Y-101308015D01*
X119420502Y-101380100D01*
X119224385Y-101490320D01*
X119050905Y-101639203D01*
X118899407Y-101827275D01*
X118769234Y-102055064D01*
X118694065Y-102229018D01*
X118605968Y-102501629D01*
X118541039Y-102797913D01*
X118499110Y-103110229D01*
X118480013Y-103430938D01*
X118483582Y-103752400D01*
X118509649Y-104066975D01*
X118558047Y-104367022D01*
X118628609Y-104644901D01*
X118721167Y-104892973D01*
X118753876Y-104961786D01*
X118890978Y-105190977D01*
X119052616Y-105384824D01*
X119236415Y-105541748D01*
X119440001Y-105660168D01*
X119661001Y-105738506D01*
X119897040Y-105775181D01*
X119980346Y-105777879D01*
X120224548Y-105755940D01*
X120466498Y-105690014D01*
X120703125Y-105581463D01*
X120931362Y-105431648D01*
X121114993Y-105274296D01*
X121208469Y-105184837D01*
X121572623Y-105782017D01*
X121663221Y-105931004D01*
X121746065Y-106068039D01*
X121818218Y-106188199D01*
X121876741Y-106286558D01*
X121918695Y-106358194D01*
X121941142Y-106398182D01*
X121944059Y-106404399D01*
X121927527Y-106423764D01*
X121876141Y-106458479D01*
X121796398Y-106505256D01*
X121694794Y-106560805D01*
X121577828Y-106621839D01*
X121451996Y-106685070D01*
X121323794Y-106747209D01*
X121199720Y-106804968D01*
X121086271Y-106855060D01*
X120989944Y-106894196D01*
X120942830Y-106911130D01*
X120674105Y-106987097D01*
X120397086Y-107037326D01*
X120100357Y-107063450D01*
X119845648Y-107068127D01*
X119709130Y-107065928D01*
X119577342Y-107061714D01*
X119461969Y-107056005D01*
X119374695Y-107049320D01*
X119346359Y-107045938D01*
X119067088Y-106988010D01*
X118782771Y-106897368D01*
X118506579Y-106779408D01*
X118251686Y-106639527D01*
X118095982Y-106533697D01*
X117840030Y-106316328D01*
X117602368Y-106062063D01*
X117387399Y-105777187D01*
X117199525Y-105467982D01*
X117043147Y-105140731D01*
X116955046Y-104905089D01*
X116854102Y-104536195D01*
X116786806Y-104145364D01*
X116753135Y-103741055D01*
X116753069Y-103331722D01*
X116786588Y-102925823D01*
X116853669Y-102531814D01*
X116954292Y-102158152D01*
X116961959Y-102134872D01*
X117088287Y-101809318D01*
X117242467Y-101512163D01*
X117429728Y-101234996D01*
X117655301Y-100969408D01*
X117743423Y-100878479D01*
X118016923Y-100629489D01*
X118298085Y-100423489D01*
X118591227Y-100258237D01*
X118900665Y-100131490D01*
X119230713Y-100041005D01*
X119422679Y-100005869D01*
X119741565Y-99974597D01*
X120059791Y-99979830D01*
X120059791Y-99979830D01*
G37*
X120059791Y-99979830D02*
X120381503Y-100022366D01*
X120710847Y-100103005D01*
X121051969Y-100222544D01*
X121409015Y-100381783D01*
X121431651Y-100392922D01*
X121547556Y-100449223D01*
X121651111Y-100497593D01*
X121734760Y-100534652D01*
X121790951Y-100557025D01*
X121810179Y-100562143D01*
X121848784Y-100572203D01*
X121858048Y-100580652D01*
X121847796Y-100601611D01*
X121815573Y-100654422D01*
X121765088Y-100733551D01*
X121700051Y-100833463D01*
X121624172Y-100948625D01*
X121541161Y-101073501D01*
X121454729Y-101202558D01*
X121368583Y-101330261D01*
X121286436Y-101451076D01*
X121211996Y-101559469D01*
X121148974Y-101649905D01*
X121101079Y-101716851D01*
X121072021Y-101754771D01*
X121068033Y-101759169D01*
X121047706Y-101749831D01*
X121002825Y-101715324D01*
X120941411Y-101662045D01*
X120909783Y-101632963D01*
X120715943Y-101481728D01*
X120501569Y-101370351D01*
X120269529Y-101299836D01*
X120022692Y-101271188D01*
X119883272Y-101273540D01*
X119639913Y-101308015D01*
X119420502Y-101380100D01*
X119224385Y-101490320D01*
X119050905Y-101639203D01*
X118899407Y-101827275D01*
X118769234Y-102055064D01*
X118694065Y-102229018D01*
X118605968Y-102501629D01*
X118541039Y-102797913D01*
X118499110Y-103110229D01*
X118480013Y-103430938D01*
X118483582Y-103752400D01*
X118509649Y-104066975D01*
X118558047Y-104367022D01*
X118628609Y-104644901D01*
X118721167Y-104892973D01*
X118753876Y-104961786D01*
X118890978Y-105190977D01*
X119052616Y-105384824D01*
X119236415Y-105541748D01*
X119440001Y-105660168D01*
X119661001Y-105738506D01*
X119897040Y-105775181D01*
X119980346Y-105777879D01*
X120224548Y-105755940D01*
X120466498Y-105690014D01*
X120703125Y-105581463D01*
X120931362Y-105431648D01*
X121114993Y-105274296D01*
X121208469Y-105184837D01*
X121572623Y-105782017D01*
X121663221Y-105931004D01*
X121746065Y-106068039D01*
X121818218Y-106188199D01*
X121876741Y-106286558D01*
X121918695Y-106358194D01*
X121941142Y-106398182D01*
X121944059Y-106404399D01*
X121927527Y-106423764D01*
X121876141Y-106458479D01*
X121796398Y-106505256D01*
X121694794Y-106560805D01*
X121577828Y-106621839D01*
X121451996Y-106685070D01*
X121323794Y-106747209D01*
X121199720Y-106804968D01*
X121086271Y-106855060D01*
X120989944Y-106894196D01*
X120942830Y-106911130D01*
X120674105Y-106987097D01*
X120397086Y-107037326D01*
X120100357Y-107063450D01*
X119845648Y-107068127D01*
X119709130Y-107065928D01*
X119577342Y-107061714D01*
X119461969Y-107056005D01*
X119374695Y-107049320D01*
X119346359Y-107045938D01*
X119067088Y-106988010D01*
X118782771Y-106897368D01*
X118506579Y-106779408D01*
X118251686Y-106639527D01*
X118095982Y-106533697D01*
X117840030Y-106316328D01*
X117602368Y-106062063D01*
X117387399Y-105777187D01*
X117199525Y-105467982D01*
X117043147Y-105140731D01*
X116955046Y-104905089D01*
X116854102Y-104536195D01*
X116786806Y-104145364D01*
X116753135Y-103741055D01*
X116753069Y-103331722D01*
X116786588Y-102925823D01*
X116853669Y-102531814D01*
X116954292Y-102158152D01*
X116961959Y-102134872D01*
X117088287Y-101809318D01*
X117242467Y-101512163D01*
X117429728Y-101234996D01*
X117655301Y-100969408D01*
X117743423Y-100878479D01*
X118016923Y-100629489D01*
X118298085Y-100423489D01*
X118591227Y-100258237D01*
X118900665Y-100131490D01*
X119230713Y-100041005D01*
X119422679Y-100005869D01*
X119741565Y-99974597D01*
X120059791Y-99979830D01*
G36*
X113480893Y-99055689D02*
X113502720Y-99284585D01*
X113566237Y-99500791D01*
X113668497Y-99699673D01*
X113806554Y-99876597D01*
X113977462Y-100026929D01*
X114172302Y-100143181D01*
X114385788Y-100222777D01*
X114600771Y-100260080D01*
X114813014Y-100257791D01*
X115018276Y-100218609D01*
X115212320Y-100145234D01*
X115390907Y-100040368D01*
X115549796Y-99906708D01*
X115684750Y-99746957D01*
X115791529Y-99563814D01*
X115865895Y-99359978D01*
X115903608Y-99138151D01*
X115907500Y-99037914D01*
X115907500Y-98861250D01*
X116011822Y-98861250D01*
X116084761Y-98866965D01*
X116138796Y-98890669D01*
X116193250Y-98938357D01*
X116270357Y-99015464D01*
X116270357Y-103418173D01*
X116270339Y-103944789D01*
X116270274Y-104427939D01*
X116270146Y-104869515D01*
X116269938Y-105271409D01*
X116269634Y-105635512D01*
X116269217Y-105963715D01*
X116268672Y-106257911D01*
X116267981Y-106519990D01*
X116267128Y-106751845D01*
X116266098Y-106955366D01*
X116264873Y-107132446D01*
X116263437Y-107284976D01*
X116261774Y-107414847D01*
X116259867Y-107523951D01*
X116257701Y-107614179D01*
X116255258Y-107687424D01*
X116252522Y-107745576D01*
X116249477Y-107790528D01*
X116246107Y-107824170D01*
X116242394Y-107848395D01*
X116238324Y-107865093D01*
X116233878Y-107876157D01*
X116231704Y-107879874D01*
X116223341Y-107893960D01*
X116216240Y-107906911D01*
X116208547Y-107918772D01*
X116198407Y-107929593D01*
X116183966Y-107939420D01*
X116163369Y-107948300D01*
X116134761Y-107956282D01*
X116096289Y-107963412D01*
X116046097Y-107969738D01*
X115982331Y-107975308D01*
X115903136Y-107980168D01*
X115806658Y-107984366D01*
X115691042Y-107987950D01*
X115554435Y-107990968D01*
X115394980Y-107993465D01*
X115210825Y-107995490D01*
X115000114Y-107997091D01*
X114760992Y-107998314D01*
X114491605Y-107999208D01*
X114190100Y-107999819D01*
X113854620Y-108000194D01*
X113483312Y-108000383D01*
X113074321Y-108000431D01*
X112625792Y-108000386D01*
X112135872Y-108000295D01*
X111602705Y-108000207D01*
X111525595Y-108000198D01*
X110989255Y-108000111D01*
X110496425Y-107999969D01*
X110045258Y-107999758D01*
X109633907Y-107999462D01*
X109260524Y-107999067D01*
X108923262Y-107998559D01*
X108620275Y-107997924D01*
X108349714Y-107997146D01*
X108109733Y-107996211D01*
X107898485Y-107995105D01*
X107714122Y-107993813D01*
X107554798Y-107992320D01*
X107418665Y-107990613D01*
X107303875Y-107988676D01*
X107208583Y-107986496D01*
X107130940Y-107984057D01*
X107069100Y-107981345D01*
X107021215Y-107978346D01*
X106985438Y-107975045D01*
X106959922Y-107971427D01*
X106942819Y-107967479D01*
X106934065Y-107964127D01*
X106917065Y-107956954D01*
X106901458Y-107951659D01*
X106887184Y-107946362D01*
X106874184Y-107939188D01*
X106862400Y-107928256D01*
X106851772Y-107911691D01*
X106842241Y-107887614D01*
X106833747Y-107854147D01*
X106826231Y-107809413D01*
X106819634Y-107751533D01*
X106813896Y-107678631D01*
X106808960Y-107588828D01*
X106804764Y-107480246D01*
X106801250Y-107351007D01*
X106798359Y-107199235D01*
X106796032Y-107023050D01*
X106794209Y-106820576D01*
X106792830Y-106589935D01*
X106791838Y-106329248D01*
X106791172Y-106036638D01*
X106790773Y-105710227D01*
X106790583Y-105348138D01*
X106790541Y-104948492D01*
X106790588Y-104509412D01*
X106790666Y-104029020D01*
X106790714Y-103505438D01*
X106790715Y-103420759D01*
X106790687Y-102892618D01*
X106790637Y-102407943D01*
X106790615Y-101964841D01*
X106790674Y-101561421D01*
X106790864Y-101195791D01*
X106791237Y-100866060D01*
X106791846Y-100570334D01*
X106792740Y-100306724D01*
X106793904Y-100085893D01*
X107402284Y-100085893D01*
X107482219Y-100202098D01*
X107504660Y-100233775D01*
X107524891Y-100261823D01*
X107543027Y-100288628D01*
X107559180Y-100316571D01*
X107573466Y-100348036D01*
X107585999Y-100385406D01*
X107596893Y-100431066D01*
X107606261Y-100487399D01*
X107614218Y-100556787D01*
X107620878Y-100641614D01*
X107626356Y-100744264D01*
X107630764Y-100867120D01*
X107634218Y-101012566D01*
X107636832Y-101182984D01*
X107638719Y-101380759D01*
X107639994Y-101608274D01*
X107640770Y-101867911D01*
X107641163Y-102162055D01*
X107641286Y-102493090D01*
X107641253Y-102863397D01*
X107641178Y-103275361D01*
X107641161Y-103521696D01*
X107641209Y-103957532D01*
X107641277Y-104350396D01*
X107641253Y-104702675D01*
X107641023Y-105016756D01*
X107640475Y-105295025D01*
X107639496Y-105539867D01*
X107637972Y-105753669D01*
X107635791Y-105938817D01*
X107632840Y-106097696D01*
X107629006Y-106232694D01*
X107624175Y-106346196D01*
X107618235Y-106440588D01*
X107611074Y-106518257D01*
X107602577Y-106581588D01*
X107592632Y-106632968D01*
X107581127Y-106674783D01*
X107567947Y-106709418D01*
X107552981Y-106739261D01*
X107536115Y-106766696D01*
X107517236Y-106794111D01*
X107496232Y-106823891D01*
X107483996Y-106841752D01*
X107406103Y-106957500D01*
X108473977Y-106957500D01*
X108721575Y-106957430D01*
X108927482Y-106957128D01*
X109095363Y-106956452D01*
X109228884Y-106955261D01*
X109331710Y-106953415D01*
X109407508Y-106950772D01*
X109459943Y-106947193D01*
X109492680Y-106942535D01*
X109509386Y-106936659D01*
X109513725Y-106929423D01*
X109509364Y-106920686D01*
X109506961Y-106917812D01*
X109456437Y-106843339D01*
X109404410Y-106737265D01*
X109356981Y-106612708D01*
X109340369Y-106559646D01*
X109331094Y-106523603D01*
X109323256Y-106481293D01*
X109316690Y-106428526D01*
X109311231Y-106361113D01*
X109306712Y-106274863D01*
X109302970Y-106165588D01*
X109299839Y-106029098D01*
X109297155Y-105861203D01*
X109294751Y-105657714D01*
X109292463Y-105414441D01*
X109291705Y-105324643D01*
X109289663Y-105073223D01*
X109288139Y-104863557D01*
X109287250Y-104692046D01*
X109287114Y-104555088D01*
X109287848Y-104449082D01*
X109289570Y-104370429D01*
X109292396Y-104315527D01*
X109296445Y-104280776D01*
X109301834Y-104262575D01*
X109308679Y-104257323D01*
X109317099Y-104261420D01*
X109326087Y-104270089D01*
X109346889Y-104296075D01*
X109391202Y-104354483D01*
X109455891Y-104441033D01*
X109537821Y-104551443D01*
X109633856Y-104681430D01*
X109740861Y-104826714D01*
X109855701Y-104983013D01*
X109975240Y-105146045D01*
X110096342Y-105311529D01*
X110215873Y-105475183D01*
X110330696Y-105632725D01*
X110437678Y-105779874D01*
X110533682Y-105912349D01*
X110615572Y-106025866D01*
X110680214Y-106116146D01*
X110724472Y-106178907D01*
X110733649Y-106192231D01*
X110779697Y-106266366D01*
X110833553Y-106362774D01*
X110884577Y-106462292D01*
X110891047Y-106475713D01*
X110934596Y-106572534D01*
X110959881Y-106647992D01*
X110971392Y-106719963D01*
X110973638Y-106804420D01*
X110972365Y-106957500D01*
X113291550Y-106957500D01*
X113108409Y-106769201D01*
X113014397Y-106668967D01*
X112913373Y-106555504D01*
X112820873Y-106446480D01*
X112779840Y-106395549D01*
X112718691Y-106316105D01*
X112638225Y-106209207D01*
X112540793Y-106078126D01*
X112428748Y-105926138D01*
X112304443Y-105756516D01*
X112170231Y-105572532D01*
X112028464Y-105377462D01*
X111881495Y-105174577D01*
X111731678Y-104967153D01*
X111581364Y-104758462D01*
X111432906Y-104551779D01*
X111288658Y-104350376D01*
X111150971Y-104157527D01*
X111022199Y-103976506D01*
X110904694Y-103810586D01*
X110800810Y-103663041D01*
X110712898Y-103537145D01*
X110643312Y-103436171D01*
X110594405Y-103363393D01*
X110568528Y-103322084D01*
X110564996Y-103313843D01*
X110580986Y-103291089D01*
X110622761Y-103236486D01*
X110687584Y-103153451D01*
X110772716Y-103045400D01*
X110875419Y-102915749D01*
X110992955Y-102767914D01*
X111122584Y-102605312D01*
X111261568Y-102431360D01*
X111407170Y-102249472D01*
X111556650Y-102063066D01*
X111676642Y-101913687D01*
X113707679Y-101913687D01*
X113719551Y-101939717D01*
X113748338Y-101984414D01*
X113750442Y-101987392D01*
X113788184Y-102047967D01*
X113827653Y-102121959D01*
X113835486Y-102138304D01*
X113842590Y-102155237D01*
X113848868Y-102175565D01*
X113854382Y-102202086D01*
X113859191Y-102237598D01*
X113863356Y-102284901D01*
X113866939Y-102346794D01*
X113869999Y-102426074D01*
X113872596Y-102525541D01*
X113874792Y-102647993D01*
X113876647Y-102796228D01*
X113878221Y-102973046D01*
X113879576Y-103181246D01*
X113880770Y-103423625D01*
X113881866Y-103702983D01*
X113882923Y-104022118D01*
X113883996Y-104381428D01*
X113885077Y-104753317D01*
X113885950Y-105082658D01*
X113886479Y-105372261D01*
X113886529Y-105624935D01*
X113885964Y-105843490D01*
X113884650Y-106030735D01*
X113882450Y-106189480D01*
X113879229Y-106322535D01*
X113874851Y-106432708D01*
X113869182Y-106522809D01*
X113862086Y-106595648D01*
X113853427Y-106654034D01*
X113843070Y-106700777D01*
X113830879Y-106738686D01*
X113816720Y-106770570D01*
X113800456Y-106799240D01*
X113781953Y-106827504D01*
X113764876Y-106852550D01*
X113730451Y-106905373D01*
X113710068Y-106940698D01*
X113707679Y-106947168D01*
X113729590Y-106949332D01*
X113792255Y-106951342D01*
X113891070Y-106953150D01*
X114021431Y-106954708D01*
X114178735Y-106955967D01*
X114358379Y-106956880D01*
X114555759Y-106957398D01*
X114694197Y-106957500D01*
X114905120Y-106957057D01*
X115099669Y-106955788D01*
X115273446Y-106953782D01*
X115422056Y-106951126D01*
X115541102Y-106947910D01*
X115626188Y-106944223D01*
X115672916Y-106940153D01*
X115680715Y-106937598D01*
X115665251Y-106907659D01*
X115649182Y-106891527D01*
X115622721Y-106857121D01*
X115588088Y-106796349D01*
X115564138Y-106747009D01*
X115510625Y-106628661D01*
X115504448Y-104264420D01*
X115498270Y-101900178D01*
X114602974Y-101900179D01*
X114406468Y-101900509D01*
X114224873Y-101901450D01*
X114063021Y-101902930D01*
X113925747Y-101904875D01*
X113817880Y-101907214D01*
X113744255Y-101909872D01*
X113709703Y-101912777D01*
X113707679Y-101913687D01*
X111676642Y-101913687D01*
X111707271Y-101875558D01*
X111856293Y-101690364D01*
X112000979Y-101510901D01*
X112138589Y-101340584D01*
X112266386Y-101182831D01*
X112381631Y-101041057D01*
X112481586Y-100918679D01*
X112563512Y-100819112D01*
X112597994Y-100777589D01*
X112771349Y-100575368D01*
X112925231Y-100408109D01*
X113063472Y-100271863D01*
X113189905Y-100162679D01*
X113208750Y-100147878D01*
X113288125Y-100086396D01*
X112151313Y-100086144D01*
X111014500Y-100085893D01*
X111025126Y-100182277D01*
X111018490Y-100297476D01*
X110975236Y-100434635D01*
X110894929Y-100594846D01*
X110803911Y-100740057D01*
X110771329Y-100785550D01*
X110714972Y-100860997D01*
X110638199Y-100962095D01*
X110544369Y-101084544D01*
X110436842Y-101224040D01*
X110318978Y-101376283D01*
X110194135Y-101536969D01*
X110065673Y-101701797D01*
X109936952Y-101866465D01*
X109811331Y-102026671D01*
X109692170Y-102178112D01*
X109582828Y-102316487D01*
X109486664Y-102437494D01*
X109407038Y-102536831D01*
X109347309Y-102610195D01*
X109310838Y-102653285D01*
X109304694Y-102659911D01*
X109298949Y-102643826D01*
X109294502Y-102582968D01*
X109291360Y-102477902D01*
X109289532Y-102329192D01*
X109289023Y-102137404D01*
X109289841Y-101903103D01*
X109291667Y-101662054D01*
X109294324Y-101396651D01*
X109297387Y-101172176D01*
X109301356Y-100984201D01*
X109306731Y-100828298D01*
X109314011Y-100700036D01*
X109323696Y-100594989D01*
X109336286Y-100508727D01*
X109352280Y-100436821D01*
X109372178Y-100374843D01*
X109396480Y-100318364D01*
X109425684Y-100262956D01*
X109455180Y-100212655D01*
X109531513Y-100085893D01*
X107402284Y-100085893D01*
X106793904Y-100085893D01*
X106793971Y-100073337D01*
X106795591Y-99868281D01*
X106797651Y-99689665D01*
X106800202Y-99535596D01*
X106803296Y-99404184D01*
X106806984Y-99293535D01*
X106811317Y-99201760D01*
X106816347Y-99126965D01*
X106822125Y-99067259D01*
X106828702Y-99020750D01*
X106836131Y-98985547D01*
X106844461Y-98959757D01*
X106853745Y-98941490D01*
X106864034Y-98928852D01*
X106875379Y-98919954D01*
X106887832Y-98912902D01*
X106901444Y-98905804D01*
X106913490Y-98898636D01*
X106924002Y-98893461D01*
X106940427Y-98888783D01*
X106964962Y-98884577D01*
X106999807Y-98880818D01*
X107047161Y-98877483D01*
X107109222Y-98874544D01*
X107188189Y-98871979D01*
X107286262Y-98869762D01*
X107405639Y-98867868D01*
X107548519Y-98866273D01*
X107717102Y-98864951D01*
X107913585Y-98863878D01*
X108140168Y-98863029D01*
X108399050Y-98862380D01*
X108692430Y-98861904D01*
X109022507Y-98861578D01*
X109391479Y-98861377D01*
X109801546Y-98861276D01*
X110225720Y-98861250D01*
X113480893Y-98861250D01*
X113480893Y-99055689D01*
X113480893Y-99055689D01*
G37*
X113480893Y-99055689D02*
X113502720Y-99284585D01*
X113566237Y-99500791D01*
X113668497Y-99699673D01*
X113806554Y-99876597D01*
X113977462Y-100026929D01*
X114172302Y-100143181D01*
X114385788Y-100222777D01*
X114600771Y-100260080D01*
X114813014Y-100257791D01*
X115018276Y-100218609D01*
X115212320Y-100145234D01*
X115390907Y-100040368D01*
X115549796Y-99906708D01*
X115684750Y-99746957D01*
X115791529Y-99563814D01*
X115865895Y-99359978D01*
X115903608Y-99138151D01*
X115907500Y-99037914D01*
X115907500Y-98861250D01*
X116011822Y-98861250D01*
X116084761Y-98866965D01*
X116138796Y-98890669D01*
X116193250Y-98938357D01*
X116270357Y-99015464D01*
X116270357Y-103418173D01*
X116270339Y-103944789D01*
X116270274Y-104427939D01*
X116270146Y-104869515D01*
X116269938Y-105271409D01*
X116269634Y-105635512D01*
X116269217Y-105963715D01*
X116268672Y-106257911D01*
X116267981Y-106519990D01*
X116267128Y-106751845D01*
X116266098Y-106955366D01*
X116264873Y-107132446D01*
X116263437Y-107284976D01*
X116261774Y-107414847D01*
X116259867Y-107523951D01*
X116257701Y-107614179D01*
X116255258Y-107687424D01*
X116252522Y-107745576D01*
X116249477Y-107790528D01*
X116246107Y-107824170D01*
X116242394Y-107848395D01*
X116238324Y-107865093D01*
X116233878Y-107876157D01*
X116231704Y-107879874D01*
X116223341Y-107893960D01*
X116216240Y-107906911D01*
X116208547Y-107918772D01*
X116198407Y-107929593D01*
X116183966Y-107939420D01*
X116163369Y-107948300D01*
X116134761Y-107956282D01*
X116096289Y-107963412D01*
X116046097Y-107969738D01*
X115982331Y-107975308D01*
X115903136Y-107980168D01*
X115806658Y-107984366D01*
X115691042Y-107987950D01*
X115554435Y-107990968D01*
X115394980Y-107993465D01*
X115210825Y-107995490D01*
X115000114Y-107997091D01*
X114760992Y-107998314D01*
X114491605Y-107999208D01*
X114190100Y-107999819D01*
X113854620Y-108000194D01*
X113483312Y-108000383D01*
X113074321Y-108000431D01*
X112625792Y-108000386D01*
X112135872Y-108000295D01*
X111602705Y-108000207D01*
X111525595Y-108000198D01*
X110989255Y-108000111D01*
X110496425Y-107999969D01*
X110045258Y-107999758D01*
X109633907Y-107999462D01*
X109260524Y-107999067D01*
X108923262Y-107998559D01*
X108620275Y-107997924D01*
X108349714Y-107997146D01*
X108109733Y-107996211D01*
X107898485Y-107995105D01*
X107714122Y-107993813D01*
X107554798Y-107992320D01*
X107418665Y-107990613D01*
X107303875Y-107988676D01*
X107208583Y-107986496D01*
X107130940Y-107984057D01*
X107069100Y-107981345D01*
X107021215Y-107978346D01*
X106985438Y-107975045D01*
X106959922Y-107971427D01*
X106942819Y-107967479D01*
X106934065Y-107964127D01*
X106917065Y-107956954D01*
X106901458Y-107951659D01*
X106887184Y-107946362D01*
X106874184Y-107939188D01*
X106862400Y-107928256D01*
X106851772Y-107911691D01*
X106842241Y-107887614D01*
X106833747Y-107854147D01*
X106826231Y-107809413D01*
X106819634Y-107751533D01*
X106813896Y-107678631D01*
X106808960Y-107588828D01*
X106804764Y-107480246D01*
X106801250Y-107351007D01*
X106798359Y-107199235D01*
X106796032Y-107023050D01*
X106794209Y-106820576D01*
X106792830Y-106589935D01*
X106791838Y-106329248D01*
X106791172Y-106036638D01*
X106790773Y-105710227D01*
X106790583Y-105348138D01*
X106790541Y-104948492D01*
X106790588Y-104509412D01*
X106790666Y-104029020D01*
X106790714Y-103505438D01*
X106790715Y-103420759D01*
X106790687Y-102892618D01*
X106790637Y-102407943D01*
X106790615Y-101964841D01*
X106790674Y-101561421D01*
X106790864Y-101195791D01*
X106791237Y-100866060D01*
X106791846Y-100570334D01*
X106792740Y-100306724D01*
X106793904Y-100085893D01*
X107402284Y-100085893D01*
X107482219Y-100202098D01*
X107504660Y-100233775D01*
X107524891Y-100261823D01*
X107543027Y-100288628D01*
X107559180Y-100316571D01*
X107573466Y-100348036D01*
X107585999Y-100385406D01*
X107596893Y-100431066D01*
X107606261Y-100487399D01*
X107614218Y-100556787D01*
X107620878Y-100641614D01*
X107626356Y-100744264D01*
X107630764Y-100867120D01*
X107634218Y-101012566D01*
X107636832Y-101182984D01*
X107638719Y-101380759D01*
X107639994Y-101608274D01*
X107640770Y-101867911D01*
X107641163Y-102162055D01*
X107641286Y-102493090D01*
X107641253Y-102863397D01*
X107641178Y-103275361D01*
X107641161Y-103521696D01*
X107641209Y-103957532D01*
X107641277Y-104350396D01*
X107641253Y-104702675D01*
X107641023Y-105016756D01*
X107640475Y-105295025D01*
X107639496Y-105539867D01*
X107637972Y-105753669D01*
X107635791Y-105938817D01*
X107632840Y-106097696D01*
X107629006Y-106232694D01*
X107624175Y-106346196D01*
X107618235Y-106440588D01*
X107611074Y-106518257D01*
X107602577Y-106581588D01*
X107592632Y-106632968D01*
X107581127Y-106674783D01*
X107567947Y-106709418D01*
X107552981Y-106739261D01*
X107536115Y-106766696D01*
X107517236Y-106794111D01*
X107496232Y-106823891D01*
X107483996Y-106841752D01*
X107406103Y-106957500D01*
X108473977Y-106957500D01*
X108721575Y-106957430D01*
X108927482Y-106957128D01*
X109095363Y-106956452D01*
X109228884Y-106955261D01*
X109331710Y-106953415D01*
X109407508Y-106950772D01*
X109459943Y-106947193D01*
X109492680Y-106942535D01*
X109509386Y-106936659D01*
X109513725Y-106929423D01*
X109509364Y-106920686D01*
X109506961Y-106917812D01*
X109456437Y-106843339D01*
X109404410Y-106737265D01*
X109356981Y-106612708D01*
X109340369Y-106559646D01*
X109331094Y-106523603D01*
X109323256Y-106481293D01*
X109316690Y-106428526D01*
X109311231Y-106361113D01*
X109306712Y-106274863D01*
X109302970Y-106165588D01*
X109299839Y-106029098D01*
X109297155Y-105861203D01*
X109294751Y-105657714D01*
X109292463Y-105414441D01*
X109291705Y-105324643D01*
X109289663Y-105073223D01*
X109288139Y-104863557D01*
X109287250Y-104692046D01*
X109287114Y-104555088D01*
X109287848Y-104449082D01*
X109289570Y-104370429D01*
X109292396Y-104315527D01*
X109296445Y-104280776D01*
X109301834Y-104262575D01*
X109308679Y-104257323D01*
X109317099Y-104261420D01*
X109326087Y-104270089D01*
X109346889Y-104296075D01*
X109391202Y-104354483D01*
X109455891Y-104441033D01*
X109537821Y-104551443D01*
X109633856Y-104681430D01*
X109740861Y-104826714D01*
X109855701Y-104983013D01*
X109975240Y-105146045D01*
X110096342Y-105311529D01*
X110215873Y-105475183D01*
X110330696Y-105632725D01*
X110437678Y-105779874D01*
X110533682Y-105912349D01*
X110615572Y-106025866D01*
X110680214Y-106116146D01*
X110724472Y-106178907D01*
X110733649Y-106192231D01*
X110779697Y-106266366D01*
X110833553Y-106362774D01*
X110884577Y-106462292D01*
X110891047Y-106475713D01*
X110934596Y-106572534D01*
X110959881Y-106647992D01*
X110971392Y-106719963D01*
X110973638Y-106804420D01*
X110972365Y-106957500D01*
X113291550Y-106957500D01*
X113108409Y-106769201D01*
X113014397Y-106668967D01*
X112913373Y-106555504D01*
X112820873Y-106446480D01*
X112779840Y-106395549D01*
X112718691Y-106316105D01*
X112638225Y-106209207D01*
X112540793Y-106078126D01*
X112428748Y-105926138D01*
X112304443Y-105756516D01*
X112170231Y-105572532D01*
X112028464Y-105377462D01*
X111881495Y-105174577D01*
X111731678Y-104967153D01*
X111581364Y-104758462D01*
X111432906Y-104551779D01*
X111288658Y-104350376D01*
X111150971Y-104157527D01*
X111022199Y-103976506D01*
X110904694Y-103810586D01*
X110800810Y-103663041D01*
X110712898Y-103537145D01*
X110643312Y-103436171D01*
X110594405Y-103363393D01*
X110568528Y-103322084D01*
X110564996Y-103313843D01*
X110580986Y-103291089D01*
X110622761Y-103236486D01*
X110687584Y-103153451D01*
X110772716Y-103045400D01*
X110875419Y-102915749D01*
X110992955Y-102767914D01*
X111122584Y-102605312D01*
X111261568Y-102431360D01*
X111407170Y-102249472D01*
X111556650Y-102063066D01*
X111676642Y-101913687D01*
X113707679Y-101913687D01*
X113719551Y-101939717D01*
X113748338Y-101984414D01*
X113750442Y-101987392D01*
X113788184Y-102047967D01*
X113827653Y-102121959D01*
X113835486Y-102138304D01*
X113842590Y-102155237D01*
X113848868Y-102175565D01*
X113854382Y-102202086D01*
X113859191Y-102237598D01*
X113863356Y-102284901D01*
X113866939Y-102346794D01*
X113869999Y-102426074D01*
X113872596Y-102525541D01*
X113874792Y-102647993D01*
X113876647Y-102796228D01*
X113878221Y-102973046D01*
X113879576Y-103181246D01*
X113880770Y-103423625D01*
X113881866Y-103702983D01*
X113882923Y-104022118D01*
X113883996Y-104381428D01*
X113885077Y-104753317D01*
X113885950Y-105082658D01*
X113886479Y-105372261D01*
X113886529Y-105624935D01*
X113885964Y-105843490D01*
X113884650Y-106030735D01*
X113882450Y-106189480D01*
X113879229Y-106322535D01*
X113874851Y-106432708D01*
X113869182Y-106522809D01*
X113862086Y-106595648D01*
X113853427Y-106654034D01*
X113843070Y-106700777D01*
X113830879Y-106738686D01*
X113816720Y-106770570D01*
X113800456Y-106799240D01*
X113781953Y-106827504D01*
X113764876Y-106852550D01*
X113730451Y-106905373D01*
X113710068Y-106940698D01*
X113707679Y-106947168D01*
X113729590Y-106949332D01*
X113792255Y-106951342D01*
X113891070Y-106953150D01*
X114021431Y-106954708D01*
X114178735Y-106955967D01*
X114358379Y-106956880D01*
X114555759Y-106957398D01*
X114694197Y-106957500D01*
X114905120Y-106957057D01*
X115099669Y-106955788D01*
X115273446Y-106953782D01*
X115422056Y-106951126D01*
X115541102Y-106947910D01*
X115626188Y-106944223D01*
X115672916Y-106940153D01*
X115680715Y-106937598D01*
X115665251Y-106907659D01*
X115649182Y-106891527D01*
X115622721Y-106857121D01*
X115588088Y-106796349D01*
X115564138Y-106747009D01*
X115510625Y-106628661D01*
X115504448Y-104264420D01*
X115498270Y-101900178D01*
X114602974Y-101900179D01*
X114406468Y-101900509D01*
X114224873Y-101901450D01*
X114063021Y-101902930D01*
X113925747Y-101904875D01*
X113817880Y-101907214D01*
X113744255Y-101909872D01*
X113709703Y-101912777D01*
X113707679Y-101913687D01*
X111676642Y-101913687D01*
X111707271Y-101875558D01*
X111856293Y-101690364D01*
X112000979Y-101510901D01*
X112138589Y-101340584D01*
X112266386Y-101182831D01*
X112381631Y-101041057D01*
X112481586Y-100918679D01*
X112563512Y-100819112D01*
X112597994Y-100777589D01*
X112771349Y-100575368D01*
X112925231Y-100408109D01*
X113063472Y-100271863D01*
X113189905Y-100162679D01*
X113208750Y-100147878D01*
X113288125Y-100086396D01*
X112151313Y-100086144D01*
X111014500Y-100085893D01*
X111025126Y-100182277D01*
X111018490Y-100297476D01*
X110975236Y-100434635D01*
X110894929Y-100594846D01*
X110803911Y-100740057D01*
X110771329Y-100785550D01*
X110714972Y-100860997D01*
X110638199Y-100962095D01*
X110544369Y-101084544D01*
X110436842Y-101224040D01*
X110318978Y-101376283D01*
X110194135Y-101536969D01*
X110065673Y-101701797D01*
X109936952Y-101866465D01*
X109811331Y-102026671D01*
X109692170Y-102178112D01*
X109582828Y-102316487D01*
X109486664Y-102437494D01*
X109407038Y-102536831D01*
X109347309Y-102610195D01*
X109310838Y-102653285D01*
X109304694Y-102659911D01*
X109298949Y-102643826D01*
X109294502Y-102582968D01*
X109291360Y-102477902D01*
X109289532Y-102329192D01*
X109289023Y-102137404D01*
X109289841Y-101903103D01*
X109291667Y-101662054D01*
X109294324Y-101396651D01*
X109297387Y-101172176D01*
X109301356Y-100984201D01*
X109306731Y-100828298D01*
X109314011Y-100700036D01*
X109323696Y-100594989D01*
X109336286Y-100508727D01*
X109352280Y-100436821D01*
X109372178Y-100374843D01*
X109396480Y-100318364D01*
X109425684Y-100262956D01*
X109455180Y-100212655D01*
X109531513Y-100085893D01*
X107402284Y-100085893D01*
X106793904Y-100085893D01*
X106793971Y-100073337D01*
X106795591Y-99868281D01*
X106797651Y-99689665D01*
X106800202Y-99535596D01*
X106803296Y-99404184D01*
X106806984Y-99293535D01*
X106811317Y-99201760D01*
X106816347Y-99126965D01*
X106822125Y-99067259D01*
X106828702Y-99020750D01*
X106836131Y-98985547D01*
X106844461Y-98959757D01*
X106853745Y-98941490D01*
X106864034Y-98928852D01*
X106875379Y-98919954D01*
X106887832Y-98912902D01*
X106901444Y-98905804D01*
X106913490Y-98898636D01*
X106924002Y-98893461D01*
X106940427Y-98888783D01*
X106964962Y-98884577D01*
X106999807Y-98880818D01*
X107047161Y-98877483D01*
X107109222Y-98874544D01*
X107188189Y-98871979D01*
X107286262Y-98869762D01*
X107405639Y-98867868D01*
X107548519Y-98866273D01*
X107717102Y-98864951D01*
X107913585Y-98863878D01*
X108140168Y-98863029D01*
X108399050Y-98862380D01*
X108692430Y-98861904D01*
X109022507Y-98861578D01*
X109391479Y-98861377D01*
X109801546Y-98861276D01*
X110225720Y-98861250D01*
X113480893Y-98861250D01*
X113480893Y-99055689D01*
G36*
X131913262Y-108669374D02*
X131976299Y-108714058D01*
X132031965Y-108769724D01*
X132031965Y-109391357D01*
X132031819Y-109575936D01*
X132031130Y-109720660D01*
X132029517Y-109831032D01*
X132026600Y-109912553D01*
X132022002Y-109970726D01*
X132015341Y-110011054D01*
X132006238Y-110039037D01*
X131994314Y-110060180D01*
X131984961Y-110072745D01*
X131923225Y-110122112D01*
X131852337Y-110127470D01*
X131787546Y-110097196D01*
X131766137Y-110079323D01*
X131751826Y-110055582D01*
X131743194Y-110017352D01*
X131738822Y-109956010D01*
X131737290Y-109862937D01*
X131737143Y-109791035D01*
X131737143Y-109520179D01*
X130739286Y-109520179D01*
X130739286Y-109766584D01*
X130738254Y-109879259D01*
X130734126Y-109956695D01*
X130725351Y-110008985D01*
X130710382Y-110046221D01*
X130692283Y-110072745D01*
X130630201Y-110121973D01*
X130559992Y-110127802D01*
X130492779Y-110092812D01*
X130474428Y-110074470D01*
X130461468Y-110050154D01*
X130452919Y-110012278D01*
X130447805Y-109953255D01*
X130445149Y-109865499D01*
X130443971Y-109741423D01*
X130443834Y-109712946D01*
X130442862Y-109479169D01*
X130442361Y-109286505D01*
X130442524Y-109130712D01*
X130443545Y-109007548D01*
X130445617Y-108912770D01*
X130448933Y-108842136D01*
X130453687Y-108791403D01*
X130460071Y-108756329D01*
X130468280Y-108732670D01*
X130478507Y-108716186D01*
X130489822Y-108703750D01*
X130553829Y-108663971D01*
X130620583Y-108669374D01*
X130683620Y-108714058D01*
X130709129Y-108742887D01*
X130725389Y-108774732D01*
X130734461Y-108820085D01*
X130738406Y-108889443D01*
X130739285Y-108993299D01*
X130739286Y-108997541D01*
X130739286Y-109225357D01*
X131737143Y-109225357D01*
X131737143Y-108987232D01*
X131738161Y-108877528D01*
X131742251Y-108803453D01*
X131750965Y-108755304D01*
X131765855Y-108723378D01*
X131782500Y-108703750D01*
X131846507Y-108663971D01*
X131913262Y-108669374D01*
X131913262Y-108669374D01*
G37*
X131913262Y-108669374D02*
X131976299Y-108714058D01*
X132031965Y-108769724D01*
X132031965Y-109391357D01*
X132031819Y-109575936D01*
X132031130Y-109720660D01*
X132029517Y-109831032D01*
X132026600Y-109912553D01*
X132022002Y-109970726D01*
X132015341Y-110011054D01*
X132006238Y-110039037D01*
X131994314Y-110060180D01*
X131984961Y-110072745D01*
X131923225Y-110122112D01*
X131852337Y-110127470D01*
X131787546Y-110097196D01*
X131766137Y-110079323D01*
X131751826Y-110055582D01*
X131743194Y-110017352D01*
X131738822Y-109956010D01*
X131737290Y-109862937D01*
X131737143Y-109791035D01*
X131737143Y-109520179D01*
X130739286Y-109520179D01*
X130739286Y-109766584D01*
X130738254Y-109879259D01*
X130734126Y-109956695D01*
X130725351Y-110008985D01*
X130710382Y-110046221D01*
X130692283Y-110072745D01*
X130630201Y-110121973D01*
X130559992Y-110127802D01*
X130492779Y-110092812D01*
X130474428Y-110074470D01*
X130461468Y-110050154D01*
X130452919Y-110012278D01*
X130447805Y-109953255D01*
X130445149Y-109865499D01*
X130443971Y-109741423D01*
X130443834Y-109712946D01*
X130442862Y-109479169D01*
X130442361Y-109286505D01*
X130442524Y-109130712D01*
X130443545Y-109007548D01*
X130445617Y-108912770D01*
X130448933Y-108842136D01*
X130453687Y-108791403D01*
X130460071Y-108756329D01*
X130468280Y-108732670D01*
X130478507Y-108716186D01*
X130489822Y-108703750D01*
X130553829Y-108663971D01*
X130620583Y-108669374D01*
X130683620Y-108714058D01*
X130709129Y-108742887D01*
X130725389Y-108774732D01*
X130734461Y-108820085D01*
X130738406Y-108889443D01*
X130739285Y-108993299D01*
X130739286Y-108997541D01*
X130739286Y-109225357D01*
X131737143Y-109225357D01*
X131737143Y-108987232D01*
X131738161Y-108877528D01*
X131742251Y-108803453D01*
X131750965Y-108755304D01*
X131765855Y-108723378D01*
X131782500Y-108703750D01*
X131846507Y-108663971D01*
X131913262Y-108669374D01*
G36*
X129370443Y-108658587D02*
X129528561Y-108659347D01*
X129651288Y-108660937D01*
X129743606Y-108663622D01*
X129810499Y-108667667D01*
X129856948Y-108673337D01*
X129887937Y-108680897D01*
X129908448Y-108690612D01*
X129918374Y-108698080D01*
X129969891Y-108763442D01*
X129976123Y-108831305D01*
X129944287Y-108892954D01*
X129923468Y-108917589D01*
X129901065Y-108934387D01*
X129868597Y-108944847D01*
X129817586Y-108950472D01*
X129739550Y-108952760D01*
X129626010Y-108953212D01*
X129603711Y-108953214D01*
X129310536Y-108953214D01*
X129310536Y-109497500D01*
X129310343Y-109669059D01*
X129309466Y-109801066D01*
X129307458Y-109899322D01*
X129303874Y-109969633D01*
X129298267Y-110017800D01*
X129290191Y-110049628D01*
X129279198Y-110070919D01*
X129265179Y-110087143D01*
X129199019Y-110127011D01*
X129129954Y-110123869D01*
X129067320Y-110078382D01*
X129062718Y-110072745D01*
X129047737Y-110051435D01*
X129036323Y-110026502D01*
X129027994Y-109991886D01*
X129022267Y-109941530D01*
X129018659Y-109869375D01*
X129016686Y-109769363D01*
X129015866Y-109635435D01*
X129015715Y-109483102D01*
X129015715Y-108953214D01*
X128735747Y-108953214D01*
X128615602Y-108952401D01*
X128532425Y-108949233D01*
X128477843Y-108942616D01*
X128443486Y-108931456D01*
X128420980Y-108914661D01*
X128418247Y-108911741D01*
X128385386Y-108844967D01*
X128388292Y-108769477D01*
X128426072Y-108703750D01*
X128440682Y-108691001D01*
X128459520Y-108680892D01*
X128487608Y-108673117D01*
X128529970Y-108667372D01*
X128591630Y-108663351D01*
X128677612Y-108660749D01*
X128792938Y-108659259D01*
X128942632Y-108658576D01*
X129131718Y-108658396D01*
X129171952Y-108658393D01*
X129370443Y-108658587D01*
X129370443Y-108658587D01*
G37*
X129370443Y-108658587D02*
X129528561Y-108659347D01*
X129651288Y-108660937D01*
X129743606Y-108663622D01*
X129810499Y-108667667D01*
X129856948Y-108673337D01*
X129887937Y-108680897D01*
X129908448Y-108690612D01*
X129918374Y-108698080D01*
X129969891Y-108763442D01*
X129976123Y-108831305D01*
X129944287Y-108892954D01*
X129923468Y-108917589D01*
X129901065Y-108934387D01*
X129868597Y-108944847D01*
X129817586Y-108950472D01*
X129739550Y-108952760D01*
X129626010Y-108953212D01*
X129603711Y-108953214D01*
X129310536Y-108953214D01*
X129310536Y-109497500D01*
X129310343Y-109669059D01*
X129309466Y-109801066D01*
X129307458Y-109899322D01*
X129303874Y-109969633D01*
X129298267Y-110017800D01*
X129290191Y-110049628D01*
X129279198Y-110070919D01*
X129265179Y-110087143D01*
X129199019Y-110127011D01*
X129129954Y-110123869D01*
X129067320Y-110078382D01*
X129062718Y-110072745D01*
X129047737Y-110051435D01*
X129036323Y-110026502D01*
X129027994Y-109991886D01*
X129022267Y-109941530D01*
X129018659Y-109869375D01*
X129016686Y-109769363D01*
X129015866Y-109635435D01*
X129015715Y-109483102D01*
X129015715Y-108953214D01*
X128735747Y-108953214D01*
X128615602Y-108952401D01*
X128532425Y-108949233D01*
X128477843Y-108942616D01*
X128443486Y-108931456D01*
X128420980Y-108914661D01*
X128418247Y-108911741D01*
X128385386Y-108844967D01*
X128388292Y-108769477D01*
X128426072Y-108703750D01*
X128440682Y-108691001D01*
X128459520Y-108680892D01*
X128487608Y-108673117D01*
X128529970Y-108667372D01*
X128591630Y-108663351D01*
X128677612Y-108660749D01*
X128792938Y-108659259D01*
X128942632Y-108658576D01*
X129131718Y-108658396D01*
X129171952Y-108658393D01*
X129370443Y-108658587D01*
G36*
X127814627Y-108672074D02*
X127862265Y-108701746D01*
X127915804Y-108745100D01*
X127915804Y-109391062D01*
X127915633Y-109580015D01*
X127914903Y-109728881D01*
X127913285Y-109842932D01*
X127910451Y-109927436D01*
X127906072Y-109987663D01*
X127899821Y-110028885D01*
X127891369Y-110056370D01*
X127880388Y-110075390D01*
X127872601Y-110084762D01*
X127809443Y-110125931D01*
X127737523Y-110124252D01*
X127674522Y-110089147D01*
X127620982Y-110045793D01*
X127620982Y-108745100D01*
X127674522Y-108701746D01*
X127726195Y-108670210D01*
X127768393Y-108658393D01*
X127814627Y-108672074D01*
X127814627Y-108672074D01*
G37*
X127814627Y-108672074D02*
X127862265Y-108701746D01*
X127915804Y-108745100D01*
X127915804Y-109391062D01*
X127915633Y-109580015D01*
X127914903Y-109728881D01*
X127913285Y-109842932D01*
X127910451Y-109927436D01*
X127906072Y-109987663D01*
X127899821Y-110028885D01*
X127891369Y-110056370D01*
X127880388Y-110075390D01*
X127872601Y-110084762D01*
X127809443Y-110125931D01*
X127737523Y-110124252D01*
X127674522Y-110089147D01*
X127620982Y-110045793D01*
X127620982Y-108745100D01*
X127674522Y-108701746D01*
X127726195Y-108670210D01*
X127768393Y-108658393D01*
X127814627Y-108672074D01*
G36*
X126922765Y-108662345D02*
X126962119Y-108676409D01*
X126963638Y-108677097D01*
X127017080Y-108717881D01*
X127046525Y-108759832D01*
X127052287Y-108779501D01*
X127052002Y-108805637D01*
X127043895Y-108842868D01*
X127026188Y-108895828D01*
X126997104Y-108969145D01*
X126954867Y-109067451D01*
X126897700Y-109195376D01*
X126823826Y-109357552D01*
X126783164Y-109446193D01*
X126709739Y-109604435D01*
X126640811Y-109749957D01*
X126579012Y-109877437D01*
X126526971Y-109981556D01*
X126487321Y-110056993D01*
X126462691Y-110098428D01*
X126457817Y-110104152D01*
X126395458Y-110129402D01*
X126325020Y-110126020D01*
X126268528Y-110095310D01*
X126266226Y-110092812D01*
X126243754Y-110058792D01*
X126206058Y-109992528D01*
X126157786Y-109902549D01*
X126103588Y-109797386D01*
X126084110Y-109758633D01*
X125937082Y-109464140D01*
X125776823Y-109784049D01*
X125719621Y-109894583D01*
X125666551Y-109990444D01*
X125621949Y-110064293D01*
X125590150Y-110108793D01*
X125579373Y-110118229D01*
X125495606Y-110131009D01*
X125426484Y-110104152D01*
X125406151Y-110075449D01*
X125370966Y-110011658D01*
X125323799Y-109919056D01*
X125267520Y-109803920D01*
X125204999Y-109672526D01*
X125139107Y-109531152D01*
X125072714Y-109386074D01*
X125008690Y-109243570D01*
X124949906Y-109109917D01*
X124899232Y-108991391D01*
X124859538Y-108894269D01*
X124833695Y-108824829D01*
X124824572Y-108789347D01*
X124824665Y-108788062D01*
X124846861Y-108743414D01*
X124891226Y-108697940D01*
X124893839Y-108695962D01*
X124948366Y-108665140D01*
X124998801Y-108665438D01*
X125017704Y-108671249D01*
X125040739Y-108683807D01*
X125065200Y-108708511D01*
X125094022Y-108750484D01*
X125130140Y-108814852D01*
X125176488Y-108906740D01*
X125235999Y-109031271D01*
X125289667Y-109146223D01*
X125351412Y-109279472D01*
X125406740Y-109399300D01*
X125452777Y-109499448D01*
X125486650Y-109573655D01*
X125505482Y-109615661D01*
X125508229Y-109622232D01*
X125520582Y-109611490D01*
X125548973Y-109566513D01*
X125589625Y-109493865D01*
X125638759Y-109400111D01*
X125658311Y-109361429D01*
X125724545Y-109230812D01*
X125775624Y-109135688D01*
X125815740Y-109070529D01*
X125849084Y-109029802D01*
X125879849Y-109007978D01*
X125912225Y-108999526D01*
X125933324Y-108998571D01*
X125970542Y-109001869D01*
X126003156Y-109015509D01*
X126035562Y-109045111D01*
X126072156Y-109096293D01*
X126117334Y-109174675D01*
X126175492Y-109285877D01*
X126207580Y-109349135D01*
X126259628Y-109449952D01*
X126305024Y-109533557D01*
X126339760Y-109592897D01*
X126359833Y-109620916D01*
X126362563Y-109622083D01*
X126375526Y-109600031D01*
X126404549Y-109542770D01*
X126446725Y-109456293D01*
X126499148Y-109346593D01*
X126558911Y-109219663D01*
X126588309Y-109156616D01*
X126664788Y-108993907D01*
X126726372Y-108868706D01*
X126776258Y-108776928D01*
X126817643Y-108714487D01*
X126853724Y-108677300D01*
X126887699Y-108661281D01*
X126922765Y-108662345D01*
X126922765Y-108662345D01*
G37*
X126922765Y-108662345D02*
X126962119Y-108676409D01*
X126963638Y-108677097D01*
X127017080Y-108717881D01*
X127046525Y-108759832D01*
X127052287Y-108779501D01*
X127052002Y-108805637D01*
X127043895Y-108842868D01*
X127026188Y-108895828D01*
X126997104Y-108969145D01*
X126954867Y-109067451D01*
X126897700Y-109195376D01*
X126823826Y-109357552D01*
X126783164Y-109446193D01*
X126709739Y-109604435D01*
X126640811Y-109749957D01*
X126579012Y-109877437D01*
X126526971Y-109981556D01*
X126487321Y-110056993D01*
X126462691Y-110098428D01*
X126457817Y-110104152D01*
X126395458Y-110129402D01*
X126325020Y-110126020D01*
X126268528Y-110095310D01*
X126266226Y-110092812D01*
X126243754Y-110058792D01*
X126206058Y-109992528D01*
X126157786Y-109902549D01*
X126103588Y-109797386D01*
X126084110Y-109758633D01*
X125937082Y-109464140D01*
X125776823Y-109784049D01*
X125719621Y-109894583D01*
X125666551Y-109990444D01*
X125621949Y-110064293D01*
X125590150Y-110108793D01*
X125579373Y-110118229D01*
X125495606Y-110131009D01*
X125426484Y-110104152D01*
X125406151Y-110075449D01*
X125370966Y-110011658D01*
X125323799Y-109919056D01*
X125267520Y-109803920D01*
X125204999Y-109672526D01*
X125139107Y-109531152D01*
X125072714Y-109386074D01*
X125008690Y-109243570D01*
X124949906Y-109109917D01*
X124899232Y-108991391D01*
X124859538Y-108894269D01*
X124833695Y-108824829D01*
X124824572Y-108789347D01*
X124824665Y-108788062D01*
X124846861Y-108743414D01*
X124891226Y-108697940D01*
X124893839Y-108695962D01*
X124948366Y-108665140D01*
X124998801Y-108665438D01*
X125017704Y-108671249D01*
X125040739Y-108683807D01*
X125065200Y-108708511D01*
X125094022Y-108750484D01*
X125130140Y-108814852D01*
X125176488Y-108906740D01*
X125235999Y-109031271D01*
X125289667Y-109146223D01*
X125351412Y-109279472D01*
X125406740Y-109399300D01*
X125452777Y-109499448D01*
X125486650Y-109573655D01*
X125505482Y-109615661D01*
X125508229Y-109622232D01*
X125520582Y-109611490D01*
X125548973Y-109566513D01*
X125589625Y-109493865D01*
X125638759Y-109400111D01*
X125658311Y-109361429D01*
X125724545Y-109230812D01*
X125775624Y-109135688D01*
X125815740Y-109070529D01*
X125849084Y-109029802D01*
X125879849Y-109007978D01*
X125912225Y-108999526D01*
X125933324Y-108998571D01*
X125970542Y-109001869D01*
X126003156Y-109015509D01*
X126035562Y-109045111D01*
X126072156Y-109096293D01*
X126117334Y-109174675D01*
X126175492Y-109285877D01*
X126207580Y-109349135D01*
X126259628Y-109449952D01*
X126305024Y-109533557D01*
X126339760Y-109592897D01*
X126359833Y-109620916D01*
X126362563Y-109622083D01*
X126375526Y-109600031D01*
X126404549Y-109542770D01*
X126446725Y-109456293D01*
X126499148Y-109346593D01*
X126558911Y-109219663D01*
X126588309Y-109156616D01*
X126664788Y-108993907D01*
X126726372Y-108868706D01*
X126776258Y-108776928D01*
X126817643Y-108714487D01*
X126853724Y-108677300D01*
X126887699Y-108661281D01*
X126922765Y-108662345D01*
G36*
X121445710Y-108658811D02*
X121704821Y-108667572D01*
X121925206Y-108694140D01*
X122110499Y-108740105D01*
X122264335Y-108807060D01*
X122390346Y-108896593D01*
X122492167Y-109010296D01*
X122573431Y-109149759D01*
X122575030Y-109153160D01*
X122623529Y-109277979D01*
X122640809Y-109388523D01*
X122626805Y-109499774D01*
X122581448Y-109626710D01*
X122572846Y-109646026D01*
X122514186Y-109759083D01*
X122448260Y-109846442D01*
X122363174Y-109920704D01*
X122247034Y-109994468D01*
X122240287Y-109998319D01*
X122139184Y-110046885D01*
X122024909Y-110083156D01*
X121890121Y-110108383D01*
X121727475Y-110123816D01*
X121529629Y-110130708D01*
X121459727Y-110131307D01*
X121126864Y-110132500D01*
X121079861Y-110072745D01*
X121065918Y-110053096D01*
X121055041Y-110030150D01*
X121046851Y-109998406D01*
X121040967Y-109952359D01*
X121037011Y-109886510D01*
X121035721Y-109837679D01*
X121350357Y-109837679D01*
X121538960Y-109837679D01*
X121649325Y-109834451D01*
X121762621Y-109825958D01*
X121855605Y-109813980D01*
X121861218Y-109812971D01*
X122026370Y-109768665D01*
X122154470Y-109702099D01*
X122249570Y-109610184D01*
X122315723Y-109489832D01*
X122327227Y-109457935D01*
X122338502Y-109408257D01*
X122333620Y-109359177D01*
X122309867Y-109293884D01*
X122295549Y-109261809D01*
X122248662Y-109176574D01*
X122192171Y-109116776D01*
X122130015Y-109075134D01*
X122005512Y-109020945D01*
X121846174Y-108981692D01*
X121660553Y-108959089D01*
X121526116Y-108954114D01*
X121350357Y-108953214D01*
X121350357Y-109837679D01*
X121035721Y-109837679D01*
X121034602Y-109795355D01*
X121033361Y-109673392D01*
X121032908Y-109515118D01*
X121032857Y-109391357D01*
X121032857Y-108769724D01*
X121088523Y-108714058D01*
X121113228Y-108691495D01*
X121139941Y-108676043D01*
X121177244Y-108666375D01*
X121233723Y-108661164D01*
X121317958Y-108659082D01*
X121438535Y-108658801D01*
X121445710Y-108658811D01*
X121445710Y-108658811D01*
G37*
X121445710Y-108658811D02*
X121704821Y-108667572D01*
X121925206Y-108694140D01*
X122110499Y-108740105D01*
X122264335Y-108807060D01*
X122390346Y-108896593D01*
X122492167Y-109010296D01*
X122573431Y-109149759D01*
X122575030Y-109153160D01*
X122623529Y-109277979D01*
X122640809Y-109388523D01*
X122626805Y-109499774D01*
X122581448Y-109626710D01*
X122572846Y-109646026D01*
X122514186Y-109759083D01*
X122448260Y-109846442D01*
X122363174Y-109920704D01*
X122247034Y-109994468D01*
X122240287Y-109998319D01*
X122139184Y-110046885D01*
X122024909Y-110083156D01*
X121890121Y-110108383D01*
X121727475Y-110123816D01*
X121529629Y-110130708D01*
X121459727Y-110131307D01*
X121126864Y-110132500D01*
X121079861Y-110072745D01*
X121065918Y-110053096D01*
X121055041Y-110030150D01*
X121046851Y-109998406D01*
X121040967Y-109952359D01*
X121037011Y-109886510D01*
X121035721Y-109837679D01*
X121350357Y-109837679D01*
X121538960Y-109837679D01*
X121649325Y-109834451D01*
X121762621Y-109825958D01*
X121855605Y-109813980D01*
X121861218Y-109812971D01*
X122026370Y-109768665D01*
X122154470Y-109702099D01*
X122249570Y-109610184D01*
X122315723Y-109489832D01*
X122327227Y-109457935D01*
X122338502Y-109408257D01*
X122333620Y-109359177D01*
X122309867Y-109293884D01*
X122295549Y-109261809D01*
X122248662Y-109176574D01*
X122192171Y-109116776D01*
X122130015Y-109075134D01*
X122005512Y-109020945D01*
X121846174Y-108981692D01*
X121660553Y-108959089D01*
X121526116Y-108954114D01*
X121350357Y-108953214D01*
X121350357Y-109837679D01*
X121035721Y-109837679D01*
X121034602Y-109795355D01*
X121033361Y-109673392D01*
X121032908Y-109515118D01*
X121032857Y-109391357D01*
X121032857Y-108769724D01*
X121088523Y-108714058D01*
X121113228Y-108691495D01*
X121139941Y-108676043D01*
X121177244Y-108666375D01*
X121233723Y-108661164D01*
X121317958Y-108659082D01*
X121438535Y-108658801D01*
X121445710Y-108658811D01*
G36*
X119862743Y-108658780D02*
X120016142Y-108660617D01*
X120133695Y-108664911D01*
X120220156Y-108672672D01*
X120280280Y-108684910D01*
X120318820Y-108702635D01*
X120340532Y-108726856D01*
X120350170Y-108758582D01*
X120352488Y-108798823D01*
X120352500Y-108803575D01*
X120350488Y-108849091D01*
X120340975Y-108884269D01*
X120318751Y-108910528D01*
X120278602Y-108929289D01*
X120215316Y-108941973D01*
X120123682Y-108949999D01*
X119998487Y-108954789D01*
X119834519Y-108957761D01*
X119784263Y-108958420D01*
X119297947Y-108964554D01*
X119291145Y-109094955D01*
X119284344Y-109225357D01*
X119622139Y-109225357D01*
X119754107Y-109225844D01*
X119848337Y-109227903D01*
X119912445Y-109232432D01*
X119954044Y-109240330D01*
X119980750Y-109252495D01*
X120000178Y-109269825D01*
X120000302Y-109269963D01*
X120035537Y-109337501D01*
X120034263Y-109410498D01*
X119997284Y-109472725D01*
X119989965Y-109479121D01*
X119963990Y-109495605D01*
X119928397Y-109507073D01*
X119875253Y-109514388D01*
X119796628Y-109518415D01*
X119684590Y-109520017D01*
X119612934Y-109520179D01*
X119286607Y-109520179D01*
X119286607Y-109837679D01*
X119782021Y-109837679D01*
X119945586Y-109837965D01*
X120069797Y-109839134D01*
X120160655Y-109841654D01*
X120224160Y-109845992D01*
X120266313Y-109852614D01*
X120293116Y-109861987D01*
X120310569Y-109874579D01*
X120314967Y-109879152D01*
X120347440Y-109942526D01*
X120349816Y-110014624D01*
X120323175Y-110077135D01*
X120302097Y-110097196D01*
X120280170Y-110108240D01*
X120246195Y-110116785D01*
X120194798Y-110123129D01*
X120120605Y-110127572D01*
X120018241Y-110130413D01*
X119882333Y-110131952D01*
X119707505Y-110132487D01*
X119667980Y-110132500D01*
X119490224Y-110132384D01*
X119352242Y-110131742D01*
X119248456Y-110130134D01*
X119173283Y-110127121D01*
X119121141Y-110122263D01*
X119086451Y-110115121D01*
X119063630Y-110105254D01*
X119047097Y-110092223D01*
X119038027Y-110082866D01*
X119024374Y-110066294D01*
X119013708Y-110045764D01*
X119005660Y-110015893D01*
X118999864Y-109971298D01*
X118995953Y-109906594D01*
X118993557Y-109816397D01*
X118992310Y-109695324D01*
X118991844Y-109537990D01*
X118991786Y-109405568D01*
X118991929Y-109220012D01*
X118992606Y-109074342D01*
X118994192Y-108963088D01*
X118997061Y-108880778D01*
X119001587Y-108821943D01*
X119008144Y-108781111D01*
X119017106Y-108752812D01*
X119028847Y-108731575D01*
X119038789Y-108718148D01*
X119085792Y-108658393D01*
X119668743Y-108658393D01*
X119862743Y-108658780D01*
X119862743Y-108658780D01*
G37*
X119862743Y-108658780D02*
X120016142Y-108660617D01*
X120133695Y-108664911D01*
X120220156Y-108672672D01*
X120280280Y-108684910D01*
X120318820Y-108702635D01*
X120340532Y-108726856D01*
X120350170Y-108758582D01*
X120352488Y-108798823D01*
X120352500Y-108803575D01*
X120350488Y-108849091D01*
X120340975Y-108884269D01*
X120318751Y-108910528D01*
X120278602Y-108929289D01*
X120215316Y-108941973D01*
X120123682Y-108949999D01*
X119998487Y-108954789D01*
X119834519Y-108957761D01*
X119784263Y-108958420D01*
X119297947Y-108964554D01*
X119291145Y-109094955D01*
X119284344Y-109225357D01*
X119622139Y-109225357D01*
X119754107Y-109225844D01*
X119848337Y-109227903D01*
X119912445Y-109232432D01*
X119954044Y-109240330D01*
X119980750Y-109252495D01*
X120000178Y-109269825D01*
X120000302Y-109269963D01*
X120035537Y-109337501D01*
X120034263Y-109410498D01*
X119997284Y-109472725D01*
X119989965Y-109479121D01*
X119963990Y-109495605D01*
X119928397Y-109507073D01*
X119875253Y-109514388D01*
X119796628Y-109518415D01*
X119684590Y-109520017D01*
X119612934Y-109520179D01*
X119286607Y-109520179D01*
X119286607Y-109837679D01*
X119782021Y-109837679D01*
X119945586Y-109837965D01*
X120069797Y-109839134D01*
X120160655Y-109841654D01*
X120224160Y-109845992D01*
X120266313Y-109852614D01*
X120293116Y-109861987D01*
X120310569Y-109874579D01*
X120314967Y-109879152D01*
X120347440Y-109942526D01*
X120349816Y-110014624D01*
X120323175Y-110077135D01*
X120302097Y-110097196D01*
X120280170Y-110108240D01*
X120246195Y-110116785D01*
X120194798Y-110123129D01*
X120120605Y-110127572D01*
X120018241Y-110130413D01*
X119882333Y-110131952D01*
X119707505Y-110132487D01*
X119667980Y-110132500D01*
X119490224Y-110132384D01*
X119352242Y-110131742D01*
X119248456Y-110130134D01*
X119173283Y-110127121D01*
X119121141Y-110122263D01*
X119086451Y-110115121D01*
X119063630Y-110105254D01*
X119047097Y-110092223D01*
X119038027Y-110082866D01*
X119024374Y-110066294D01*
X119013708Y-110045764D01*
X119005660Y-110015893D01*
X118999864Y-109971298D01*
X118995953Y-109906594D01*
X118993557Y-109816397D01*
X118992310Y-109695324D01*
X118991844Y-109537990D01*
X118991786Y-109405568D01*
X118991929Y-109220012D01*
X118992606Y-109074342D01*
X118994192Y-108963088D01*
X118997061Y-108880778D01*
X119001587Y-108821943D01*
X119008144Y-108781111D01*
X119017106Y-108752812D01*
X119028847Y-108731575D01*
X119038789Y-108718148D01*
X119085792Y-108658393D01*
X119668743Y-108658393D01*
X119862743Y-108658780D01*
G36*
X116788165Y-108667195D02*
X116835507Y-108694967D01*
X116897408Y-108740385D01*
X116977077Y-108805589D01*
X117077720Y-108892717D01*
X117202548Y-109003910D01*
X117354768Y-109141307D01*
X117529018Y-109299276D01*
X117891875Y-109628327D01*
X117903215Y-109186665D01*
X117907309Y-109034634D01*
X117911258Y-108921417D01*
X117915938Y-108840480D01*
X117922221Y-108785293D01*
X117930982Y-108749322D01*
X117943094Y-108726035D01*
X117959431Y-108708899D01*
X117968093Y-108701698D01*
X118037463Y-108663623D01*
X118103473Y-108669190D01*
X118155836Y-108701717D01*
X118209375Y-108745042D01*
X118216034Y-109377759D01*
X118217877Y-109563841D01*
X118218815Y-109710021D01*
X118218523Y-109821751D01*
X118216677Y-109904482D01*
X118212950Y-109963666D01*
X118207020Y-110004753D01*
X118198560Y-110033196D01*
X118187247Y-110054445D01*
X118174700Y-110071488D01*
X118147556Y-110103095D01*
X118120547Y-110124046D01*
X118089930Y-110132088D01*
X118051957Y-110124965D01*
X118002882Y-110100426D01*
X117938960Y-110056214D01*
X117856445Y-109990076D01*
X117751590Y-109899759D01*
X117620649Y-109783008D01*
X117472322Y-109648859D01*
X116939375Y-109165429D01*
X116928036Y-109605647D01*
X116923935Y-109757401D01*
X116919975Y-109870354D01*
X116915279Y-109951052D01*
X116908967Y-110006041D01*
X116900163Y-110041865D01*
X116887988Y-110065070D01*
X116871563Y-110082201D01*
X116863157Y-110089183D01*
X116788866Y-110127534D01*
X116718668Y-110121749D01*
X116657539Y-110072745D01*
X116643555Y-110053030D01*
X116632656Y-110030006D01*
X116624459Y-109998149D01*
X116618580Y-109951935D01*
X116614636Y-109885840D01*
X116612244Y-109794339D01*
X116611021Y-109671911D01*
X116610582Y-109513029D01*
X116610536Y-109395446D01*
X116610683Y-109211533D01*
X116611381Y-109067452D01*
X116613013Y-108957680D01*
X116615961Y-108876693D01*
X116620611Y-108818968D01*
X116627343Y-108778981D01*
X116636543Y-108751207D01*
X116648594Y-108730123D01*
X116657539Y-108718148D01*
X116680214Y-108689780D01*
X116701405Y-108668362D01*
X116724322Y-108656032D01*
X116752172Y-108654930D01*
X116788165Y-108667195D01*
X116788165Y-108667195D01*
G37*
X116788165Y-108667195D02*
X116835507Y-108694967D01*
X116897408Y-108740385D01*
X116977077Y-108805589D01*
X117077720Y-108892717D01*
X117202548Y-109003910D01*
X117354768Y-109141307D01*
X117529018Y-109299276D01*
X117891875Y-109628327D01*
X117903215Y-109186665D01*
X117907309Y-109034634D01*
X117911258Y-108921417D01*
X117915938Y-108840480D01*
X117922221Y-108785293D01*
X117930982Y-108749322D01*
X117943094Y-108726035D01*
X117959431Y-108708899D01*
X117968093Y-108701698D01*
X118037463Y-108663623D01*
X118103473Y-108669190D01*
X118155836Y-108701717D01*
X118209375Y-108745042D01*
X118216034Y-109377759D01*
X118217877Y-109563841D01*
X118218815Y-109710021D01*
X118218523Y-109821751D01*
X118216677Y-109904482D01*
X118212950Y-109963666D01*
X118207020Y-110004753D01*
X118198560Y-110033196D01*
X118187247Y-110054445D01*
X118174700Y-110071488D01*
X118147556Y-110103095D01*
X118120547Y-110124046D01*
X118089930Y-110132088D01*
X118051957Y-110124965D01*
X118002882Y-110100426D01*
X117938960Y-110056214D01*
X117856445Y-109990076D01*
X117751590Y-109899759D01*
X117620649Y-109783008D01*
X117472322Y-109648859D01*
X116939375Y-109165429D01*
X116928036Y-109605647D01*
X116923935Y-109757401D01*
X116919975Y-109870354D01*
X116915279Y-109951052D01*
X116908967Y-110006041D01*
X116900163Y-110041865D01*
X116887988Y-110065070D01*
X116871563Y-110082201D01*
X116863157Y-110089183D01*
X116788866Y-110127534D01*
X116718668Y-110121749D01*
X116657539Y-110072745D01*
X116643555Y-110053030D01*
X116632656Y-110030006D01*
X116624459Y-109998149D01*
X116618580Y-109951935D01*
X116614636Y-109885840D01*
X116612244Y-109794339D01*
X116611021Y-109671911D01*
X116610582Y-109513029D01*
X116610536Y-109395446D01*
X116610683Y-109211533D01*
X116611381Y-109067452D01*
X116613013Y-108957680D01*
X116615961Y-108876693D01*
X116620611Y-108818968D01*
X116627343Y-108778981D01*
X116636543Y-108751207D01*
X116648594Y-108730123D01*
X116657539Y-108718148D01*
X116680214Y-108689780D01*
X116701405Y-108668362D01*
X116724322Y-108656032D01*
X116752172Y-108654930D01*
X116788165Y-108667195D01*
G36*
X115482427Y-108669506D02*
X115620072Y-108692602D01*
X115725786Y-108728505D01*
X115794560Y-108775778D01*
X115813301Y-108802748D01*
X115832359Y-108865475D01*
X115819534Y-108922222D01*
X115779047Y-108976035D01*
X115716138Y-109001210D01*
X115624857Y-108999165D01*
X115554256Y-108985526D01*
X115397374Y-108959540D01*
X115237046Y-108957070D01*
X115057591Y-108978163D01*
X115008022Y-108987100D01*
X114841157Y-109034146D01*
X114710614Y-109104129D01*
X114617824Y-109195856D01*
X114564219Y-109308134D01*
X114553132Y-109366182D01*
X114560389Y-109483953D01*
X114607241Y-109588150D01*
X114689418Y-109676742D01*
X114802651Y-109747698D01*
X114942671Y-109798987D01*
X115105209Y-109828579D01*
X115285995Y-109834443D01*
X115480762Y-109814548D01*
X115491759Y-109812672D01*
X115569226Y-109798243D01*
X115612178Y-109784306D01*
X115630795Y-109763626D01*
X115635256Y-109728970D01*
X115635357Y-109710618D01*
X115635357Y-109633571D01*
X115497795Y-109633571D01*
X115376318Y-109625250D01*
X115293419Y-109598732D01*
X115245186Y-109551689D01*
X115227704Y-109481790D01*
X115227490Y-109472667D01*
X115237719Y-109412922D01*
X115272792Y-109370261D01*
X115338070Y-109342029D01*
X115438910Y-109325571D01*
X115536585Y-109319520D01*
X115678549Y-109316048D01*
X115781523Y-109321346D01*
X115851753Y-109340893D01*
X115895486Y-109380173D01*
X115918970Y-109444666D01*
X115928451Y-109539854D01*
X115930179Y-109664875D01*
X115927348Y-109804423D01*
X115918833Y-109899347D01*
X115904594Y-109950024D01*
X115901831Y-109953993D01*
X115823650Y-110017316D01*
X115709025Y-110067462D01*
X115565220Y-110103362D01*
X115399504Y-110123944D01*
X115219142Y-110128137D01*
X115031402Y-110114869D01*
X114920982Y-110098572D01*
X114747792Y-110049551D01*
X114586826Y-109969410D01*
X114452056Y-109865398D01*
X114431572Y-109844609D01*
X114365019Y-109757213D01*
X114304969Y-109648898D01*
X114258436Y-109535340D01*
X114232437Y-109432217D01*
X114229304Y-109392611D01*
X114242644Y-109309994D01*
X114278100Y-109207203D01*
X114328869Y-109099006D01*
X114388148Y-109000169D01*
X114440521Y-108934152D01*
X114562974Y-108835952D01*
X114721268Y-108757792D01*
X114909731Y-108701439D01*
X115122690Y-108668663D01*
X115317857Y-108660654D01*
X115482427Y-108669506D01*
X115482427Y-108669506D01*
G37*
X115482427Y-108669506D02*
X115620072Y-108692602D01*
X115725786Y-108728505D01*
X115794560Y-108775778D01*
X115813301Y-108802748D01*
X115832359Y-108865475D01*
X115819534Y-108922222D01*
X115779047Y-108976035D01*
X115716138Y-109001210D01*
X115624857Y-108999165D01*
X115554256Y-108985526D01*
X115397374Y-108959540D01*
X115237046Y-108957070D01*
X115057591Y-108978163D01*
X115008022Y-108987100D01*
X114841157Y-109034146D01*
X114710614Y-109104129D01*
X114617824Y-109195856D01*
X114564219Y-109308134D01*
X114553132Y-109366182D01*
X114560389Y-109483953D01*
X114607241Y-109588150D01*
X114689418Y-109676742D01*
X114802651Y-109747698D01*
X114942671Y-109798987D01*
X115105209Y-109828579D01*
X115285995Y-109834443D01*
X115480762Y-109814548D01*
X115491759Y-109812672D01*
X115569226Y-109798243D01*
X115612178Y-109784306D01*
X115630795Y-109763626D01*
X115635256Y-109728970D01*
X115635357Y-109710618D01*
X115635357Y-109633571D01*
X115497795Y-109633571D01*
X115376318Y-109625250D01*
X115293419Y-109598732D01*
X115245186Y-109551689D01*
X115227704Y-109481790D01*
X115227490Y-109472667D01*
X115237719Y-109412922D01*
X115272792Y-109370261D01*
X115338070Y-109342029D01*
X115438910Y-109325571D01*
X115536585Y-109319520D01*
X115678549Y-109316048D01*
X115781523Y-109321346D01*
X115851753Y-109340893D01*
X115895486Y-109380173D01*
X115918970Y-109444666D01*
X115928451Y-109539854D01*
X115930179Y-109664875D01*
X115927348Y-109804423D01*
X115918833Y-109899347D01*
X115904594Y-109950024D01*
X115901831Y-109953993D01*
X115823650Y-110017316D01*
X115709025Y-110067462D01*
X115565220Y-110103362D01*
X115399504Y-110123944D01*
X115219142Y-110128137D01*
X115031402Y-110114869D01*
X114920982Y-110098572D01*
X114747792Y-110049551D01*
X114586826Y-109969410D01*
X114452056Y-109865398D01*
X114431572Y-109844609D01*
X114365019Y-109757213D01*
X114304969Y-109648898D01*
X114258436Y-109535340D01*
X114232437Y-109432217D01*
X114229304Y-109392611D01*
X114242644Y-109309994D01*
X114278100Y-109207203D01*
X114328869Y-109099006D01*
X114388148Y-109000169D01*
X114440521Y-108934152D01*
X114562974Y-108835952D01*
X114721268Y-108757792D01*
X114909731Y-108701439D01*
X115122690Y-108668663D01*
X115317857Y-108660654D01*
X115482427Y-108669506D01*
G36*
X113526250Y-108703750D02*
X113539471Y-108718964D01*
X113549841Y-108738591D01*
X113557707Y-108767888D01*
X113563413Y-108812113D01*
X113567303Y-108876524D01*
X113569722Y-108966378D01*
X113571016Y-109086934D01*
X113571528Y-109243448D01*
X113571607Y-109395446D01*
X113571467Y-109583978D01*
X113570818Y-109732410D01*
X113569314Y-109846001D01*
X113566611Y-109930009D01*
X113562364Y-109989690D01*
X113556228Y-110030302D01*
X113547859Y-110057104D01*
X113536911Y-110075353D01*
X113526250Y-110087143D01*
X113459949Y-110126680D01*
X113389304Y-110123131D01*
X113326096Y-110080011D01*
X113311573Y-110063177D01*
X113300223Y-110043644D01*
X113291655Y-110016015D01*
X113285478Y-109974889D01*
X113281302Y-109914868D01*
X113278735Y-109830551D01*
X113277388Y-109716540D01*
X113276868Y-109567434D01*
X113276786Y-109398623D01*
X113276786Y-108769724D01*
X113332452Y-108714058D01*
X113401066Y-108667225D01*
X113467623Y-108665538D01*
X113526250Y-108703750D01*
X113526250Y-108703750D01*
G37*
X113526250Y-108703750D02*
X113539471Y-108718964D01*
X113549841Y-108738591D01*
X113557707Y-108767888D01*
X113563413Y-108812113D01*
X113567303Y-108876524D01*
X113569722Y-108966378D01*
X113571016Y-109086934D01*
X113571528Y-109243448D01*
X113571607Y-109395446D01*
X113571467Y-109583978D01*
X113570818Y-109732410D01*
X113569314Y-109846001D01*
X113566611Y-109930009D01*
X113562364Y-109989690D01*
X113556228Y-110030302D01*
X113547859Y-110057104D01*
X113536911Y-110075353D01*
X113526250Y-110087143D01*
X113459949Y-110126680D01*
X113389304Y-110123131D01*
X113326096Y-110080011D01*
X113311573Y-110063177D01*
X113300223Y-110043644D01*
X113291655Y-110016015D01*
X113285478Y-109974889D01*
X113281302Y-109914868D01*
X113278735Y-109830551D01*
X113277388Y-109716540D01*
X113276868Y-109567434D01*
X113276786Y-109398623D01*
X113276786Y-108769724D01*
X113332452Y-108714058D01*
X113401066Y-108667225D01*
X113467623Y-108665538D01*
X113526250Y-108703750D01*
G36*
X111983634Y-108660973D02*
X112133932Y-108671480D01*
X112273717Y-108687891D01*
X112394863Y-108709587D01*
X112489246Y-108735950D01*
X112548739Y-108766364D01*
X112557871Y-108775317D01*
X112589625Y-108844788D01*
X112579996Y-108916108D01*
X112530743Y-108977127D01*
X112528393Y-108978875D01*
X112499423Y-108997676D01*
X112469181Y-109007562D01*
X112426999Y-109008763D01*
X112362208Y-109001507D01*
X112264139Y-108986024D01*
X112256250Y-108984721D01*
X112110123Y-108966769D01*
X111952466Y-108957913D01*
X111794344Y-108957827D01*
X111646820Y-108966185D01*
X111520960Y-108982659D01*
X111427828Y-109006923D01*
X111421709Y-109009362D01*
X111354145Y-109047217D01*
X111330407Y-109085527D01*
X111348990Y-109123204D01*
X111408389Y-109159160D01*
X111507099Y-109192306D01*
X111643615Y-109221554D01*
X111734643Y-109235636D01*
X111923862Y-109262723D01*
X112074355Y-109287484D01*
X112192534Y-109312063D01*
X112284809Y-109338605D01*
X112357590Y-109369253D01*
X112417290Y-109406152D01*
X112470318Y-109451445D01*
X112512931Y-109495923D01*
X112563486Y-109557895D01*
X112588365Y-109611184D01*
X112596146Y-109676839D01*
X112596429Y-109700883D01*
X112590585Y-109780671D01*
X112567229Y-109840030D01*
X112526807Y-109892716D01*
X112444656Y-109973254D01*
X112353048Y-110034674D01*
X112245176Y-110078979D01*
X112114235Y-110108172D01*
X111953416Y-110124256D01*
X111755914Y-110129233D01*
X111723304Y-110129149D01*
X111591599Y-110126419D01*
X111460985Y-110120216D01*
X111345699Y-110111430D01*
X111259980Y-110100950D01*
X111253047Y-110099747D01*
X111167821Y-110079558D01*
X111095533Y-110054055D01*
X111054610Y-110030739D01*
X111016526Y-109969229D01*
X111013875Y-109897602D01*
X111046705Y-109833771D01*
X111054050Y-109826553D01*
X111084412Y-109805107D01*
X111122382Y-109795867D01*
X111181148Y-109797440D01*
X111252488Y-109805613D01*
X111332203Y-109812914D01*
X111443951Y-109819074D01*
X111574408Y-109823544D01*
X111710254Y-109825776D01*
X111745982Y-109825923D01*
X111882334Y-109825373D01*
X111982124Y-109822726D01*
X112054132Y-109817063D01*
X112107140Y-109807466D01*
X112149927Y-109793017D01*
X112175640Y-109780982D01*
X112232143Y-109747565D01*
X112268167Y-109717301D01*
X112273432Y-109708722D01*
X112262325Y-109673296D01*
X112209523Y-109639001D01*
X112118684Y-109607394D01*
X111993468Y-109580031D01*
X111956576Y-109573936D01*
X111763882Y-109543670D01*
X111610096Y-109518373D01*
X111489283Y-109496206D01*
X111395505Y-109475330D01*
X111322829Y-109453907D01*
X111265317Y-109430099D01*
X111217035Y-109402068D01*
X111172047Y-109367975D01*
X111124417Y-109325982D01*
X111108389Y-109311259D01*
X111052194Y-109256314D01*
X111022448Y-109212781D01*
X111010811Y-109162965D01*
X111008929Y-109100189D01*
X111029649Y-108977085D01*
X111091571Y-108872491D01*
X111194341Y-108786745D01*
X111337602Y-108720184D01*
X111439822Y-108690329D01*
X111550917Y-108671047D01*
X111684001Y-108660139D01*
X111830948Y-108656987D01*
X111983634Y-108660973D01*
X111983634Y-108660973D01*
G37*
X111983634Y-108660973D02*
X112133932Y-108671480D01*
X112273717Y-108687891D01*
X112394863Y-108709587D01*
X112489246Y-108735950D01*
X112548739Y-108766364D01*
X112557871Y-108775317D01*
X112589625Y-108844788D01*
X112579996Y-108916108D01*
X112530743Y-108977127D01*
X112528393Y-108978875D01*
X112499423Y-108997676D01*
X112469181Y-109007562D01*
X112426999Y-109008763D01*
X112362208Y-109001507D01*
X112264139Y-108986024D01*
X112256250Y-108984721D01*
X112110123Y-108966769D01*
X111952466Y-108957913D01*
X111794344Y-108957827D01*
X111646820Y-108966185D01*
X111520960Y-108982659D01*
X111427828Y-109006923D01*
X111421709Y-109009362D01*
X111354145Y-109047217D01*
X111330407Y-109085527D01*
X111348990Y-109123204D01*
X111408389Y-109159160D01*
X111507099Y-109192306D01*
X111643615Y-109221554D01*
X111734643Y-109235636D01*
X111923862Y-109262723D01*
X112074355Y-109287484D01*
X112192534Y-109312063D01*
X112284809Y-109338605D01*
X112357590Y-109369253D01*
X112417290Y-109406152D01*
X112470318Y-109451445D01*
X112512931Y-109495923D01*
X112563486Y-109557895D01*
X112588365Y-109611184D01*
X112596146Y-109676839D01*
X112596429Y-109700883D01*
X112590585Y-109780671D01*
X112567229Y-109840030D01*
X112526807Y-109892716D01*
X112444656Y-109973254D01*
X112353048Y-110034674D01*
X112245176Y-110078979D01*
X112114235Y-110108172D01*
X111953416Y-110124256D01*
X111755914Y-110129233D01*
X111723304Y-110129149D01*
X111591599Y-110126419D01*
X111460985Y-110120216D01*
X111345699Y-110111430D01*
X111259980Y-110100950D01*
X111253047Y-110099747D01*
X111167821Y-110079558D01*
X111095533Y-110054055D01*
X111054610Y-110030739D01*
X111016526Y-109969229D01*
X111013875Y-109897602D01*
X111046705Y-109833771D01*
X111054050Y-109826553D01*
X111084412Y-109805107D01*
X111122382Y-109795867D01*
X111181148Y-109797440D01*
X111252488Y-109805613D01*
X111332203Y-109812914D01*
X111443951Y-109819074D01*
X111574408Y-109823544D01*
X111710254Y-109825776D01*
X111745982Y-109825923D01*
X111882334Y-109825373D01*
X111982124Y-109822726D01*
X112054132Y-109817063D01*
X112107140Y-109807466D01*
X112149927Y-109793017D01*
X112175640Y-109780982D01*
X112232143Y-109747565D01*
X112268167Y-109717301D01*
X112273432Y-109708722D01*
X112262325Y-109673296D01*
X112209523Y-109639001D01*
X112118684Y-109607394D01*
X111993468Y-109580031D01*
X111956576Y-109573936D01*
X111763882Y-109543670D01*
X111610096Y-109518373D01*
X111489283Y-109496206D01*
X111395505Y-109475330D01*
X111322829Y-109453907D01*
X111265317Y-109430099D01*
X111217035Y-109402068D01*
X111172047Y-109367975D01*
X111124417Y-109325982D01*
X111108389Y-109311259D01*
X111052194Y-109256314D01*
X111022448Y-109212781D01*
X111010811Y-109162965D01*
X111008929Y-109100189D01*
X111029649Y-108977085D01*
X111091571Y-108872491D01*
X111194341Y-108786745D01*
X111337602Y-108720184D01*
X111439822Y-108690329D01*
X111550917Y-108671047D01*
X111684001Y-108660139D01*
X111830948Y-108656987D01*
X111983634Y-108660973D01*
G36*
X109932334Y-108658552D02*
X110071770Y-108659300D01*
X110177017Y-108661040D01*
X110253656Y-108664177D01*
X110307270Y-108669113D01*
X110343443Y-108676253D01*
X110367759Y-108686001D01*
X110385799Y-108698761D01*
X110392331Y-108704633D01*
X110432058Y-108767027D01*
X110439211Y-108838718D01*
X110413077Y-108902364D01*
X110400993Y-108915227D01*
X110381448Y-108927698D01*
X110349977Y-108937320D01*
X110300744Y-108944559D01*
X110227914Y-108949883D01*
X110125651Y-108953762D01*
X109988118Y-108956664D01*
X109862377Y-108958429D01*
X109364732Y-108964554D01*
X109357931Y-109094955D01*
X109351130Y-109225357D01*
X109688925Y-109225357D01*
X109835574Y-109226622D01*
X109942936Y-109231914D01*
X110017043Y-109243478D01*
X110063931Y-109263558D01*
X110089633Y-109294398D01*
X110100184Y-109338244D01*
X110101786Y-109378937D01*
X110096807Y-109428868D01*
X110078016Y-109465660D01*
X110039633Y-109491235D01*
X109975880Y-109507516D01*
X109880976Y-109516426D01*
X109749142Y-109519887D01*
X109677186Y-109520179D01*
X109353393Y-109520179D01*
X109353393Y-109837679D01*
X109852322Y-109837679D01*
X110015867Y-109837906D01*
X110140163Y-109838929D01*
X110231314Y-109841256D01*
X110295428Y-109845395D01*
X110338610Y-109851857D01*
X110366967Y-109861148D01*
X110386605Y-109873779D01*
X110396607Y-109883036D01*
X110430918Y-109937063D01*
X110441965Y-109985089D01*
X110426191Y-110043751D01*
X110396607Y-110087143D01*
X110380824Y-110100803D01*
X110360449Y-110111410D01*
X110330002Y-110119348D01*
X110284003Y-110125003D01*
X110216970Y-110128759D01*
X110123422Y-110131000D01*
X109997880Y-110132111D01*
X109834862Y-110132476D01*
X109750268Y-110132500D01*
X109569112Y-110132340D01*
X109427832Y-110131602D01*
X109320948Y-110129904D01*
X109242978Y-110126859D01*
X109188441Y-110122083D01*
X109151858Y-110115192D01*
X109127747Y-110105801D01*
X109110627Y-110093525D01*
X109103929Y-110087143D01*
X109090672Y-110071882D01*
X109080281Y-110052193D01*
X109072409Y-110022801D01*
X109066707Y-109978430D01*
X109062828Y-109913803D01*
X109060423Y-109823644D01*
X109059144Y-109702678D01*
X109058645Y-109545628D01*
X109058572Y-109399400D01*
X109058639Y-109212134D01*
X109059110Y-109064928D01*
X109060387Y-108952482D01*
X109062871Y-108869499D01*
X109066964Y-108810680D01*
X109073069Y-108770727D01*
X109081588Y-108744341D01*
X109092922Y-108726225D01*
X109107475Y-108711080D01*
X109111060Y-108707703D01*
X109128459Y-108692755D01*
X109148675Y-108681180D01*
X109177316Y-108672545D01*
X109219991Y-108666422D01*
X109282305Y-108662379D01*
X109369868Y-108659986D01*
X109488287Y-108658811D01*
X109643169Y-108658425D01*
X109753123Y-108658393D01*
X109932334Y-108658552D01*
X109932334Y-108658552D01*
G37*
X109932334Y-108658552D02*
X110071770Y-108659300D01*
X110177017Y-108661040D01*
X110253656Y-108664177D01*
X110307270Y-108669113D01*
X110343443Y-108676253D01*
X110367759Y-108686001D01*
X110385799Y-108698761D01*
X110392331Y-108704633D01*
X110432058Y-108767027D01*
X110439211Y-108838718D01*
X110413077Y-108902364D01*
X110400993Y-108915227D01*
X110381448Y-108927698D01*
X110349977Y-108937320D01*
X110300744Y-108944559D01*
X110227914Y-108949883D01*
X110125651Y-108953762D01*
X109988118Y-108956664D01*
X109862377Y-108958429D01*
X109364732Y-108964554D01*
X109357931Y-109094955D01*
X109351130Y-109225357D01*
X109688925Y-109225357D01*
X109835574Y-109226622D01*
X109942936Y-109231914D01*
X110017043Y-109243478D01*
X110063931Y-109263558D01*
X110089633Y-109294398D01*
X110100184Y-109338244D01*
X110101786Y-109378937D01*
X110096807Y-109428868D01*
X110078016Y-109465660D01*
X110039633Y-109491235D01*
X109975880Y-109507516D01*
X109880976Y-109516426D01*
X109749142Y-109519887D01*
X109677186Y-109520179D01*
X109353393Y-109520179D01*
X109353393Y-109837679D01*
X109852322Y-109837679D01*
X110015867Y-109837906D01*
X110140163Y-109838929D01*
X110231314Y-109841256D01*
X110295428Y-109845395D01*
X110338610Y-109851857D01*
X110366967Y-109861148D01*
X110386605Y-109873779D01*
X110396607Y-109883036D01*
X110430918Y-109937063D01*
X110441965Y-109985089D01*
X110426191Y-110043751D01*
X110396607Y-110087143D01*
X110380824Y-110100803D01*
X110360449Y-110111410D01*
X110330002Y-110119348D01*
X110284003Y-110125003D01*
X110216970Y-110128759D01*
X110123422Y-110131000D01*
X109997880Y-110132111D01*
X109834862Y-110132476D01*
X109750268Y-110132500D01*
X109569112Y-110132340D01*
X109427832Y-110131602D01*
X109320948Y-110129904D01*
X109242978Y-110126859D01*
X109188441Y-110122083D01*
X109151858Y-110115192D01*
X109127747Y-110105801D01*
X109110627Y-110093525D01*
X109103929Y-110087143D01*
X109090672Y-110071882D01*
X109080281Y-110052193D01*
X109072409Y-110022801D01*
X109066707Y-109978430D01*
X109062828Y-109913803D01*
X109060423Y-109823644D01*
X109059144Y-109702678D01*
X109058645Y-109545628D01*
X109058572Y-109399400D01*
X109058639Y-109212134D01*
X109059110Y-109064928D01*
X109060387Y-108952482D01*
X109062871Y-108869499D01*
X109066964Y-108810680D01*
X109073069Y-108770727D01*
X109081588Y-108744341D01*
X109092922Y-108726225D01*
X109107475Y-108711080D01*
X109111060Y-108707703D01*
X109128459Y-108692755D01*
X109148675Y-108681180D01*
X109177316Y-108672545D01*
X109219991Y-108666422D01*
X109282305Y-108662379D01*
X109369868Y-108659986D01*
X109488287Y-108658811D01*
X109643169Y-108658425D01*
X109753123Y-108658393D01*
X109932334Y-108658552D01*
G36*
X107102603Y-108658391D02*
X107181920Y-108659197D01*
X107414331Y-108664805D01*
X107608974Y-108681462D01*
X107772484Y-108710957D01*
X107911494Y-108755074D01*
X108032639Y-108815602D01*
X108142551Y-108894327D01*
X108181809Y-108928525D01*
X108246931Y-109008542D01*
X108305652Y-109117123D01*
X108350911Y-109237480D01*
X108375645Y-109352824D01*
X108378215Y-109395446D01*
X108362110Y-109513599D01*
X108318953Y-109642659D01*
X108256476Y-109764819D01*
X108182413Y-109862269D01*
X108170383Y-109874027D01*
X108068481Y-109956671D01*
X107956892Y-110021186D01*
X107829182Y-110069260D01*
X107678918Y-110102584D01*
X107499666Y-110122849D01*
X107284993Y-110131746D01*
X107186663Y-110132500D01*
X107061640Y-110131898D01*
X106973718Y-110129381D01*
X106914647Y-110123881D01*
X106876180Y-110114332D01*
X106850068Y-110099666D01*
X106836072Y-110087143D01*
X106822851Y-110071929D01*
X106812480Y-110052302D01*
X106804615Y-110023005D01*
X106798909Y-109978780D01*
X106795019Y-109914369D01*
X106792600Y-109824514D01*
X106791306Y-109703959D01*
X106790794Y-109547444D01*
X106790715Y-109395446D01*
X106790215Y-109192717D01*
X106790323Y-109030768D01*
X106792252Y-108953214D01*
X107085536Y-108953214D01*
X107085536Y-109837679D01*
X107272634Y-109837507D01*
X107385216Y-109834278D01*
X107503128Y-109825960D01*
X107601507Y-109814325D01*
X107604500Y-109813846D01*
X107763500Y-109775404D01*
X107886826Y-109715533D01*
X107980637Y-109630335D01*
X108040243Y-109538091D01*
X108076970Y-109435766D01*
X108074122Y-109339686D01*
X108031498Y-109236696D01*
X107948126Y-109130153D01*
X107832594Y-109051204D01*
X107682423Y-108998433D01*
X107582061Y-108979758D01*
X107468137Y-108966643D01*
X107347395Y-108957150D01*
X107244699Y-108953204D01*
X107238616Y-108953185D01*
X107085536Y-108953214D01*
X106792252Y-108953214D01*
X106793451Y-108905059D01*
X106802014Y-108811048D01*
X106818422Y-108744197D01*
X106845090Y-108699963D01*
X106884429Y-108673806D01*
X106938852Y-108661186D01*
X107010773Y-108657561D01*
X107102603Y-108658391D01*
X107102603Y-108658391D01*
G37*
X107102603Y-108658391D02*
X107181920Y-108659197D01*
X107414331Y-108664805D01*
X107608974Y-108681462D01*
X107772484Y-108710957D01*
X107911494Y-108755074D01*
X108032639Y-108815602D01*
X108142551Y-108894327D01*
X108181809Y-108928525D01*
X108246931Y-109008542D01*
X108305652Y-109117123D01*
X108350911Y-109237480D01*
X108375645Y-109352824D01*
X108378215Y-109395446D01*
X108362110Y-109513599D01*
X108318953Y-109642659D01*
X108256476Y-109764819D01*
X108182413Y-109862269D01*
X108170383Y-109874027D01*
X108068481Y-109956671D01*
X107956892Y-110021186D01*
X107829182Y-110069260D01*
X107678918Y-110102584D01*
X107499666Y-110122849D01*
X107284993Y-110131746D01*
X107186663Y-110132500D01*
X107061640Y-110131898D01*
X106973718Y-110129381D01*
X106914647Y-110123881D01*
X106876180Y-110114332D01*
X106850068Y-110099666D01*
X106836072Y-110087143D01*
X106822851Y-110071929D01*
X106812480Y-110052302D01*
X106804615Y-110023005D01*
X106798909Y-109978780D01*
X106795019Y-109914369D01*
X106792600Y-109824514D01*
X106791306Y-109703959D01*
X106790794Y-109547444D01*
X106790715Y-109395446D01*
X106790215Y-109192717D01*
X106790323Y-109030768D01*
X106792252Y-108953214D01*
X107085536Y-108953214D01*
X107085536Y-109837679D01*
X107272634Y-109837507D01*
X107385216Y-109834278D01*
X107503128Y-109825960D01*
X107601507Y-109814325D01*
X107604500Y-109813846D01*
X107763500Y-109775404D01*
X107886826Y-109715533D01*
X107980637Y-109630335D01*
X108040243Y-109538091D01*
X108076970Y-109435766D01*
X108074122Y-109339686D01*
X108031498Y-109236696D01*
X107948126Y-109130153D01*
X107832594Y-109051204D01*
X107682423Y-108998433D01*
X107582061Y-108979758D01*
X107468137Y-108966643D01*
X107347395Y-108957150D01*
X107244699Y-108953204D01*
X107238616Y-108953185D01*
X107085536Y-108953214D01*
X106792252Y-108953214D01*
X106793451Y-108905059D01*
X106802014Y-108811048D01*
X106818422Y-108744197D01*
X106845090Y-108699963D01*
X106884429Y-108673806D01*
X106938852Y-108661186D01*
X107010773Y-108657561D01*
X107102603Y-108658391D01*
G04 #@! TO.C,R8*
D12*
X150233333Y-69252380D02*
X149900000Y-68776190D01*
X149661904Y-69252380D02*
X149661904Y-68252380D01*
X150042857Y-68252380D01*
X150138095Y-68300000D01*
X150185714Y-68347619D01*
X150233333Y-68442857D01*
X150233333Y-68585714D01*
X150185714Y-68680952D01*
X150138095Y-68728571D01*
X150042857Y-68776190D01*
X149661904Y-68776190D01*
X150804761Y-68680952D02*
X150709523Y-68633333D01*
X150661904Y-68585714D01*
X150614285Y-68490476D01*
X150614285Y-68442857D01*
X150661904Y-68347619D01*
X150709523Y-68300000D01*
X150804761Y-68252380D01*
X150995238Y-68252380D01*
X151090476Y-68300000D01*
X151138095Y-68347619D01*
X151185714Y-68442857D01*
X151185714Y-68490476D01*
X151138095Y-68585714D01*
X151090476Y-68633333D01*
X150995238Y-68680952D01*
X150804761Y-68680952D01*
X150709523Y-68728571D01*
X150661904Y-68776190D01*
X150614285Y-68871428D01*
X150614285Y-69061904D01*
X150661904Y-69157142D01*
X150709523Y-69204761D01*
X150804761Y-69252380D01*
X150995238Y-69252380D01*
X151090476Y-69204761D01*
X151138095Y-69157142D01*
X151185714Y-69061904D01*
X151185714Y-68871428D01*
X151138095Y-68776190D01*
X151090476Y-68728571D01*
X150995238Y-68680952D01*
G04 #@! TO.C,R9*
X141833333Y-67572380D02*
X141500000Y-67096190D01*
X141261904Y-67572380D02*
X141261904Y-66572380D01*
X141642857Y-66572380D01*
X141738095Y-66620000D01*
X141785714Y-66667619D01*
X141833333Y-66762857D01*
X141833333Y-66905714D01*
X141785714Y-67000952D01*
X141738095Y-67048571D01*
X141642857Y-67096190D01*
X141261904Y-67096190D01*
X142309523Y-67572380D02*
X142500000Y-67572380D01*
X142595238Y-67524761D01*
X142642857Y-67477142D01*
X142738095Y-67334285D01*
X142785714Y-67143809D01*
X142785714Y-66762857D01*
X142738095Y-66667619D01*
X142690476Y-66620000D01*
X142595238Y-66572380D01*
X142404761Y-66572380D01*
X142309523Y-66620000D01*
X142261904Y-66667619D01*
X142214285Y-66762857D01*
X142214285Y-67000952D01*
X142261904Y-67096190D01*
X142309523Y-67143809D01*
X142404761Y-67191428D01*
X142595238Y-67191428D01*
X142690476Y-67143809D01*
X142738095Y-67096190D01*
X142785714Y-67000952D01*
G04 #@! TO.C,J3*
X113566666Y-85052380D02*
X113566666Y-85766666D01*
X113519047Y-85909523D01*
X113423809Y-86004761D01*
X113280952Y-86052380D01*
X113185714Y-86052380D01*
X113947619Y-85052380D02*
X114566666Y-85052380D01*
X114233333Y-85433333D01*
X114376190Y-85433333D01*
X114471428Y-85480952D01*
X114519047Y-85528571D01*
X114566666Y-85623809D01*
X114566666Y-85861904D01*
X114519047Y-85957142D01*
X114471428Y-86004761D01*
X114376190Y-86052380D01*
X114090476Y-86052380D01*
X113995238Y-86004761D01*
X113947619Y-85957142D01*
G04 #@! TO.C,D3*
X153761904Y-72252380D02*
X153761904Y-71252380D01*
X154000000Y-71252380D01*
X154142857Y-71300000D01*
X154238095Y-71395238D01*
X154285714Y-71490476D01*
X154333333Y-71680952D01*
X154333333Y-71823809D01*
X154285714Y-72014285D01*
X154238095Y-72109523D01*
X154142857Y-72204761D01*
X154000000Y-72252380D01*
X153761904Y-72252380D01*
X154666666Y-71252380D02*
X155285714Y-71252380D01*
X154952380Y-71633333D01*
X155095238Y-71633333D01*
X155190476Y-71680952D01*
X155238095Y-71728571D01*
X155285714Y-71823809D01*
X155285714Y-72061904D01*
X155238095Y-72157142D01*
X155190476Y-72204761D01*
X155095238Y-72252380D01*
X154809523Y-72252380D01*
X154714285Y-72204761D01*
X154666666Y-72157142D01*
G04 #@! TO.C,D5*
X156661904Y-72252380D02*
X156661904Y-71252380D01*
X156900000Y-71252380D01*
X157042857Y-71300000D01*
X157138095Y-71395238D01*
X157185714Y-71490476D01*
X157233333Y-71680952D01*
X157233333Y-71823809D01*
X157185714Y-72014285D01*
X157138095Y-72109523D01*
X157042857Y-72204761D01*
X156900000Y-72252380D01*
X156661904Y-72252380D01*
X158138095Y-71252380D02*
X157661904Y-71252380D01*
X157614285Y-71728571D01*
X157661904Y-71680952D01*
X157757142Y-71633333D01*
X157995238Y-71633333D01*
X158090476Y-71680952D01*
X158138095Y-71728571D01*
X158185714Y-71823809D01*
X158185714Y-72061904D01*
X158138095Y-72157142D01*
X158090476Y-72204761D01*
X157995238Y-72252380D01*
X157757142Y-72252380D01*
X157661904Y-72204761D01*
X157614285Y-72157142D01*
G04 #@! TO.C,D4*
X159661904Y-72252380D02*
X159661904Y-71252380D01*
X159900000Y-71252380D01*
X160042857Y-71300000D01*
X160138095Y-71395238D01*
X160185714Y-71490476D01*
X160233333Y-71680952D01*
X160233333Y-71823809D01*
X160185714Y-72014285D01*
X160138095Y-72109523D01*
X160042857Y-72204761D01*
X159900000Y-72252380D01*
X159661904Y-72252380D01*
X161090476Y-71585714D02*
X161090476Y-72252380D01*
X160852380Y-71204761D02*
X160614285Y-71919047D01*
X161233333Y-71919047D01*
G04 #@! TO.C,R7*
X155633333Y-67152380D02*
X155300000Y-66676190D01*
X155061904Y-67152380D02*
X155061904Y-66152380D01*
X155442857Y-66152380D01*
X155538095Y-66200000D01*
X155585714Y-66247619D01*
X155633333Y-66342857D01*
X155633333Y-66485714D01*
X155585714Y-66580952D01*
X155538095Y-66628571D01*
X155442857Y-66676190D01*
X155061904Y-66676190D01*
X155966666Y-66152380D02*
X156633333Y-66152380D01*
X156204761Y-67152380D01*
G04 #@! TO.C,R6*
X155633333Y-65152380D02*
X155300000Y-64676190D01*
X155061904Y-65152380D02*
X155061904Y-64152380D01*
X155442857Y-64152380D01*
X155538095Y-64200000D01*
X155585714Y-64247619D01*
X155633333Y-64342857D01*
X155633333Y-64485714D01*
X155585714Y-64580952D01*
X155538095Y-64628571D01*
X155442857Y-64676190D01*
X155061904Y-64676190D01*
X156490476Y-64152380D02*
X156300000Y-64152380D01*
X156204761Y-64200000D01*
X156157142Y-64247619D01*
X156061904Y-64390476D01*
X156014285Y-64580952D01*
X156014285Y-64961904D01*
X156061904Y-65057142D01*
X156109523Y-65104761D01*
X156204761Y-65152380D01*
X156395238Y-65152380D01*
X156490476Y-65104761D01*
X156538095Y-65057142D01*
X156585714Y-64961904D01*
X156585714Y-64723809D01*
X156538095Y-64628571D01*
X156490476Y-64580952D01*
X156395238Y-64533333D01*
X156204761Y-64533333D01*
X156109523Y-64580952D01*
X156061904Y-64628571D01*
X156014285Y-64723809D01*
G04 #@! TO.C,R5*
X155633333Y-69252380D02*
X155300000Y-68776190D01*
X155061904Y-69252380D02*
X155061904Y-68252380D01*
X155442857Y-68252380D01*
X155538095Y-68300000D01*
X155585714Y-68347619D01*
X155633333Y-68442857D01*
X155633333Y-68585714D01*
X155585714Y-68680952D01*
X155538095Y-68728571D01*
X155442857Y-68776190D01*
X155061904Y-68776190D01*
X156538095Y-68252380D02*
X156061904Y-68252380D01*
X156014285Y-68728571D01*
X156061904Y-68680952D01*
X156157142Y-68633333D01*
X156395238Y-68633333D01*
X156490476Y-68680952D01*
X156538095Y-68728571D01*
X156585714Y-68823809D01*
X156585714Y-69061904D01*
X156538095Y-69157142D01*
X156490476Y-69204761D01*
X156395238Y-69252380D01*
X156157142Y-69252380D01*
X156061904Y-69204761D01*
X156014285Y-69157142D01*
G04 #@! TO.C,BZ1*
X140728571Y-84830952D02*
X140776190Y-84688095D01*
X140823809Y-84640476D01*
X140919047Y-84592857D01*
X141061904Y-84592857D01*
X141157142Y-84640476D01*
X141204761Y-84688095D01*
X141252380Y-84783333D01*
X141252380Y-85164285D01*
X140252380Y-85164285D01*
X140252380Y-84830952D01*
X140300000Y-84735714D01*
X140347619Y-84688095D01*
X140442857Y-84640476D01*
X140538095Y-84640476D01*
X140633333Y-84688095D01*
X140680952Y-84735714D01*
X140728571Y-84830952D01*
X140728571Y-85164285D01*
X140252380Y-84259523D02*
X140252380Y-83592857D01*
X141252380Y-84259523D01*
X141252380Y-83592857D01*
X141252380Y-82688095D02*
X141252380Y-83259523D01*
X141252380Y-82973809D02*
X140252380Y-82973809D01*
X140395238Y-83069047D01*
X140490476Y-83164285D01*
X140538095Y-83259523D01*
X145531428Y-88140952D02*
X145531428Y-87379047D01*
X145912380Y-87760000D02*
X145150476Y-87760000D01*
G04 #@! TO.C,Q2*
X143504761Y-76547619D02*
X143409523Y-76500000D01*
X143314285Y-76404761D01*
X143171428Y-76261904D01*
X143076190Y-76214285D01*
X142980952Y-76214285D01*
X143028571Y-76452380D02*
X142933333Y-76404761D01*
X142838095Y-76309523D01*
X142790476Y-76119047D01*
X142790476Y-75785714D01*
X142838095Y-75595238D01*
X142933333Y-75500000D01*
X143028571Y-75452380D01*
X143219047Y-75452380D01*
X143314285Y-75500000D01*
X143409523Y-75595238D01*
X143457142Y-75785714D01*
X143457142Y-76119047D01*
X143409523Y-76309523D01*
X143314285Y-76404761D01*
X143219047Y-76452380D01*
X143028571Y-76452380D01*
X143838095Y-75547619D02*
X143885714Y-75500000D01*
X143980952Y-75452380D01*
X144219047Y-75452380D01*
X144314285Y-75500000D01*
X144361904Y-75547619D01*
X144409523Y-75642857D01*
X144409523Y-75738095D01*
X144361904Y-75880952D01*
X143790476Y-76452380D01*
X144409523Y-76452380D01*
G04 #@! TO.C,Q1*
X150604761Y-76547619D02*
X150509523Y-76500000D01*
X150414285Y-76404761D01*
X150271428Y-76261904D01*
X150176190Y-76214285D01*
X150080952Y-76214285D01*
X150128571Y-76452380D02*
X150033333Y-76404761D01*
X149938095Y-76309523D01*
X149890476Y-76119047D01*
X149890476Y-75785714D01*
X149938095Y-75595238D01*
X150033333Y-75500000D01*
X150128571Y-75452380D01*
X150319047Y-75452380D01*
X150414285Y-75500000D01*
X150509523Y-75595238D01*
X150557142Y-75785714D01*
X150557142Y-76119047D01*
X150509523Y-76309523D01*
X150414285Y-76404761D01*
X150319047Y-76452380D01*
X150128571Y-76452380D01*
X151509523Y-76452380D02*
X150938095Y-76452380D01*
X151223809Y-76452380D02*
X151223809Y-75452380D01*
X151128571Y-75595238D01*
X151033333Y-75690476D01*
X150938095Y-75738095D01*
G04 #@! TO.C,C1*
X118033333Y-76157142D02*
X117985714Y-76204761D01*
X117842857Y-76252380D01*
X117747619Y-76252380D01*
X117604761Y-76204761D01*
X117509523Y-76109523D01*
X117461904Y-76014285D01*
X117414285Y-75823809D01*
X117414285Y-75680952D01*
X117461904Y-75490476D01*
X117509523Y-75395238D01*
X117604761Y-75300000D01*
X117747619Y-75252380D01*
X117842857Y-75252380D01*
X117985714Y-75300000D01*
X118033333Y-75347619D01*
X118985714Y-76252380D02*
X118414285Y-76252380D01*
X118700000Y-76252380D02*
X118700000Y-75252380D01*
X118604761Y-75395238D01*
X118509523Y-75490476D01*
X118414285Y-75538095D01*
G04 #@! TO.C,C2*
X111533333Y-68957142D02*
X111485714Y-69004761D01*
X111342857Y-69052380D01*
X111247619Y-69052380D01*
X111104761Y-69004761D01*
X111009523Y-68909523D01*
X110961904Y-68814285D01*
X110914285Y-68623809D01*
X110914285Y-68480952D01*
X110961904Y-68290476D01*
X111009523Y-68195238D01*
X111104761Y-68100000D01*
X111247619Y-68052380D01*
X111342857Y-68052380D01*
X111485714Y-68100000D01*
X111533333Y-68147619D01*
X111914285Y-68147619D02*
X111961904Y-68100000D01*
X112057142Y-68052380D01*
X112295238Y-68052380D01*
X112390476Y-68100000D01*
X112438095Y-68147619D01*
X112485714Y-68242857D01*
X112485714Y-68338095D01*
X112438095Y-68480952D01*
X111866666Y-69052380D01*
X112485714Y-69052380D01*
G04 #@! TO.C,C3*
X111583333Y-73537142D02*
X111535714Y-73584761D01*
X111392857Y-73632380D01*
X111297619Y-73632380D01*
X111154761Y-73584761D01*
X111059523Y-73489523D01*
X111011904Y-73394285D01*
X110964285Y-73203809D01*
X110964285Y-73060952D01*
X111011904Y-72870476D01*
X111059523Y-72775238D01*
X111154761Y-72680000D01*
X111297619Y-72632380D01*
X111392857Y-72632380D01*
X111535714Y-72680000D01*
X111583333Y-72727619D01*
X111916666Y-72632380D02*
X112535714Y-72632380D01*
X112202380Y-73013333D01*
X112345238Y-73013333D01*
X112440476Y-73060952D01*
X112488095Y-73108571D01*
X112535714Y-73203809D01*
X112535714Y-73441904D01*
X112488095Y-73537142D01*
X112440476Y-73584761D01*
X112345238Y-73632380D01*
X112059523Y-73632380D01*
X111964285Y-73584761D01*
X111916666Y-73537142D01*
G04 #@! TO.C,J4*
X140186666Y-79452380D02*
X140186666Y-80166666D01*
X140139047Y-80309523D01*
X140043809Y-80404761D01*
X139900952Y-80452380D01*
X139805714Y-80452380D01*
X141091428Y-79785714D02*
X141091428Y-80452380D01*
X140853333Y-79404761D02*
X140615238Y-80119047D01*
X141234285Y-80119047D01*
G04 #@! TO.C,D2*
X131631904Y-70262380D02*
X131631904Y-69262380D01*
X131870000Y-69262380D01*
X132012857Y-69310000D01*
X132108095Y-69405238D01*
X132155714Y-69500476D01*
X132203333Y-69690952D01*
X132203333Y-69833809D01*
X132155714Y-70024285D01*
X132108095Y-70119523D01*
X132012857Y-70214761D01*
X131870000Y-70262380D01*
X131631904Y-70262380D01*
X132584285Y-69357619D02*
X132631904Y-69310000D01*
X132727142Y-69262380D01*
X132965238Y-69262380D01*
X133060476Y-69310000D01*
X133108095Y-69357619D01*
X133155714Y-69452857D01*
X133155714Y-69548095D01*
X133108095Y-69690952D01*
X132536666Y-70262380D01*
X133155714Y-70262380D01*
X131638095Y-66552380D02*
X131638095Y-65552380D01*
X132209523Y-66552380D02*
X131780952Y-65980952D01*
X132209523Y-65552380D02*
X131638095Y-66123809D01*
G04 #@! TO.C,D1*
X136131904Y-70262380D02*
X136131904Y-69262380D01*
X136370000Y-69262380D01*
X136512857Y-69310000D01*
X136608095Y-69405238D01*
X136655714Y-69500476D01*
X136703333Y-69690952D01*
X136703333Y-69833809D01*
X136655714Y-70024285D01*
X136608095Y-70119523D01*
X136512857Y-70214761D01*
X136370000Y-70262380D01*
X136131904Y-70262380D01*
X137655714Y-70262380D02*
X137084285Y-70262380D01*
X137370000Y-70262380D02*
X137370000Y-69262380D01*
X137274761Y-69405238D01*
X137179523Y-69500476D01*
X137084285Y-69548095D01*
X136288095Y-66452380D02*
X136288095Y-65452380D01*
X136859523Y-66452380D02*
X136430952Y-65880952D01*
X136859523Y-65452380D02*
X136288095Y-66023809D01*
G04 #@! TO.C,L2*
X114633333Y-81452380D02*
X114157142Y-81452380D01*
X114157142Y-80452380D01*
X114919047Y-80547619D02*
X114966666Y-80500000D01*
X115061904Y-80452380D01*
X115300000Y-80452380D01*
X115395238Y-80500000D01*
X115442857Y-80547619D01*
X115490476Y-80642857D01*
X115490476Y-80738095D01*
X115442857Y-80880952D01*
X114871428Y-81452380D01*
X115490476Y-81452380D01*
G04 #@! TO.C,L1*
X118133333Y-80052380D02*
X117657142Y-80052380D01*
X117657142Y-79052380D01*
X118990476Y-80052380D02*
X118419047Y-80052380D01*
X118704761Y-80052380D02*
X118704761Y-79052380D01*
X118609523Y-79195238D01*
X118514285Y-79290476D01*
X118419047Y-79338095D01*
G04 #@! TO.C,U1*
X118288095Y-65702380D02*
X118288095Y-66511904D01*
X118335714Y-66607142D01*
X118383333Y-66654761D01*
X118478571Y-66702380D01*
X118669047Y-66702380D01*
X118764285Y-66654761D01*
X118811904Y-66607142D01*
X118859523Y-66511904D01*
X118859523Y-65702380D01*
X119859523Y-66702380D02*
X119288095Y-66702380D01*
X119573809Y-66702380D02*
X119573809Y-65702380D01*
X119478571Y-65845238D01*
X119383333Y-65940476D01*
X119288095Y-65988095D01*
G04 #@! TO.C,R1*
X147633333Y-63752380D02*
X147300000Y-63276190D01*
X147061904Y-63752380D02*
X147061904Y-62752380D01*
X147442857Y-62752380D01*
X147538095Y-62800000D01*
X147585714Y-62847619D01*
X147633333Y-62942857D01*
X147633333Y-63085714D01*
X147585714Y-63180952D01*
X147538095Y-63228571D01*
X147442857Y-63276190D01*
X147061904Y-63276190D01*
X148585714Y-63752380D02*
X148014285Y-63752380D01*
X148300000Y-63752380D02*
X148300000Y-62752380D01*
X148204761Y-62895238D01*
X148109523Y-62990476D01*
X148014285Y-63038095D01*
G04 #@! TO.C,R2*
X145133333Y-63752380D02*
X144800000Y-63276190D01*
X144561904Y-63752380D02*
X144561904Y-62752380D01*
X144942857Y-62752380D01*
X145038095Y-62800000D01*
X145085714Y-62847619D01*
X145133333Y-62942857D01*
X145133333Y-63085714D01*
X145085714Y-63180952D01*
X145038095Y-63228571D01*
X144942857Y-63276190D01*
X144561904Y-63276190D01*
X145514285Y-62847619D02*
X145561904Y-62800000D01*
X145657142Y-62752380D01*
X145895238Y-62752380D01*
X145990476Y-62800000D01*
X146038095Y-62847619D01*
X146085714Y-62942857D01*
X146085714Y-63038095D01*
X146038095Y-63180952D01*
X145466666Y-63752380D01*
X146085714Y-63752380D01*
G04 #@! TO.C,R3*
X125533333Y-67352380D02*
X125200000Y-66876190D01*
X124961904Y-67352380D02*
X124961904Y-66352380D01*
X125342857Y-66352380D01*
X125438095Y-66400000D01*
X125485714Y-66447619D01*
X125533333Y-66542857D01*
X125533333Y-66685714D01*
X125485714Y-66780952D01*
X125438095Y-66828571D01*
X125342857Y-66876190D01*
X124961904Y-66876190D01*
X125866666Y-66352380D02*
X126485714Y-66352380D01*
X126152380Y-66733333D01*
X126295238Y-66733333D01*
X126390476Y-66780952D01*
X126438095Y-66828571D01*
X126485714Y-66923809D01*
X126485714Y-67161904D01*
X126438095Y-67257142D01*
X126390476Y-67304761D01*
X126295238Y-67352380D01*
X126009523Y-67352380D01*
X125914285Y-67304761D01*
X125866666Y-67257142D01*
G04 #@! TO.C,R4*
X127633333Y-67352380D02*
X127300000Y-66876190D01*
X127061904Y-67352380D02*
X127061904Y-66352380D01*
X127442857Y-66352380D01*
X127538095Y-66400000D01*
X127585714Y-66447619D01*
X127633333Y-66542857D01*
X127633333Y-66685714D01*
X127585714Y-66780952D01*
X127538095Y-66828571D01*
X127442857Y-66876190D01*
X127061904Y-66876190D01*
X128490476Y-66685714D02*
X128490476Y-67352380D01*
X128252380Y-66304761D02*
X128014285Y-67019047D01*
X128633333Y-67019047D01*
G04 #@! TO.C,J2*
X107466666Y-67452380D02*
X107466666Y-68166666D01*
X107419047Y-68309523D01*
X107323809Y-68404761D01*
X107180952Y-68452380D01*
X107085714Y-68452380D01*
X107895238Y-67547619D02*
X107942857Y-67500000D01*
X108038095Y-67452380D01*
X108276190Y-67452380D01*
X108371428Y-67500000D01*
X108419047Y-67547619D01*
X108466666Y-67642857D01*
X108466666Y-67738095D01*
X108419047Y-67880952D01*
X107847619Y-68452380D01*
X108466666Y-68452380D01*
G04 #@! TD*
M02*
